<?xml version="1.0" encoding="UTF-8"?><svg id="Layer_2" xmlns="http://www.w3.org/2000/svg" viewBox="0 0 500 500"><defs><style>.cls-1{fill:#dfeeff;}.cls-2{fill:#c2adff;}</style></defs><g id="Layer_11"><g><circle class="cls-2" cx="250" cy="250" r="250"/><path class="cls-1" d="M204.51,18.6c-35.72,6.82-69.95,34.55-72.6,70.82-.86,11.76,1.37,24.47-4.53,34.67-7.39,12.78-23.91,15.97-37.81,20.94-30.2,10.8-54.77,36.23-64.54,66.77-5.25,16.41-6.12,35.19,2.42,50.15,8.21,14.39,24.04,23.58,30.83,38.69,11.83,26.33-8.57,56.61-4.71,85.21,2.37,17.55,14.64,33.42,31.03,40.14,18.55,7.6,39.93,3.7,59.19,9.22,22.17,6.36,38.86,24.23,58.64,36.09,41.17,24.69,97.69,20.48,134.76-10.02,26.86-22.11,42.76-55.11,68.76-78.22,28.38-25.22,70.86-42.34,77.16-79.78,8.32-49.5-55.34-86.77-53.81-136.94,.66-21.67,13.8-42.94,8.26-63.89-3.95-14.95-16.64-25.92-29.77-34.1-30.06-18.73-64.42-22.28-97.08-33.96-34.57-12.36-68.86-22.92-106.2-15.79Z"/><g><path d="M188.03,318.59c-.9-.72-1.35-1.92-1.35-3.6v-23.58c-1.56-1.08-4.5-2.04-8.82-2.88-4.32-.84-8.4-1.38-12.24-1.62-1.32,2.52-2.28,5.58-2.88,9.18l-.72,3.6c-.12,.84-.48,2.7-1.08,5.58-.6,2.88-1.26,5.37-1.98,7.47-.72,2.1-1.44,3.75-2.16,4.95-4.56,0-7.2-1.2-7.92-3.6,1.32-1.92,2.82-7.56,4.5-16.92l5.94-32.94c2.64-15.6,5.07-28.92,7.29-39.96,2.22-11.04,4.59-20.28,7.11-27.72,2.76-8.28,5.4-12.42,7.92-12.42s4.44,.48,5.76,1.44c0,4.8,1.14,16.38,3.42,34.74,2.4,18,3.6,30.3,3.6,36.9s.66,15.48,1.98,27.36c1.2,12.12,1.8,21.78,1.8,28.98,0,4.08-1.98,6.12-5.94,6.12-1.92,0-3.33-.36-4.23-1.08Zm-1.53-38.16c-.36-5.28-.96-11.82-1.8-19.62-2.76-27.12-4.14-43.74-4.14-49.86v-1.44c-1.2,1.2-2.85,6.63-4.95,16.29-2.1,9.66-4.05,20.01-5.85,31.05-1.8,11.04-2.76,18.36-2.88,21.96,5.04,1.44,10.38,2.16,16.02,2.16,.96,0,2.16-.18,3.6-.54Z"/><path d="M223.66,319.94c-1.26-1.14-1.89-2.49-1.89-4.05,0-1.08,.24-2.4,.72-3.96,.36-1.68,.54-2.94,.54-3.78,0-10.68-.6-31.2-1.8-61.56-1.2-25.92-1.8-46.38-1.8-61.38,0-1.08,.42-1.95,1.26-2.61,.84-.66,1.86-.99,3.06-.99,1.44,0,2.7,.51,3.78,1.53,1.08,1.02,1.62,2.25,1.62,3.69,0,7.2,.36,18,1.08,32.4,.6,15.96,.9,26.76,.9,32.4l.18,2.16v4.32c.36,10.44,.54,26.04,.54,46.8v4.68h13.86c2.52,1.8,3.78,3.6,3.78,5.4,0,1.32-.45,2.49-1.35,3.51-.9,1.02-1.95,1.53-3.15,1.53-.36,0-1.02-.12-1.98-.36l-.72-.18c-.72,.12-1.86,.18-3.42,.18h-3.06c-.84-.12-1.8-.18-2.88-.18-1.2,1.44-2.88,2.16-5.04,2.16-1.56,0-2.97-.57-4.23-1.71Z"/><path d="M268.66,319.94c-1.26-1.14-1.89-2.49-1.89-4.05,0-1.08,.24-2.4,.72-3.96,.36-1.68,.54-2.94,.54-3.78,0-10.68-.6-31.2-1.8-61.56-1.2-25.92-1.8-46.38-1.8-61.38,0-1.08,.42-1.95,1.26-2.61,.84-.66,1.86-.99,3.06-.99,1.44,0,2.7,.51,3.78,1.53,1.08,1.02,1.62,2.25,1.62,3.69,0,7.2,.36,18,1.08,32.4,.6,15.96,.9,26.76,.9,32.4l.18,2.16v4.32c.36,10.44,.54,26.04,.54,46.8v4.68h13.86c2.52,1.8,3.78,3.6,3.78,5.4,0,1.32-.45,2.49-1.35,3.51-.9,1.02-1.95,1.53-3.15,1.53-.36,0-1.02-.12-1.98-.36l-.72-.18c-.72,.12-1.86,.18-3.42,.18h-3.06c-.84-.12-1.8-.18-2.88-.18-1.2,1.44-2.88,2.16-5.04,2.16-1.56,0-2.97-.57-4.23-1.71Z"/><path d="M319.24,320.57c-.9-.84-1.35-1.86-1.35-3.06l.36-17.46c.36-7.8,.54-13.62,.54-17.46,0-3.48-.54-8.64-1.62-15.48-1.2-6.72-1.8-11.94-1.8-15.66,0-4.56-.66-9.78-1.98-15.66-1.32-5.88-3-11.52-5.04-16.92-1.92-5.16-3.54-10.71-4.86-16.65-1.32-5.94-1.98-11.13-1.98-15.57,0-.84,.48-1.56,1.44-2.16,.96-.6,1.98-.9,3.06-.9,1.32,0,2.58,1.38,3.78,4.14,1.44,3.12,2.82,7.5,4.14,13.14,1.32,5.64,2.1,9,2.34,10.08l2.34,12.42,1.8,7.92c.36-1.92,.66-4.44,.9-7.56,.72-9.96,1.62-18.24,2.7-24.84,.84-4.56,1.8-8.04,2.88-10.44,1.2-2.64,2.64-3.96,4.32-3.96,3.24,0,4.86,.6,4.86,1.8,0,6.84-1.44,16.92-4.32,30.24-2.88,13.32-4.32,23.46-4.32,30.42l-.36,2.88c-.24,1.8-.3,2.88-.18,3.24v2.88c0,5.16,.18,13.08,.54,23.76l.36,23.94,.36,4.14,.36,4.32v4.5c0,1.44-.6,2.67-1.8,3.69-1.2,1.02-2.64,1.53-4.32,1.53-1.2,0-2.25-.42-3.15-1.26Z"/></g></g></g></svg>