<?xml version="1.0" encoding="UTF-8"?><svg id="Layer_2" xmlns="http://www.w3.org/2000/svg" viewBox="0 0 1076 850"><defs><style>.cls-1{fill:#f0f0f0;}.cls-2{fill:#e02947;}.cls-3{fill:#fff;}.cls-4{fill:#ffead4;}.cls-5{fill:#7aea87;}.cls-6{fill:#131313;}.cls-7{fill:#ff758c;}.cls-8{fill:#9b4f96;}.cls-9{fill:#65d172;}.cls-10{fill:#dba76e;}.cls-11{fill:#a3a3a3;}.cls-12{fill:#e58b73;}.cls-13{fill:#ef9c7b;}.cls-14{fill:#d60270;}.cls-15{fill:#c2adff;}.cls-16{fill:#d9d9d9;}.cls-17{fill:#0038a8;}.cls-18{fill:#820080;}.cls-19{fill:#f9eaac;}</style></defs><g id="Personalize"><g><path class="cls-4" d="M428.68,38.48c-40.7,21.6-74.88,55.72-76.03,94.67-.89,30.14,15.29,66.47-13.02,86.48-9.64,6.82-22.55,9.74-35.06,12.22-43.9,8.71-88.65,14.41-132.75,22.45-37.39,6.82-74.96,15.56-107.01,32.35C32.75,303.43,6.53,329.4,.96,359.64c-5.57,30.23,13.53,64.02,49.06,75.54,34.12,11.06,81.81,3.76,100.99,28.81,6.45,8.43,7.61,18.77,6.92,28.63-4.03,58.36-65.36,112.65-45.6,168.94,10.83,30.86,43.74,53.06,74.96,73.27,23.78,15.39,48.26,31.1,77.34,38.78,65.64,17.34,138.89-9.67,205.95,3.75,30.91,6.19,58.06,20.52,85.88,32.92,45.26,20.17,94.64,35.85,146.34,39.13,51.7,3.28,106.04-6.88,145.72-33.48,27.23-18.26,46.31-43.21,59.91-69.41,17.55-33.81,26.69-71.14,19.34-107.26-3.9-19.18-12.39-38.28-9.3-57.56,6.45-40.27,57.94-63.82,94.21-92.34,39.04-30.7,63.79-73.55,63.3-117.25-.49-43.7-27.58-87.44-73.27-111.63-19.17-10.15-42.25-17.73-53.57-33.69-6.74-9.49-8.28-20.75-8.41-31.66-.33-27.97,7.71-55.59,9.62-83.52,1.91-27.93-3.34-57.93-26.22-79.15-21.67-20.09-55.75-29.03-88.84-31.63-39.96-3.14-76.71,2.98-114.38,12.94-35.5,9.38-52.55,3.58-88.58-3.12-68.8-12.79-144.57-3.53-203.65,27.83Z"/><path class="cls-2" d="M288.11,224.05c-21.62,26.22-35.27,59.13-25.04,85.99,7.92,20.79,29.2,40.97,15.57,62.61-4.64,7.37-12.61,13.01-20.43,18.24-27.45,18.34-56.33,34.87-84.1,52.82-23.55,15.22-46.67,31.79-63.77,52.29-17.09,20.5-27.62,45.61-22.87,67.78,4.75,22.17,27.32,39.79,54.78,37.6,26.37-2.11,56.81-20.56,76.95-8.92,6.78,3.92,10.49,10.64,12.81,17.55,13.75,40.91-12.69,95.23,16.69,127.99,16.1,17.96,44.8,23.79,71.78,28.73,20.55,3.77,41.67,7.55,63.66,4.56,49.62-6.74,91.9-45.85,141.39-55.66,22.81-4.52,45.36-2.43,67.82-1.85,36.54,.95,74.62-2.32,110.77-14.71,36.15-12.38,70.31-34.66,89.82-64,13.39-20.14,19.34-42.53,21.2-64.23,2.4-28-1.93-56.02-17.14-78.55-8.08-11.97-19.26-22.58-22.6-36.59-6.99-29.26,21.43-59.86,38.08-89.55,17.92-31.96,22.67-68.14,9.99-97.78-12.69-29.64-43.51-51.78-81.48-55.35-15.93-1.5-33.8-.14-46.02-7.81-7.27-4.56-11.51-11.8-14.68-19.19-8.13-18.97-10.46-40.05-17.06-59.63-6.6-19.57-18.65-38.53-40.24-46.52-20.44-7.56-46.19-4.02-69.47,3.56-28.11,9.16-51.43,23.71-74.27,41.14-21.53,16.43-34.79,17.3-61.24,22.92-50.49,10.73-99.5,38.46-130.89,76.53Z"/><path class="cls-6" d="M383.31,536.72c26.26,15.02,60.02,22.19,88.81,9.52,22.29-9.81,44.72-31.11,66.64-22.37,7.46,2.98,12.92,9.09,17.95,15.12,17.65,21.19,33.31,43.88,50.53,65.4,14.6,18.25,30.64,35.94,51.16,47.85,20.52,11.91,46.26,17.47,69.82,10.21,23.56-7.26,43.38-29.31,42.68-52.8-.67-22.56-18.26-46.32-4.85-65.43,4.51-6.43,11.79-10.6,19.17-13.59,43.75-17.71,99.23-2.49,135.36-32.6,19.8-16.5,27.6-42.2,34.37-66.28,5.16-18.35,10.37-37.18,8.52-55.81-4.17-42.05-42.75-73.14-50.15-114.64-3.41-19.13,.11-38.97,2.04-58.51,3.14-31.8,1.93-64.34-8.95-93.91-10.88-29.57-32.27-56.02-61.93-68.77-20.35-8.75-43.52-10.73-66.19-9.27-29.25,1.89-58.92,9.61-83.47,25.98-13.04,8.7-24.83,19.89-39.74,24.77-31.13,10.2-61.59-10.09-91.78-20.32-32.5-11-70.21-9.99-102.07,5.2-31.86,15.19-56.91,45.04-62.88,78.46-2.5,14.02-2.13,29.31-10.9,40.99-5.22,6.95-13.06,11.65-21.01,15.44-20.39,9.74-42.67,14.74-63.6,23.23-20.94,8.49-41.54,21.62-51.2,41.47-9.14,18.79-6.93,40.6-.33,59.7,7.97,23.07,21.88,41.21,38.84,58.54,15.98,16.33,16.12,27.7,20.47,49.82,8.31,42.24,34.55,80.78,72.67,102.59Z"/><path class="cls-19" d="M636.13,150.26c-16.97,13.74-29.02,32.79-37.43,52.94-12.76,30.54-17.67,64.91-10.17,97.15,7.5,32.23,28.23,61.92,57.75,76.89,20.85,10.57,44.79,13.48,68.17,13.49,26.09,0,52.74-3.57,76-15.39,54.81-27.85,78.69-101.6,55.24-158.43-29.72-72.04-143.66-119.99-209.56-66.65Z"/><path class="cls-12" d="M635.98,286.46c10.39,11.5,16.02,27.04,16.05,42.53,.02,10.4-2.5,21.03-8.57,29.48-6.07,8.45-15.96,14.44-26.36,14.42-5.92-.01-11.66-1.89-17.21-3.94-8.42-3.11-16.79-6.71-23.93-12.15-11.54-8.8-19.33-22.37-21.11-36.78s2.47-29.46,11.53-40.81c17.92-22.46,52.76-11.39,69.59,7.24Z"/><path class="cls-12" d="M769.91,313.32c-11.94,2.59-23.92,5.84-34.52,11.93-10.6,6.09-19.81,15.34-23.69,26.93-3.88,11.59-1.61,25.58,7.34,33.91,4.84,4.51,11.18,7.1,17.59,8.74,20.79,5.32,43.83,1.1,61.39-11.25,9.48-6.67,17.54-15.89,20.9-26.98,4.11-13.58,.21-28.46-8.97-39.04-9.8-11.3-27.01-7.07-40.04-4.24Z"/><path class="cls-5" d="M679.9,199.54c10.24,30.83,35.74,58.87,69.13,65.49,3.41-11.55-4.99-25.08-17.36-27.96,10.77,3.26,20.8,9.87,26.03,19.38,7.52,13.67,3.97,30.04,4.46,45.39,.49,15.35,9.08,33.66,25.29,34.46,5.77-9.11,8.76-19.8,8.51-30.47,4.08,16.7,6.09,35.27-3.06,49.93-9.78,15.67-29.55,22.68-43.87,34.81-9.48,8.03-16.63,18.49-20.49,29.98-2.72,8.09-3.84,16.66-7.28,24.5-3.43,7.84-9.94,15.2-18.79,16.66,7.64,2.82,15.5,5.67,23.68,5.75s16.88-3.24,20.67-10.06c3.35-6.03,2.37-13.61,5.72-19.64,5.62-10.13,19.99-11.44,32.02-12.86,29.33-3.47,57.91-15.58,77.77-36.16,33.62-34.85,49.58-130.16,31.48-174.52-18.1-44.36-23.65-71.31-62.44-102-43.09-34.1-69.09-19.87-86.66-28.53-11.01-5.43-46.82-4.56-59.42,.83-11.14,4.77-11.08,44.95-11.74,54.81-1.37,20.2-.12,40.76,6.35,60.23Z"/><path class="cls-9" d="M582.67,136.38c-28.69,28.93-48.26,66.49-58.12,106.2-4.15,16.71-6.89,34.4-16.7,48.49-12.2,17.52-33.17,26.33-53.47,32.53-20.3,6.2-41.66,10.96-58.86,23.49,11.21,8.05,24.73,12.76,38.47,13.41-9.75,15.84-25.82,27.58-43.77,31.96-15.61,3.81-31.97,2.21-47.94,3.89-5.24,.55-11.15,1.94-13.72,6.59-4.47,8.13,5.3,17.15,14.31,19.05,16.14,3.42,32.71-2.47,49.2-2.58,18.89-.13,37.65,7.33,56.31,4.38,14.51-2.3,27.37-10.7,38.72-20.12,15.68-13,29.46-28.34,40.75-45.36-2.83,6.18-5.67,12.37-8.5,18.55,15.11,4.35,31-6.77,38.41-20.76,7.41-14,8.72-30.32,11.56-45.92,.72-3.92,1.6-7.98,4.03-11.13,3.81-4.93,10.37-6.47,15.95-9.19,16.49-8.04,24.61-26.84,30.26-44.44,5.65-17.6,10.87-36.67,24.84-48.64,7.76-6.65,17.65-10.52,24.89-17.73,7.02-6.99,10.94-16.51,14.09-25.95,7.42-22.22,24.63-72.35-15.99-66.06-31.16,4.82-62.98,27.37-84.73,49.31Z"/><path class="cls-16" d="M531.75,349.63c-2.81,8.51-4.68,17.99-2.47,26.67,1.79,6.98,6.01,12.63,10.37,17.73,32.7,38.19,78.64,57.1,124.46,62.68,45.82,5.59,92.15-1.01,138.03-7.61,3.19-.46,6.67-1.08,8.89-3.87,1.84-2.32,2.41-5.64,2.81-8.77,2.93-22.91,1.1-46.58-5.29-68.31-1.92-6.52-4.9-13.6-10.49-15.47-3.44-1.15-7.11-.02-10.58,1.08-33.7,10.71-68.96,19.81-103.01,12.05-38.74-8.83-57.86-36.63-83.49-68.04-23.5-28.79-60.82,26.41-69.23,51.86Z"/><path class="cls-1" d="M738.72,366.72c-33.06-3.77-60.49,22.93-87.4,42.5-30.84,22.42-66.5,37.11-101.83,51.45-95.74,38.87-198.07,77.42-299.86,59.68-21.34-3.72-46.34-8.91-62.2,5.83-5.43,5.05-8.88,11.81-12.16,18.46-14.03,28.38-27.08,57.24-39.12,86.53-1.51,3.68-3.03,7.7-1.97,11.53,1.04,3.78,4.33,6.44,7.45,8.82,48.7,37.21,101.68,72.77,162.21,82.36,42.73,6.77,86.34,.09,128.99-7.21,70.67-12.09,143.36-26.84,202.21-67.79,29.31-20.4,54.05-46.57,78.56-72.55,30.05-31.85,60.32-63.97,83.57-101.08,23.25-37.11,39.3-80,37.98-123.77-.1-3.17-.34-6.53-2.16-9.13-3.76-5.39-11.79-4.81-18.26-3.61-32.29,6-64.46,12.67-96.48,20.01"/><path class="cls-6" d="M646.12,270.18c.05-1.24,.07-2.53-.32-3.78-.4-1.28-1.2-2.42-2.12-3.34-3.63-3.62-8.94-3.6-12.14-.74-3.2,2.86-4.49,7.97-4.29,13.1,.31,7.87,2.29,19.68,10.21,15.5,6.33-3.34,8.33-12.84,8.66-20.75Z"/><path class="cls-6" d="M734.97,312.69c1.66,1.42,4.45,.75,6.74-1.02s4.17-4.47,5.74-7.22c2.34-4.09,4.23-8.66,4.5-12.95,.52-8.34-7.07-12.57-13.06-4.39-4.24,5.78-8.07,22.04-3.92,25.58Z"/><path class="cls-9" d="M649.49,253.45c-1.29-2.91-4.23-4.85-7.33-5.58-3.1-.72-6.35-.36-9.46,.33-.76,.17-1.58,.41-2,1.06-.48,.74-.25,1.74,.12,2.55,1.31,2.87,4.06,4.88,7.02,5.99s6.14,1.43,9.28,1.73c1.12,.11,2.33,.2,3.3-.38,1.49-.9,1.71-3.09,.94-4.65s-2.23-2.63-3.65-3.64"/><path class="cls-9" d="M732.2,267.35c-1.75,.35-3.59,1.05-4.53,2.58-1.27,2.08-.27,4.95,1.59,6.53s4.32,2.21,6.69,2.79c4.71,1.14,10.11,2.17,14.04-.66,8.9-6.41-13.56-12.09-17.79-11.23Z"/><path class="cls-10" d="M684.02,291.77c-.26,.19-.39,.51-.51,.82-2.61,6.85-4.28,14.06-4.96,21.36-.05,.49-.07,1.03,.22,1.42,.26,.35,.71,.5,1.14,.62,3.1,.92,6.21,1.84,9.31,2.76,.55,.16,1.17,.32,1.65,.02,.39-.23,.58-.68,.74-1.11,2.29-6.22,3.09-14.53,1.81-21.07-.76-3.87-4.87-8.2-9.41-4.83Z"/><path class="cls-13" d="M658.88,325.43s-3.4,15.85,16.99,23.78c20.38,7.93,31.71-13.59,31.71-13.59l-48.69-10.19Z"/><g><path class="cls-8" d="M217.46,620.77c0,3.86,.31,7.64,.9,11.33h141.75c.59-3.69,.9-7.48,.9-11.33,0-5.19-.56-10.24-1.61-15.11H219.06c-1.04,4.87-1.61,9.92-1.61,15.11Z"/><path class="cls-14" d="M289.23,549c-34.45,0-63.22,24.28-70.16,56.66h140.33c-6.94-32.38-35.71-56.66-70.16-56.66Z"/><path class="cls-17" d="M289.23,692.54c35.78,0,65.44-26.19,70.87-60.44H218.36c5.43,34.25,35.09,60.44,70.87,60.44Z"/></g><circle class="cls-7" cx="518.33" cy="599.56" r="84.67"/><path class="cls-3" d="M476.42,577.29c1.51-.2,2.68-.91,3.04-2.48,.39-1.7-.6-3.41-2.29-3.84-1.25-.32-2.88,.33-4.09,.68-1.34,.39-2.66,.88-3.9,1.52-4.35,2.25-7.48,7.79-4.89,12.51,2.74,5,9.58,3.64,14.13,5.54,1.73,.73,3.27,2.01,3.82,3.81,.47,1.53-.15,2.8-1.72,3.56-3.27,1.59-9.7,1.1-11.97-2.3-.81-1.21-2.39-1.74-3.7-.97-1.21,.7-1.78,2.48-.97,3.7,2.73,4.11,7.57,5.68,12.33,5.74s9.63-1.61,11.21-6.28-1.72-9.69-5.84-11.72c-2.36-1.17-4.89-1.7-7.47-2.1-1.16-.18-2.33-.31-3.47-.61-.38-.1-.76-.2-1.09-.42-.35-.23-.51-.49-.58-.63-.26-.58-.24-1.25,0-2.09s.7-1.51,1.43-2.12c1.87-1.56,4.47-2.06,6.77-2.61h-1.44l.18,.04-1.19-.69-.22-.26-.37-1.36,.56-1.25,1.91-.79-.18,.02c-1.45,.19-2.7,1.1-2.7,2.7,0,1.31,1.25,2.9,2.7,2.7h0Z"/><path class="cls-3" d="M480.36,556.2c5.68,15.27,11.35,30.55,17.03,45.82,1.2,3.22,6.05,2,5.21-1.44-1.1-4.5-1.99-9.06-2.63-13.65-.32-2.29-.56-4.6-.75-6.91-.18-2.18-.49-4.47-.25-6.65,.13-1.23,.67-2.9,1.93-3.3,.21-.07,.51-.06,.56-.06,.17,.01,.14,.01,.4,.15,.37,.19,.78,.62,1.09,1.09,.87,1.34,1.31,2.77,1.74,4.31,.65,2.37,1.3,4.74,1.96,7.1,1.44,5.21,2.87,10.42,4.31,15.63,.92,3.35,6.14,1.93,5.21-1.44-1.48-5.37-2.96-10.74-4.44-16.1-.71-2.58-1.36-5.18-2.14-7.73-.63-2.05-1.5-4.04-2.87-5.7-3.25-3.95-8.82-3.23-11.57,.87-1.43,2.13-1.69,4.84-1.62,7.33,.08,2.7,.34,5.4,.63,8.08,.68,6.2,1.74,12.36,3.23,18.42l5.21-1.44c-5.68-15.27-11.35-30.55-17.03-45.82-.51-1.37-1.83-2.3-3.32-1.89-1.31,.36-2.4,1.95-1.89,3.32h0Z"/><path class="cls-3" d="M515.62,576.78c3.72-.36,7.42-.95,11.06-1.84,3.25-.79,7.23-1.55,7.5-5.61,.4-5.97-4.04-13.95-11.02-12.15-5.83,1.51-7.27,8.89-7.44,14-.2,5.94,1.65,12.28,6.58,15.96s12.15,3.96,16.57-.47c2.46-2.46-1.36-6.29-3.82-3.82-2.16,2.16-5.61,2.13-8.36,.69-3.3-1.73-5.01-5.35-5.46-9.04-.41-3.39-.18-8.26,1.8-10.92,.82-1.1,1.71-1.6,3.03-.93,1.76,.9,2.34,3.11,2.59,4.9,.06,.4-.05,1.1,.12,1.43-.2-.39,.82-.36,0-.21-1.42,.25-2.84,.8-4.25,1.13-2.94,.69-5.92,1.18-8.93,1.48-1.45,.14-2.7,1.14-2.7,2.7,0,1.35,1.24,2.85,2.7,2.7h0Z"/><path class="cls-3" d="M479.6,615.45c7.9,13.56,15.59,27.24,23.09,41.03,.7,1.28,2.47,1.69,3.7,.97,1.38-.81,1.55-2.35,.97-3.7-1.56-3.62-2.63-7.51-3.17-11.41-.47-3.32-.75-6.99,.14-10.26,.38-1.4,1.05-2.35,1.88-3.5,.02-.03,.32-.28,.32-.3,0,0-.75,0-.72-.04-.02,.02,.45,.45,.65,.65,.6,.6,1.19,1.24,1.72,1.91,2.03,2.58,3.46,5.64,4.54,8.72,1.32,3.76,2.2,7.65,3.04,11.54,.31,1.43,1.97,2.26,3.32,1.89,1.47-.4,2.2-1.89,1.89-3.32-1.79-8.21-3.88-16.75-9.5-23.27-1.61-1.87-3.65-3.94-6.35-3.3-2.09,.5-3.78,2.62-4.75,4.42-2.03,3.79-2.18,8.28-1.85,12.48,.45,5.75,1.88,11.25,4.16,16.54l4.67-2.73c-7.49-13.79-15.19-27.47-23.09-41.03-1.75-3-6.42-.29-4.67,2.73h0Z"/><path class="cls-3" d="M524.88,633.68c3.33-1.01,6.56-2.42,9.52-4.25s5.81-3.95,5.94-7.59c.11-3.28-2.14-6.1-4.36-8.27-1.23-1.2-2.67-2.26-4.48-2.28s-3.29,.87-4.5,2.04c-4.17,4.06-5.91,10.88-5.34,16.53s3.34,12.2,8.82,14.86c7,3.41,14.06-1.39,18.39-6.77,.91-1.14,1.11-2.71,0-3.82-.95-.95-2.9-1.14-3.82,0-2.38,2.96-6.1,6.86-10.32,6.34-3.89-.48-6.25-4.77-7.17-8.16-1.04-3.8-.73-8.04,.96-11.62,.58-1.23,1.65-3.55,2.99-4-.42,.14-.26-.22,.03,.11,.1,.11,.23,.21,.35,.31,.39,.35,.76,.75,1.12,1.13,.67,.72,1.38,1.54,1.75,2.47,.82,2.1-1.99,3.38-3.45,4.26-2.47,1.49-5.09,2.64-7.85,3.48-3.32,1.01-1.9,6.23,1.44,5.21h0Z"/><path class="cls-3" d="M539.83,610.97c3.72,7.58,8.36,14.64,13.74,21.14,1.94,2.34,6.04-.78,4.24-3.27-3.75-5.21-8.01-10.93-7.95-17.66,.02-2.74,.85-5.45,2.84-7.39,1.68-1.65,4.09-2.7,6.4-2.2,1.43,.3,2.92-.42,3.32-1.89,.37-1.35-.45-3.02-1.89-3.32-3.88-.83-7.64,.29-10.7,2.75s-4.72,6.03-5.21,9.84c-1.1,8.56,3.76,15.99,8.52,22.61l4.24-3.27c-5.08-6.14-9.38-12.9-12.89-20.05-.64-1.31-2.5-1.67-3.7-.97-1.34,.78-1.62,2.38-.97,3.7h0Z"/><path class="cls-3" d="M545.73,550.55c.25,12.64-.66,25.3-2.81,37.76-.25,1.44,.38,2.91,1.89,3.32,1.3,.36,3.08-.44,3.32-1.89,2.23-12.94,3.26-26.07,3-39.2-.07-3.47-5.47-3.48-5.4,0h0Z"/><g><circle class="cls-15" cx="727.79" cy="452.09" r="55.09"/><path class="cls-6" d="M708.31,453.18c-3.07-4.24-9.22-2.72-12.24,.81s-4.29,8.77-2.63,13.19,5.53,7.02,10.15,6.94c4.37-.07,8.57-2.71,9.54-7.16,1.44-6.61-3.3-11.89-8.04-15.72-.89-.72-2.13-.87-3,0-.74,.74-.89,2.27,0,3,3.02,2.44,6.5,5.42,7.01,9.46,.12,.94,.06,1.8-.19,2.66-.11,.38-.24,.69-.44,1.03-.1,.17-.2,.32-.31,.48,.2-.3-.06,.07-.14,.16-.87,.96-1.76,1.42-3.15,1.72-.19,.04-.38,.08-.57,.11,.48-.07-.16,0-.21,0-.33,.02-.65,.03-.98,.02-.2,0-.39-.03-.59-.04-.62-.04,.39,.11-.21-.03-.38-.09-.76-.16-1.14-.28-.19-.06-.37-.12-.55-.2,.42,.17-.16-.09-.2-.11-.29-.15-.56-.33-.84-.49-.51-.3,.25,.26-.19-.14-.15-.13-.29-.26-.43-.39-.3-.3-.52-.56-.65-.75-.94-1.38-1.31-2.7-1.33-4.27s.33-3.17,1.02-4.51c.48-.94,.9-1.54,1.55-2.19,.32-.32,.56-.52,.73-.63,.18-.12,.37-.24,.56-.35,.07-.04,.76-.37,.49-.26,1-.42,1.39-.48,2.33-.42-.46-.03,.83,.31,.43,.11,.17,.09,.34,.18,.49,.3-.42-.33,.35,.48,.07,.1,.67,.93,1.84,1.38,2.9,.76,.91-.53,1.44-1.97,.76-2.9h0Z"/><path class="cls-6" d="M712.48,451.85c1.07,4.38,2.71,8.62,4.9,12.56,1.03,1.86,2.21,3.72,4.29,4.51,1.75,.66,3.69,.32,5.27-.63,3.55-2.13,5.16-6.28,5.75-10.19,.67-4.43,.04-8.79-1.73-12.89-.36-.85-1.57-1.2-2.39-.97-.96,.26-1.47,1.11-1.56,2.04-.76,7.97,4.38,15.63,11.78,18.4,1.07,.4,2.32-.45,2.61-1.48,.33-1.19-.4-2.2-1.48-2.61-5.73-2.15-9.24-8.32-8.67-14.31l-3.95,1.07c1.25,2.92,1.68,6.2,1.33,9.35-.3,2.74-1.17,6.06-3.54,7.75-.86,.61-1.78,.88-2.6,.09-1.07-1.03-1.75-2.72-2.4-4.03-1.56-3.11-2.71-6.39-3.53-9.77-.65-2.65-4.73-1.53-4.09,1.13h0Z"/><path class="cls-6" d="M738.48,450.53c7.01-3.15,14.14-6.02,21.37-8.61l-1.63-3.87c-.66,.3-1.32,.59-1.98,.89-1.04,.47-1.29,1.98-.76,2.9,.63,1.07,1.85,1.23,2.9,.76,.66-.3,1.32-.59,1.98-.89,2.17-.98,.63-4.68-1.63-3.87-7.58,2.71-15.04,5.73-22.39,9.04-1.04,.47-1.29,1.99-.76,2.9,.63,1.07,1.85,1.23,2.9,.76h0Z"/><path class="cls-6" d="M738.06,424.24c2.2,7.47,4.78,14.81,7.76,22,1.5,3.62,3.09,7.2,4.77,10.74,1.47,3.07,2.73,6.86,6.19,8.14,1.07,.4,2.32-.44,2.61-1.48,.33-1.18-.4-2.21-1.48-2.61s-1.66-2.12-2.13-3.05c-.8-1.6-1.57-3.21-2.33-4.84-1.5-3.22-2.92-6.47-4.26-9.77-2.69-6.64-5.03-13.41-7.06-20.27-.77-2.61-4.86-1.5-4.09,1.13h0Z"/></g><g><path class="cls-3" d="M630,554.16c0,3.37,.56,6.6,1.59,9.63h56.84c1.02-3.02,1.59-6.26,1.59-9.63,0-.96-.05-1.9-.14-2.83h-59.74c-.09,.93-.14,1.88-.14,2.83Z"/><path class="cls-18" d="M660.01,584.17c13.2,0,24.41-8.53,28.42-20.38h-56.84c4.01,11.85,15.22,20.38,28.42,20.38Z"/><path class="cls-11" d="M634.9,537.75c-2.6,3.98-4.29,8.6-4.76,13.59h59.74c-.47-4.99-2.15-9.61-4.76-13.59h-50.23Z"/><path d="M660.01,524.16c-10.51,0-19.75,5.41-25.11,13.59h50.23c-5.36-8.18-14.6-13.59-25.11-13.59Z"/></g></g></g></svg>