<svg width="100" height="100" viewBox="0 0 100 100" fill="none" xmlns="http://www.w3.org/2000/svg">
<g clip-path="url(#clip0_985_6957)">
<path d="M50 0C22.386 0 0 22.386 0 50C0 64.282 5.99 77.166 15.592 86.276C16.834 83.754 18.676 81.374 20.742 79.244C24.896 74.96 30.012 71.336 34.03 66.968C39.62 60.894 42.72 53.784 45.104 46.53C39.052 47.736 33.002 48.94 26.95 50.146C23.222 50.888 19.222 51.606 15.73 50.108C15.108 49.842 14.482 49.474 14.172 48.872C13.898 48.342 13.914 47.714 13.976 47.122C14.474 42.47 17.536 38.456 21.106 35.434C24.676 32.412 28.82 30.142 32.526 27.29C35.596 24.926 38.36 22.166 40.724 19.098C42.12 17.286 43.414 15.332 45.268 13.992C46.748 12.922 48.506 12.306 50.276 11.856C57.088 10.124 67.306 9.218 71.32 16.518C73.134 19.818 73.306 23.76 73.098 27.52C73.074 27.956 73.044 28.394 73.006 28.832C74.03 40.426 72.106 54.396 71.108 57.484C65.936 73.492 54.546 88.118 39.026 98.788C42.556 99.578 46.228 99.998 49.998 99.998C77.612 99.998 99.998 77.612 99.998 49.998C99.998 22.384 77.614 0 50 0Z" fill="#FFB6C3"/>
<path d="M34.062 8.66412C32.37 11.0641 31.37 13.9941 29.198 15.9721C26.256 18.6521 21.946 18.9461 18.088 19.9221C14.23 20.8981 10.02 23.5121 10.02 27.4901C10.02 28.7681 10.474 29.9981 10.676 31.2601C11.47 36.2321 8.37001 40.8621 6.19801 45.4041C4.02601 49.9461 3.05201 56.1821 6.96201 59.3561C7.97801 60.1821 9.23401 60.6961 10.168 61.6141C14.164 65.5441 9.64001 73.0201 12.656 77.7441C14.542 80.7001 18.504 81.2781 21.792 82.4981C27.048 84.4481 31.182 88.5241 35.83 91.6581C40.478 94.7921 46.492 97.0381 51.626 94.7841C54.736 93.4181 57.086 90.5641 60.336 89.5781C62.798 88.8321 65.454 89.2601 68.008 88.9341C75.552 87.9721 81.072 79.3101 78.758 72.0681C84.154 70.7581 89.608 68.2381 92.604 63.5641C95.788 58.6001 95.594 52.2721 95.292 46.3801C95.112 42.8761 94.8 39.0521 92.386 36.5081C89.856 33.8421 85.544 33.2121 83.476 30.1741C80.716 26.1201 83.132 19.4741 79.274 16.4481C76.274 14.0961 70.626 15.1301 69.442 11.5081C69.112 10.5021 69.292 9.39012 69.016 8.36812C67.788 3.80212 56.916 3.92012 53.008 3.15612C46.13 1.81012 38.498 2.37412 34.064 8.66412H34.062Z" fill="#FF758C"/>
<path d="M71.112 57.4841C72.11 54.3981 74.032 40.4261 73.01 28.8321C73.048 28.3941 73.078 27.9561 73.102 27.5201C73.308 23.7601 73.136 19.8181 71.324 16.5181C67.312 9.21805 57.092 10.1241 50.28 11.8561C48.51 12.3061 46.752 12.9221 45.272 13.9921C43.418 15.3321 42.124 17.2861 40.728 19.0981C38.362 22.1661 35.6 24.9281 32.53 27.2901C28.824 30.1441 24.68 32.4121 21.11 35.4341C17.54 38.4561 14.478 42.4701 13.98 47.1221C13.916 47.7141 13.902 48.3421 14.176 48.8721C14.486 49.4741 15.114 49.8401 15.734 50.1081C19.228 51.6081 23.226 50.8901 26.954 50.1461C33.006 48.9401 39.056 47.7361 45.108 46.5301C42.724 53.7841 39.624 60.8941 34.034 66.9681C30.014 71.3361 24.898 74.9601 20.746 79.2441C18.68 81.3741 16.84 83.7541 15.596 86.2761C22.026 92.3761 30.076 96.7841 39.032 98.7881C54.554 88.1181 65.942 73.4921 71.114 57.4841H71.112Z" fill="#1573FF"/>
<path d="M47.104 46.712C46.314 45.72 44.528 47.086 43.348 47.656C40.998 48.792 39.396 51.204 37.818 53.45C32.012 61.712 26.784 72.406 17.344 74.966C13.9 75.9 13.784 76.968 13.9 80.1C13.952 81.48 17.216 83.738 17.9 84.9C21.556 91.118 28.996 90.628 34.678 94.516C37.5 96.448 40.462 98.432 43.748 98.718C49.212 99.194 48.4 100.494 51.956 95.9021C56.428 90.126 59.412 84.81 62.916 78.248C65.878 72.702 68.156 66.03 71.118 60.484C74.026 55.04 74.978 43.338 69.434 47.112C62.96 51.518 52.898 53.984 47.106 46.712H47.104Z" fill="#F0F0F0"/>
<path d="M64.8 38.5C68.1689 38.5 70.9 35.769 70.9 32.4C70.9 29.0311 68.1689 26.3 64.8 26.3C61.431 26.3 58.7 29.0311 58.7 32.4C58.7 35.769 61.431 38.5 64.8 38.5Z" fill="#C2ADFF"/>
<path d="M47.8601 27.0901C50.6741 29.6101 54.9001 29.4181 58.2901 28.3101C61.6801 27.2021 64.8381 24.8721 66.9361 21.8201C67.6681 20.7561 65.9341 19.7561 65.2101 20.8101C63.4781 23.3281 60.9381 25.2761 58.0481 26.2821C55.3461 27.2241 51.5981 27.7541 49.2741 25.6741C48.3181 24.8181 46.8981 26.2281 47.8601 27.0881V27.0901Z" fill="#131313"/>
<path d="M51.4879 27.6599C51.3599 28.3939 51.2299 29.1279 51.1019 29.8639C51.0079 30.3959 51.2439 30.9419 51.7999 31.0939C52.2819 31.2259 52.9359 30.9299 53.0299 30.3959C53.1579 29.6619 53.2879 28.9279 53.4159 28.1919C53.5099 27.6599 53.2739 27.1139 52.7179 26.9619C52.2359 26.8299 51.5819 27.1259 51.4879 27.6599Z" fill="#131313"/>
<path d="M56.478 27.6039C56.478 28.4479 56.478 29.2919 56.478 30.1359C56.478 31.4219 58.478 31.4259 58.478 30.1359C58.478 29.2919 58.478 28.4479 58.478 27.6039C58.478 26.3179 56.478 26.3139 56.478 27.6039Z" fill="#131313"/>
<path d="M62.5079 25.658C62.7319 26.71 62.9559 27.762 63.1779 28.814C63.4459 30.072 65.3739 29.54 65.1059 28.282C64.8819 27.23 64.6579 26.178 64.4359 25.126C64.1679 23.868 62.2399 24.4 62.5079 25.658Z" fill="#131313"/>
<path d="M58.068 63.6741C63.172 61.5361 68.774 59.5181 71.832 55.8761C73.838 53.4861 74.51 50.6521 75.144 47.8941C76.03 44.0361 76.916 40.1781 77.804 36.3181C79.518 36.1381 81.08 37.2481 81.49 38.4641C81.9 39.6801 81.466 40.9501 81.032 42.1621C82.824 41.7881 84.616 41.4161 86.406 41.0421C87.122 40.8921 87.97 40.7601 88.552 41.0961C88.918 41.3061 89.072 41.6501 89.21 41.9721C89.882 43.5601 90.556 45.1461 91.228 46.7341C92.092 48.7741 92.548 51.5641 89.898 52.5061C88.784 52.9021 87.464 52.7901 86.254 52.9921C82.558 53.6081 81.08 56.7081 79.314 59.1301C77.016 62.2841 73.378 64.8041 69.804 67.2641C66.674 69.4181 63.544 71.5721 60.416 73.7261C57.774 75.5441 54.792 77.4721 51.144 77.5881C45.536 77.7641 44.746 74.2241 46.746 71.6241C49.494 68.0541 53.192 65.7201 58.072 63.6741H58.068Z" fill="#1573FF"/>
<path d="M25.2659 43.3639C25.7079 45.5239 27.8579 47.1279 30.0659 46.8199C32.2699 46.5119 33.8999 44.3639 33.7199 42.1719C33.6159 40.8979 31.6139 40.8879 31.7199 42.1719C31.8199 43.3839 31.0839 44.6539 29.7979 44.8439C28.5119 45.0339 27.4379 44.0219 27.1939 42.8339C26.9359 41.5739 25.0079 42.1079 25.2659 43.3659V43.3639Z" fill="#131313"/>
</g>
<defs>
<clipPath id="clip0_985_6957">
<rect width="100" height="100" fill="white"/>
</clipPath>
</defs>
</svg>
