<?xml version="1.0" encoding="UTF-8"?><svg xmlns="http://www.w3.org/2000/svg" xmlns:xlink="http://www.w3.org/1999/xlink" viewBox="0 0 149.66 123.11"><defs><style>.cls-1,.cls-2,.cls-3,.cls-4{fill:none;stroke:#ffec7a;stroke-linecap:round;stroke-miterlimit:10;}.cls-1,.cls-3{stroke-width:3px;}.cls-5{fill:url(#linear-gradient);}.cls-6{fill:#fff;}.cls-7{fill:#ffc329;}.cls-2{stroke-width:2px;}.cls-3{mix-blend-mode:screen;}.cls-8{fill:url(#linear-gradient-3);}.cls-9{fill:url(#linear-gradient-4);}.cls-10{fill:url(#linear-gradient-2);}.cls-4{stroke-width:3.31px;}.cls-11{isolation:isolate;}</style><linearGradient id="linear-gradient" x1="38.84" y1="86.24" x2="38.84" y2="44.42" gradientUnits="userSpaceOnUse"><stop offset=".02" stop-color="#ce970e"/><stop offset=".09" stop-color="#e7b846"/><stop offset=".11" stop-color="#ecc351"/><stop offset=".18" stop-color="#f6da68"/><stop offset=".24" stop-color="#fce775"/><stop offset=".29" stop-color="#ffec7a"/><stop offset=".79" stop-color="#e7b846"/><stop offset=".86" stop-color="#e2b241"/><stop offset=".94" stop-color="#d7a232"/><stop offset=".99" stop-color="#ce9728"/></linearGradient><linearGradient id="linear-gradient-2" x1="71.17" y1="86.24" x2="71.17" y2="44.42" gradientUnits="userSpaceOnUse"><stop offset=".02" stop-color="#ce970e"/><stop offset=".09" stop-color="#e7b846"/><stop offset=".11" stop-color="#ecc351"/><stop offset=".18" stop-color="#f6da68"/><stop offset=".24" stop-color="#fce775"/><stop offset=".29" stop-color="#ffec7a"/><stop offset=".8" stop-color="#e7b846"/><stop offset=".87" stop-color="#e2b241"/><stop offset=".95" stop-color="#d7a232"/><stop offset=".99" stop-color="#ce9728"/></linearGradient><linearGradient id="linear-gradient-3" x1="102.04" y1="38.31" x2="102.04" y2="18.73" gradientUnits="userSpaceOnUse"><stop offset=".02" stop-color="#ce970e"/><stop offset=".09" stop-color="#e7b846"/><stop offset=".11" stop-color="#ecc351"/><stop offset=".18" stop-color="#f6da68"/><stop offset=".24" stop-color="#fce775"/><stop offset=".29" stop-color="#ffec7a"/><stop offset=".68" stop-color="#e7b846"/><stop offset=".78" stop-color="#e2b241"/><stop offset=".92" stop-color="#d7a232"/><stop offset=".99" stop-color="#ce9728"/></linearGradient><linearGradient id="linear-gradient-4" x1="75.21" y1="134.7" x2="73.84" y2="-.77" gradientUnits="userSpaceOnUse"><stop offset=".02" stop-color="#ce970e"/><stop offset=".14" stop-color="#865b11"/><stop offset=".17" stop-color="#8e6315"/><stop offset=".22" stop-color="#a57822"/><stop offset=".28" stop-color="#ca9c36"/><stop offset=".32" stop-color="#e7b846"/><stop offset=".39" stop-color="#f0cd5b"/><stop offset=".47" stop-color="#ffec7a"/><stop offset=".75" stop-color="#e7b846"/><stop offset=".87" stop-color="#ce9728"/><stop offset=".94" stop-color="#dea630"/><stop offset=".99" stop-color="#f2b93a"/></linearGradient></defs><g class="cls-11"><g id="Layer_1"><path class="cls-7" d="M105.1,9.72l-25.79,.04,25.88-.04h-.09Z"/><path class="cls-6" d="M122.2,78.1V26.54c0-12.41-9.14-16.79-17.01-16.82l-25.88,.04-49.77,.08c-9.48,0-17.15,8.98-17.15,20.03l.18,23.41-.18,24.56c1.06,11.18,7.36,18.53,17.33,20.23H105.1c9.18,0,17.05-10.96,17.09-19.96h0Zm-83.36,8.13c-5.98,0-10.83-9.36-10.83-20.91s4.85-20.91,10.83-20.91,10.83,9.36,10.83,20.91-4.85,20.91-10.83,20.91Zm32.32,0c-5.98,0-10.83-9.36-10.83-20.91s4.85-20.91,10.83-20.91,10.83,9.36,10.83,20.91-4.85,20.91-10.83,20.91Zm40.84-50.33c0,1.32-1.09,2.39-2.44,2.39h-3.03c-1.35,0-2.44-1.07-2.44-2.39v-1.93c0-4.14-3.42-7.5-7.64-7.5h-1.97c-1.35,0-2.44-1.07-2.44-2.39v-2.98c0-1.32,1.09-2.39,2.44-2.39h1.97c8.58,0,15.54,6.83,15.54,15.26v1.93h0Z"/><path class="cls-5" d="M38.84,86.24c5.98,0,10.83-9.36,10.83-20.91s-4.85-20.91-10.83-20.91-10.83,9.36-10.83,20.91,4.85,20.91,10.83,20.91Z"/><path class="cls-10" d="M71.17,86.24c5.98,0,10.83-9.36,10.83-20.91s-4.85-20.91-10.83-20.91-10.83,9.36-10.83,20.91,4.85,20.91,10.83,20.91Z"/><path class="cls-8" d="M96.47,18.73h-1.97c-1.35,0-2.44,1.07-2.44,2.39v2.98c0,1.32,1.09,2.39,2.44,2.39h1.97c4.22,0,7.64,3.36,7.64,7.5v1.93c0,1.32,1.09,2.39,2.44,2.39h3.03c1.35,0,2.44-1.07,2.44-2.39v-1.93c0-8.43-6.96-15.26-15.54-15.26h0Z"/><path class="cls-9" d="M147.64,111.16l-16.37-16.19c2.92-4.42,4.61-10.09,4.6-17.1V29.74c0-19.88-13.8-29.06-30.77-29.06l-55.36,.13L30.88,0C14.14,0,0,9.89,0,29.92l.25,23.18-.25,24.93c0,19.88,13.67,31.18,30.77,29.06,30.63-2.16,53.46,.17,74.33,0,5.53,0,10.72-.98,15.22-3l17.21,17.02c2.42,2.39,6.05,2.68,8.12,.65l2.63-2.59c2.06-2.03,1.78-5.62-.64-8.01Zm-117.91-13.11c-9.97-1.69-16.27-9.05-17.33-20.23l.18-24.56-.18-23.41c0-11.04,7.67-20.03,17.15-20.03l49.77-.08,25.79-.04h.09c7.87,.03,17.01,4.41,17.01,16.82v51.56c-.04,9-7.91,19.96-17.09,19.96H29.73Z"/><path class="cls-3" d="M101.37,5.57l6.19,.09c6.95-.14,17.08,3.64,18.77,14.64,.21,3.57,.38,7.37,.38,7.37"/><path class="cls-2" d="M98.04,22.7c5.91,.56,9.36,2.59,10.28,10.14"/><line class="cls-4" x1="7.89" y1="26.41" x2="7.89" y2="61.69"/><path class="cls-1" d="M133.8,101.82l10.75,10.56c1.22,1.22,2.82,3.19,1.5,4.5l-1.5,1.69"/></g></g></svg>