<?xml version="1.0" encoding="utf-8"?>
<!-- Generator: Adobe Illustrator 27.0.1, SVG Export Plug-In . SVG Version: 6.00 Build 0)  -->
<svg version="1.1" id="Layer_1" xmlns="http://www.w3.org/2000/svg" xmlns:xlink="http://www.w3.org/1999/xlink" x="0px" y="0px"
	 viewBox="0 0 288 280" style="enable-background:new 0 0 288 280;" xml:space="preserve">
<style type="text/css">
	.st0{fill:#FFFFFF;}
	.st1{fill:#FF7F8E;}
</style>
<g id="Layer_1_00000060735491134581396320000014621385999012530606_">
</g>
<g id="logo_and_wordmark">
</g>
<g id="logo_icon">
	<g id="happy_queery">
		<path class="st0" d="M192,58h-40.9l-78.7,0.1c-15,0-27.1,14.2-27.1,31.7l0.3,37l-0.3,38.9c1.7,17.7,11.6,29.3,27.4,32H192
			c14.5,0,27-17.3,27-31.6V84.5C218.9,65,204.5,58,192,58z M105.3,162c-1.6,2.7-4.8,3.1-6.8,1l-9.3-9.5c-3.5-3.6-8.7-3.7-12.3-0.3
			l-10.8,10c-0.8,0.8-1.9,1.2-2.9,1.2c-1.4,0-2.8-0.7-3.7-2.1c-1.6-2.4-1.2-5.9,0.8-7.7L77.1,139c3.7-3.4,8.8-3.2,12.3,0.3
			l14.9,15.2C106.2,156.4,106.7,159.7,105.3,162z M161.1,162c-1.6,2.7-4.8,3.1-6.8,1l-9.3-9.5c-3.5-3.6-8.7-3.7-12.3-0.3l-10.8,10
			c-0.8,0.8-1.9,1.2-2.9,1.2c-1.4,0-2.8-0.7-3.7-2.1c-1.6-2.4-1.2-5.9,0.8-7.7l16.8-15.5c3.7-3.4,8.8-3.2,12.3,0.3l14.9,15.2
			C162,156.4,162.5,159.7,161.1,162z M202.8,99.4c0,2.1-1.7,3.8-3.9,3.8h-4.8c-2.1,0-3.9-1.7-3.9-3.8v-3.1c0-6.6-5.4-11.9-12.1-11.9
			H175c-2.1,0-3.9-1.7-3.9-3.8V76c0-2.1,1.7-3.8,3.9-3.8h3.1c13.6,0,24.6,10.8,24.6,24.1L202.8,99.4L202.8,99.4z"/>
		<path class="st0" d="M191.9,58h-40.8H192H191.9z"/>
		<path class="st1" d="M178.2,72.2h-3.1c-2.1,0-3.9,1.7-3.9,3.8v4.7c0,2.1,1.7,3.8,3.9,3.8h3.1c6.7,0,12.1,5.3,12.1,11.9v3.1
			c0,2.1,1.7,3.8,3.9,3.8h4.8c2.1,0,3.9-1.7,3.9-3.8v-3.1C202.8,83,191.8,72.2,178.2,72.2z"/>
		<path class="st1" d="M233.3,192.9c4.6-7,7.3-16,7.3-27V89.7c0-31.5-21.8-46-48.7-46l-87.6,0.2l-29.8-1.3
			c-26.5,0-48.9,15.6-48.9,47.3l0.4,36.7L25.6,166c0,31.5,21.6,49.3,48.7,46c48.5-3.4,84.6,0.3,117.6,0c8.8,0,17-1.6,24.1-4.7
			l27.2,26.9c3.8,3.8,9.6,4.2,12.8,1l4.2-4.1c3.3-3.2,2.8-8.9-1-12.7L233.3,192.9z M191.9,197.7H72.6c-15.8-2.7-25.7-14.3-27.4-32
			l0.3-38.9l-0.3-37c0-17.5,12.1-31.7,27.1-31.7L151,58l40.8-0.1h0.1c12.4,0.1,26.9,7,26.9,26.6v81.6
			C218.9,180.4,206.4,197.7,191.9,197.7z"/>
		<path class="st1" d="M89.4,126.4c-3.5-3.6-8.7-3.7-12.3-0.3l-16.8,15.5c-2,1.9-2.4,5.3-0.8,7.7c0.9,1.4,2.3,2.1,3.7,2.1
			c1,0,2-0.4,2.9-1.2l10.8-10c3.7-3.4,8.8-3.2,12.3,0.3l9.3,9.5c2.1,2.1,5.2,1.7,6.8-1c1.4-2.3,0.9-5.6-0.9-7.5L89.4,126.4z"/>
		<path class="st1" d="M145.2,126.4c-3.5-3.6-8.7-3.7-12.3-0.3L116,141.5c-2,1.9-2.4,5.3-0.8,7.7c0.9,1.4,2.3,2.1,3.7,2.1
			c1,0,2-0.4,2.9-1.2l10.8-10c3.7-3.4,8.8-3.2,12.3,0.3l9.3,9.5c2.1,2.1,5.2,1.7,6.8-1c1.4-2.3,0.9-5.6-0.9-7.5L145.2,126.4z"/>
	</g>
</g>
</svg>
