<?xml version="1.0" encoding="UTF-8"?><svg id="Layer_2" xmlns="http://www.w3.org/2000/svg" viewBox="0 0 500 500"><defs><style>.cls-1{fill:#ff758c;}.cls-2{fill:#dfeeff;}</style></defs><g id="Layer_11"><g><circle class="cls-1" cx="250" cy="250" r="250"/><path class="cls-2" d="M204.51,18.6c-35.72,6.82-69.95,34.55-72.6,70.82-.86,11.76,1.37,24.47-4.53,34.67-7.39,12.78-23.91,15.97-37.81,20.94-30.2,10.8-54.77,36.23-64.54,66.77-5.25,16.41-6.12,35.19,2.42,50.15,8.21,14.39,24.04,23.58,30.83,38.69,11.83,26.33-8.57,56.61-4.71,85.21,2.37,17.55,14.64,33.42,31.03,40.14,18.55,7.6,39.93,3.7,59.19,9.22,22.17,6.36,38.86,24.23,58.64,36.09,41.17,24.69,97.69,20.48,134.76-10.02,26.86-22.11,42.76-55.11,68.76-78.22,28.38-25.22,70.86-42.34,77.16-79.78,8.32-49.5-55.34-86.77-53.81-136.94,.66-21.67,13.8-42.94,8.26-63.89-3.95-14.95-16.64-25.92-29.77-34.1-30.06-18.73-64.42-22.28-97.08-33.96-34.57-12.36-68.86-22.92-106.2-15.79Z"/><g><path d="M99.71,281.97l.18-10.26,.18-8.28v-2.34c.12-.96,.18-2.1,.18-3.42,0-.24-.18-.54-.54-.9-.36-.36-.54-.66-.54-.9v-.18c-.6,.24-1.68,.36-3.24,.36s-3.48-.24-5.76-.72c-.72-.12-2.64-.42-5.76-.9v20.7c0,3.12,.18,8.04,.54,14.76,.36,6.6,.54,11.52,.54,14.76,0,1.8-.48,3.36-1.44,4.68-.96,1.32-2.22,1.98-3.78,1.98-2.28,0-3.9-2.22-4.86-6.66-.96-4.56-1.44-10.5-1.44-17.82l.36-14.58c.12-4.08,.18-8.4,.18-12.96v-5.58c0-1.92-.06-3.18-.18-3.78v-.9l.54-10.44c0-4.56-.18-11.34-.54-20.34-.36-9-.54-15.78-.54-20.34,0-1.44,.48-2.7,1.44-3.78,.96-1.08,2.16-1.62,3.6-1.62,3.84,0,5.76,3.6,5.76,10.8l-.36,22.32c-.24,6.72-.36,14.22-.36,22.5,1.8,.6,5.04,.9,9.72,.9h6.66c.24-.72,.36-1.44,.36-2.16,0-5.76-.36-14.28-1.08-25.56-.84-10.56-1.26-19.14-1.26-25.74,0-1.32,.51-2.43,1.53-3.33,1.02-.9,2.25-1.35,3.69-1.35,.84,0,2.04,.3,3.6,.9l1.62,.72c0,17.04,.6,39.78,1.8,68.22l1.62,45.54c0,1.68-.63,3-1.89,3.96-1.26,.96-2.73,1.44-4.41,1.44-4.08,0-6.12-9.9-6.12-29.7Z"/><path d="M137.77,312.39c-1.26-1.08-1.95-2.4-2.07-3.96v-8.28c-.12-1.08-.18-2.34-.18-3.78,0-2.52-.18-6.36-.54-11.52l-.36-11.52c0-5.88,.18-14.64,.54-26.28,.48-10.44,.72-19.2,.72-26.28,0-1.68-.18-4.2-.54-7.56-.36-3.48-.54-6-.54-7.56,0-8.52,2.52-12.78,7.56-12.78,3.96,0,8.55,.78,13.77,2.34,5.22,1.56,7.83,3.42,7.83,5.58,0,1.2-.51,2.31-1.53,3.33-1.02,1.02-2.25,1.83-3.69,2.43-5.04-1.8-9.6-3-13.68-3.6,.12,1.8,.18,4.38,.18,7.74,0,4.8-.06,9.12-.18,12.96-.36,5.76-.54,10.08-.54,12.96l.54,2.88,2.88-.18c.96-.12,2.16-.18,3.6-.18,5.76,0,8.64,1.68,8.64,5.04,0,1.32-.54,2.43-1.62,3.33s-2.46,1.35-4.14,1.35c-2.16,0-3.84-.12-5.04-.36h-4.5c.24,3.12,.36,7.68,.36,13.68s-.06,11.4-.18,16.2c-.36,7.32-.54,12.78-.54,16.38,0,6.72,.12,10.08,.36,10.08l5.94-.18c2.04-.12,4.5-.18,7.38-.18,4.56,0,6.84,1.44,6.84,4.32,0,1.68-.75,2.97-2.25,3.87-1.5,.9-3.33,1.35-5.49,1.35h-15.3c-1.56,0-2.97-.54-4.23-1.62Z"/><path d="M188.17,315.27c-.42-.72-.63-1.68-.63-2.88,0-.84,.18-1.98,.54-3.42l15.66-62.64c10.32-41.64,16.44-65.34,18.36-71.1,.12-.84,.66-1.26,1.62-1.26s1.74,.39,2.34,1.17c.6,.78,.9,1.77,.9,2.97l-.18,1.44c-1.56,8.52-4.8,22.83-9.72,42.93-4.92,20.1-9.84,39.18-14.76,57.24-4.92,18.06-8.52,29.61-10.8,34.65-.36,1.32-.96,1.98-1.8,1.98-.6,0-1.11-.36-1.53-1.08Z"/><path d="M276.64,281.97l.18-10.26,.18-8.28v-2.34c.12-.96,.18-2.1,.18-3.42,0-.24-.18-.54-.54-.9-.36-.36-.54-.66-.54-.9v-.18c-.6,.24-1.68,.36-3.24,.36s-3.48-.24-5.76-.72c-.72-.12-2.64-.42-5.76-.9v20.7c0,3.12,.18,8.04,.54,14.76,.36,6.6,.54,11.52,.54,14.76,0,1.8-.48,3.36-1.44,4.68-.96,1.32-2.22,1.98-3.78,1.98-2.28,0-3.9-2.22-4.86-6.66-.96-4.56-1.44-10.5-1.44-17.82l.36-14.58c.12-4.08,.18-8.4,.18-12.96v-5.58c0-1.92-.06-3.18-.18-3.78v-.9l.54-10.44c0-4.56-.18-11.34-.54-20.34-.36-9-.54-15.78-.54-20.34,0-1.44,.48-2.7,1.44-3.78,.96-1.08,2.16-1.62,3.6-1.62,3.84,0,5.76,3.6,5.76,10.8l-.36,22.32c-.24,6.72-.36,14.22-.36,22.5,1.8,.6,5.04,.9,9.72,.9h6.66c.24-.72,.36-1.44,.36-2.16,0-5.76-.36-14.28-1.08-25.56-.84-10.56-1.26-19.14-1.26-25.74,0-1.32,.51-2.43,1.53-3.33,1.02-.9,2.25-1.35,3.69-1.35,.84,0,2.04,.3,3.6,.9l1.62,.72c0,17.04,.6,39.78,1.8,68.22l1.62,45.54c0,1.68-.63,3-1.89,3.96-1.26,.96-2.73,1.44-4.41,1.44-4.08,0-6.12-9.9-6.12-29.7Z"/><path d="M304,306.09c0-2.88,1.86-4.32,5.58-4.32h1.98l1.8,.18c.96,0,1.62-.3,1.98-.9,.36-.6,.54-1.68,.54-3.24,0-2.04-.12-5.22-.36-9.54-.36-2.88-.78-8.04-1.26-15.48-1.08-18.36-1.62-32.22-1.62-41.58,0-3.36,.06-6.42,.18-9.18l.18-9.18c0-3.96-.18-7.26-.54-9.9-1.92,.48-3.3,.72-4.14,.72-2.88,0-4.32-1.44-4.32-4.32,0-1.44,.9-2.7,2.7-3.78,1.8-1.08,4.08-1.86,6.84-2.34,4.8-.96,9.06-1.44,12.78-1.44,1.44,0,2.67,.51,3.69,1.53,1.02,1.02,1.53,2.19,1.53,3.51s-.39,2.46-1.17,3.42c-.78,.96-1.77,1.44-2.97,1.44-.72,0-1.32-.06-1.8-.18h-1.44c-1.2,0-2.07,.27-2.61,.81s-.81,1.53-.81,2.97c0,11.64,.72,29.16,2.16,52.56,.24,4.32,.72,10.68,1.44,19.08,.6,5.52,.9,11.16,.9,16.92v6.84c.72-.12,1.92-.18,3.6-.18,5.04,0,7.56,2.1,7.56,6.3v1.08l-4.5,3.06c-.12,0-.51,.03-1.17,.09-.66,.06-1.89,.09-3.69,.09-3.84,.24-6.3,.36-7.38,.36-10.44,0-15.66-1.8-15.66-5.4Z"/><path d="M418.3,309.87v-23.04c0-6-.42-13.86-1.26-23.58-.96-10.92-1.44-18.42-1.44-22.5l.36-11.16c.24-3.24,.36-6.9,.36-10.98-.48,1.56-2.46,9.84-5.94,24.84-3.48,14.52-7.08,27.96-10.8,40.32-3.6,11.88-6.54,17.82-8.82,17.82s-4.11-.69-5.49-2.07c-1.38-1.38-2.07-3.27-2.07-5.67,0-5.28-2.13-16.5-6.39-33.66-4.26-17.16-8.13-31.2-11.61-42.12l-1.08,20.34c-.96,17.16-1.62,31.44-1.98,42.84-.24,11.04-.36,18.6-.36,22.68,0,.96,.06,1.86,.18,2.7v2.52c0,2.04-.42,3.57-1.26,4.59-.84,1.02-2.4,1.53-4.68,1.53-1.2,0-2.34-.45-3.42-1.35s-1.62-1.89-1.62-2.97c0-12.24,.9-30.6,2.7-55.08,1.8-24.48,2.7-42.84,2.7-55.08-.72-1.08-1.08-2.22-1.08-3.42,0-1.44,.69-2.55,2.07-3.33,1.38-.78,3.03-1.17,4.95-1.17,1.56,0,4.44,5.64,8.64,16.92,4.2,11.28,8.4,24.06,12.6,38.34,4.2,14.28,6.9,24.6,8.1,30.96,.96-3.24,1.74-6.24,2.34-9l1.08-4.32c3.84-16.8,7.68-31.98,11.52-45.54,2.28-8.28,4.5-14.76,6.66-19.44,2.16-5.04,4.14-7.56,5.94-7.56,1.68,0,3.21,.45,4.59,1.35,1.38,.9,2.07,2.07,2.07,3.51,0,8.64,.36,21.6,1.08,38.88,.84,16.08,1.26,28.56,1.26,37.44l-.18,9.54-.36,9.54c0,1.44,.18,3.6,.54,6.48l.54,6.3c.12,1.08,.21,1.92,.27,2.52,.06,.6,.09,.96,.09,1.08,.6,1.56,.9,2.7,.9,3.42,0,2.04-.6,3.84-1.8,5.4-1.2,1.56-2.64,2.34-4.32,2.34-3.72,0-5.58-3.72-5.58-11.16Z"/></g></g></g></svg>