<?xml version="1.0" encoding="UTF-8"?><svg id="logo_icon" xmlns="http://www.w3.org/2000/svg" viewBox="0 0 288 280"><defs><style>.cls-1{fill:none;}.cls-2{fill:#fff;}.cls-3{fill:#ff7f8e;}</style></defs><g id="IGAQ_logo"><path class="cls-1" d="M191.9,57.98l-40.81,.07,40.95-.06s-.09,0-.14,0Z"/><path class="cls-2" d="M218.95,166.17V84.6c0-19.64-14.47-26.56-26.91-26.61l-40.95,.06-78.74,.12c-14.99,0-27.13,14.22-27.13,31.69l.28,37.03-.28,38.85c1.68,17.69,11.65,29.32,27.42,32h119.26c14.53,0,26.98-17.33,27.05-31.57Zm-131.89,12.89c-9.46,0-17.14-14.82-17.14-33.09s7.67-33.09,17.14-33.09,17.14,14.82,17.14,33.09-7.67,33.09-17.14,33.09Zm51.14,0c-9.46,0-17.14-14.82-17.14-33.09s7.67-33.09,17.14-33.09,17.14,14.82,17.14,33.09-7.67,33.09-17.14,33.09Zm64.62-79.63c0,2.09-1.73,3.78-3.85,3.78h-4.8c-2.13,0-3.85-1.69-3.85-3.78v-3.05c0-6.55-5.41-11.86-12.08-11.86h-3.12c-2.13,0-3.85-1.69-3.85-3.78v-4.71c0-2.09,1.73-3.78,3.85-3.78h3.12c13.58,0,24.59,10.81,24.59,24.14v3.05Z"/><ellipse class="cls-3" cx="87.06" cy="145.97" rx="17.14" ry="33.09"/><ellipse class="cls-3" cx="138.2" cy="145.97" rx="17.14" ry="33.09"/><path class="cls-3" d="M178.24,72.24h-3.12c-2.13,0-3.85,1.69-3.85,3.78v4.71c0,2.09,1.73,3.78,3.85,3.78h3.12c6.67,0,12.08,5.31,12.08,11.86v3.05c0,2.09,1.73,3.78,3.85,3.78h4.8c2.13,0,3.85-1.69,3.85-3.78v-3.05c0-13.33-11.01-24.14-24.59-24.14Z"/><path class="cls-3" d="M259.19,218.48l-25.9-25.62c4.61-7,7.29-15.97,7.28-27.05V89.66c0-31.45-21.84-45.98-48.68-45.98l-87.59,.2-29.84-1.29c-26.48,0-48.86,15.65-48.86,47.34l.4,36.67-.4,39.45c0,31.45,21.64,49.33,48.68,45.98,48.47-3.42,84.58,.26,117.61,0,8.75,0,16.97-1.56,24.07-4.74l27.22,26.93c3.83,3.78,9.57,4.24,12.84,1.02l4.16-4.1c3.27-3.22,2.81-8.89-1.01-12.68Zm-186.55-20.74c-15.77-2.68-25.75-14.31-27.42-32l.28-38.85-.28-37.03c0-17.47,12.13-31.69,27.13-31.69l78.74-.12,40.81-.07s.09,0,.14,0c12.45,.05,26.91,6.97,26.91,26.61v81.57c-.06,14.24-12.52,31.57-27.04,31.57H72.64Z"/></g></svg>