<?xml version="1.0" encoding="UTF-8"?><svg id="Layer_2" xmlns="http://www.w3.org/2000/svg" viewBox="0 0 500 500"><defs><style>.cls-1{fill:#dfeeff;}.cls-2{fill:#c2adff;}</style></defs><g id="Layer_11"><g><circle class="cls-2" cx="250" cy="250" r="250"/><path class="cls-1" d="M204.51,18.6c-35.72,6.82-69.95,34.55-72.6,70.82-.86,11.76,1.37,24.47-4.53,34.67-7.39,12.78-23.91,15.97-37.81,20.94-30.2,10.8-54.77,36.23-64.54,66.77-5.25,16.41-6.12,35.19,2.42,50.15,8.21,14.39,24.04,23.58,30.83,38.69,11.83,26.33-8.57,56.61-4.71,85.21,2.37,17.55,14.64,33.42,31.03,40.14,18.55,7.6,39.93,3.7,59.19,9.22,22.17,6.36,38.86,24.23,58.64,36.09,41.17,24.69,97.69,20.48,134.76-10.02,26.86-22.11,42.76-55.11,68.76-78.22,28.38-25.22,70.86-42.34,77.16-79.78,8.32-49.5-55.34-86.77-53.81-136.94,.66-21.67,13.8-42.94,8.26-63.89-3.95-14.95-16.64-25.92-29.77-34.1-30.06-18.73-64.42-22.28-97.08-33.96-34.57-12.36-68.86-22.92-106.2-15.79Z"/><g><path d="M166.11,221.47c-2.64-2.16-4.92-5.1-6.84-8.82-3.48-6.48-6.06-15.36-7.74-26.64-1.2-7.8-2.1-16.8-2.7-27l-.18-9.54v-9.72c-.12-3.12-.18-6.9-.18-11.34,0-7.2,.3-13.56,.9-19.08,.48-5.76,1.68-11.46,3.6-17.1,1.92-4.92,4.68-8.4,8.28-10.44,2.16-.96,4.32-1.44,6.48-1.44,6.36,0,11.4,2.52,15.12,7.56,4.08,5.64,6.78,11.94,8.1,18.9,1.92,8.4,3,16.44,3.24,24.12,.48,8.52,.72,16.56,.72,24.12v10.26c0,2.04-.3,5.88-.9,11.52-.48,4.44-.72,8.22-.72,11.34v.72c-.72,3.36-1.08,7.32-1.08,11.88,0,3.36-.72,6.84-2.16,10.44s-3.48,6.66-6.12,9.18c-2.64,2.88-5.64,4.32-9,4.32s-6.18-1.08-8.82-3.24Zm15.3-13.32c1.44-3.96,2.49-8.79,3.15-14.49,.66-5.7,1.23-12.15,1.71-19.35,.24-3.12,.36-7.14,.36-12.06l-.18-16.56c-.24-6.48-.96-14.58-2.16-24.3-.96-8.28-2.76-15.6-5.4-21.96-1.2-3-2.7-5.34-4.5-7.02-1.8-1.68-3.72-2.52-5.76-2.52-3,0-5.22,2.34-6.66,7.02-1.8,4.92-3,10.32-3.6,16.2-.72,6.36-1.14,12.42-1.26,18.18l-.18,5.94c-.12,1.68-.18,3.96-.18,6.84v.72c0,8.04,.84,17.94,2.52,29.7,1.92,15.96,4.74,27.3,8.46,34.02,2.4,4.2,4.92,6.3,7.56,6.3,2.4,0,4.44-2.22,6.12-6.66Z"/><path d="M228.93,213.19c-4.68-6.6-7.98-14.7-9.9-24.3-2.16-10.2-3.54-21.12-4.14-32.76-.6-10.56-.9-22.02-.9-34.38v-14.94c.12-4.2,.18-8.64,.18-13.32-.96-.96-1.44-2.16-1.44-3.6s.54-2.73,1.62-3.87c1.08-1.14,2.28-1.71,3.6-1.71,4.32,0,6.48,4.26,6.48,12.78,0,5.52,.3,15.96,.9,31.32,.6,15.36,.9,25.8,.9,31.32,.6,1.56,1.17,4.68,1.71,9.36s.81,8.52,.81,11.52c0,2.64,.42,5.91,1.26,9.81,.84,3.9,2.04,7.83,3.6,11.79,1.56,4.2,3.6,7.65,6.12,10.35,2.52,2.7,5.16,4.05,7.92,4.05,1.68,0,3.09-.54,4.23-1.62,1.14-1.08,1.89-2.64,2.25-4.68,.72-3.36,1.08-6.66,1.08-9.9v-35.1c0-4.44-.42-10.08-1.26-16.92-.72-7.56-1.08-13.26-1.08-17.1v-1.26c0-1.92-.06-3.66-.18-5.22l-.18-5.22c0-3.36-.18-8.46-.54-15.3-.48-6.12-.72-11.28-.72-15.48,0-1.32,.69-2.46,2.07-3.42,1.38-.96,2.91-1.44,4.59-1.44l4.5,4.14v3.06c0,1.44-.24,3.18-.72,5.22-.48,3.36-.72,5.28-.72,5.76,0,10.92,.6,25.98,1.8,45.18,1.08,20.16,1.62,35.82,1.62,46.98,0,6-.6,11.28-1.8,15.84-.72,2.76-1.71,4.98-2.97,6.66-1.26,1.68-2.97,3.12-5.13,4.32-2.04,1.2-4.68,1.8-7.92,1.8-7.44,0-13.32-3.24-17.64-9.72Z"/><path d="M296.69,218.32c-1.02-1.74-1.53-3.87-1.53-6.39,0-3.96,.24-8.82,.72-14.58l.36-4.68,.36-9.54c0-4.2-.42-13.56-1.26-28.08-.84-14.52-1.26-23.88-1.26-28.08,0-.36,.03-1.05,.09-2.07,.06-1.02,.09-2.61,.09-4.77,.12-2.4,.18-5.34,.18-8.82,0-8.76-.6-14.34-1.8-16.74-.72,0-2.28,.18-4.68,.54l-5.04,.36c-1.56,0-2.94-.45-4.14-1.35-1.2-.9-1.8-2.07-1.8-3.51s1.44-2.7,4.32-3.78c4.2-1.44,11.34-2.46,21.42-3.06,4.08-.24,6.54-.36,7.38-.36,1.44,0,2.76,.48,3.96,1.44,1.2,.96,1.8,2.16,1.8,3.6s-.51,2.61-1.53,3.51c-1.02,.9-2.31,1.35-3.87,1.35l-3.24-.18c-.96-.12-2.04-.18-3.24-.18h-1.8c.84,8.16,1.26,15.54,1.26,22.14l-.18,11.52c-.12,3.48-.18,7.38-.18,11.7,0,5.76,.24,12.66,.72,20.7,.6,9.96,.9,16.86,.9,20.7,0,4.56,.24,9.96,.72,16.2,.48,6.36,.72,11.76,.72,16.2,0,5.88-1.74,8.82-5.22,8.82-1.8,0-3.21-.87-4.23-2.61Z"/><path d="M86.91,396.32c-1.02-1.74-1.53-3.87-1.53-6.39,0-3.96,.24-8.82,.72-14.58l.36-4.68,.36-9.54c0-4.2-.42-13.56-1.26-28.08-.84-14.52-1.26-23.88-1.26-28.08,0-.36,.03-1.05,.09-2.07,.06-1.02,.09-2.61,.09-4.77,.12-2.4,.18-5.34,.18-8.82,0-8.76-.6-14.34-1.8-16.74-.72,0-2.28,.18-4.68,.54l-5.04,.36c-1.56,0-2.94-.45-4.14-1.35-1.2-.9-1.8-2.07-1.8-3.51s1.44-2.7,4.32-3.78c4.2-1.44,11.34-2.46,21.42-3.06,4.08-.24,6.54-.36,7.38-.36,1.44,0,2.76,.48,3.96,1.44,1.2,.96,1.8,2.16,1.8,3.6s-.51,2.61-1.53,3.51c-1.02,.9-2.31,1.35-3.87,1.35l-3.24-.18c-.96-.12-2.04-.18-3.24-.18h-1.8c.84,8.16,1.26,15.54,1.26,22.14l-.18,11.52c-.12,3.48-.18,7.38-.18,11.7,0,5.76,.24,12.66,.72,20.7,.6,9.96,.9,16.86,.9,20.7,0,4.56,.24,9.96,.72,16.2,.48,6.36,.72,11.76,.72,16.2,0,5.88-1.74,8.82-5.22,8.82-1.8,0-3.21-.87-4.23-2.61Z"/><path d="M139.56,399.47c-2.64-2.16-4.92-5.1-6.84-8.82-3.48-6.48-6.06-15.36-7.74-26.64-1.2-7.8-2.1-16.8-2.7-27l-.18-9.54v-9.72c-.12-3.12-.18-6.9-.18-11.34,0-7.2,.3-13.56,.9-19.08,.48-5.76,1.68-11.46,3.6-17.1,1.92-4.92,4.68-8.4,8.28-10.44,2.16-.96,4.32-1.44,6.48-1.44,6.36,0,11.4,2.52,15.12,7.56,4.08,5.64,6.78,11.94,8.1,18.9,1.92,8.4,3,16.44,3.24,24.12,.48,8.52,.72,16.56,.72,24.12v10.26c0,2.04-.3,5.88-.9,11.52-.48,4.44-.72,8.22-.72,11.34v.72c-.72,3.36-1.08,7.32-1.08,11.88,0,3.36-.72,6.84-2.16,10.44s-3.48,6.66-6.12,9.18c-2.64,2.88-5.64,4.32-9,4.32s-6.18-1.08-8.82-3.24Zm15.3-13.32c1.44-3.96,2.49-8.79,3.15-14.49,.66-5.7,1.23-12.15,1.71-19.35,.24-3.12,.36-7.14,.36-12.06l-.18-16.56c-.24-6.48-.96-14.58-2.16-24.3-.96-8.28-2.76-15.6-5.4-21.96-1.2-3-2.7-5.34-4.5-7.02-1.8-1.68-3.72-2.52-5.76-2.52-3,0-5.22,2.34-6.66,7.02-1.8,4.92-3,10.32-3.6,16.2-.72,6.36-1.14,12.42-1.26,18.18l-.18,5.94c-.12,1.68-.18,3.96-.18,6.84v.72c0,8.04,.84,17.94,2.52,29.7,1.92,15.96,4.74,27.3,8.46,34.02,2.4,4.2,4.92,6.3,7.56,6.3,2.4,0,4.44-2.22,6.12-6.66Z"/><path d="M225.96,386.33c0-13.92-.63-36.18-1.89-66.78-1.26-30.6-2.43-46.74-3.51-48.42,0-3.36,1.32-5.94,3.96-7.74,.96-.6,2.31-1.11,4.05-1.53,1.74-.42,3.33-.63,4.77-.63,.72-.12,2.22-.18,4.5-.18,2.76,0,4.74,.45,5.94,1.35,1.2,.9,1.8,2.49,1.8,4.77,0,1.32-.48,2.31-1.44,2.97-.96,.66-2.16,.99-3.6,.99l-1.8-.18h-2.52c-3.36,0-5.04,.66-5.04,1.98,0,6.24,.42,14.4,1.26,24.48,.72,8.4,1.2,16.38,1.44,23.94,.84-.24,2.43-.63,4.77-1.17,2.34-.54,4.11-.81,5.31-.81,1.32,0,2.46,.57,3.42,1.71,.96,1.14,1.44,2.43,1.44,3.87,0,1.68-.78,2.88-2.34,3.6-.24,.12-.81,.39-1.71,.81-.9,.42-2.07,.69-3.51,.81-1.08,.12-2.88,.3-5.4,.54h-1.98c0,7.2,.6,16.98,1.8,29.34,1.08,12.96,1.62,22.74,1.62,29.34l-.18,.72-.18,.36c.12,.48,.18,1.26,.18,2.34,0,1.56-.54,2.79-1.62,3.69s-2.52,1.35-4.32,1.35c-3.48,0-5.22-3.84-5.22-11.52Z"/><path d="M273.65,397.85c-2.04-.6-3.06-2.28-3.06-5.04v-104.58c0-2.04-.36-5.1-1.08-9.18-.84-3.72-1.26-6.78-1.26-9.18v-.54c2.04-3.36,3.54-5.52,4.5-6.48,1.68,0,3.9-.24,6.66-.72,2.52-.48,4.74-.72,6.66-.72s3.78,.57,5.58,1.71c1.8,1.14,2.7,2.49,2.7,4.05,0,3.6-2.76,5.4-8.28,5.4h-2.52c-.72-.12-1.56-.18-2.52-.18-1.08,0-1.74,.06-1.98,.18,0,4.08,.24,9,.72,14.76l.36,5.04,.36,9.9c0,2.28-.18,5.76-.54,10.44l-.36,10.08,2.52-.54c2.4-.72,4.38-1.08,5.94-1.08,1.32,0,2.52,.51,3.6,1.53,1.08,1.02,1.62,2.19,1.62,3.51,0,1.44-.45,2.73-1.35,3.87-.9,1.14-2.01,1.71-3.33,1.71l-2.16-.18h-2.34c-1.8,0-3.06,.42-3.78,1.26v55.62l10.08-.54c6.84,0,10.26,1.56,10.26,4.68v.72c-.72,1.44-2.04,2.61-3.96,3.51-1.92,.9-3.78,1.47-5.58,1.71l-5.94,.18h-5.58c-2.28,0-4.26-.3-5.94-.9Z"/><path d="M330.71,386.51c0-5.76-2.49-26.37-7.47-61.83-4.98-35.46-8.13-54.81-9.45-58.05,1.56-2.88,3.66-4.32,6.3-4.32s5.34,6.24,7.74,18.72c2.28,13.2,4.2,28.32,5.76,45.36l1.26,14.58c.72,8.16,1.14,12.3,1.26,12.42l1.8-15.12,1.08-9.36c1.56-13.68,2.58-23.34,3.06-28.98,.6-7.44,.9-12.54,.9-15.3v-3.42c0-1.32,.48-2.58,1.44-3.78,.96-1.2,2.04-1.8,3.24-1.8,4.32,0,6.48,1.8,6.48,5.4v2.7c0,6.84,.69,14.19,2.07,22.05,1.38,7.86,3.39,17.25,6.03,28.17,1.68,6.36,3.36,14.1,5.04,23.22,.36-3.96,1.5-13.56,3.42-28.8,1.92-13.92,3.33-25.77,4.23-35.55,.9-9.78,1.35-18.93,1.35-27.45,0-2.76,.45-4.71,1.35-5.85,.9-1.14,2.61-1.71,5.13-1.71,1.44,0,2.73,.45,3.87,1.35,1.14,.9,1.71,2.07,1.71,3.51,0,1.32-.6,2.7-1.8,4.14,0,8.64-.66,18.75-1.98,30.33-1.32,11.58-2.94,22.59-4.86,33.03-1.92,10.2-3.54,21.15-4.86,32.85-1.32,11.7-1.98,21.99-1.98,30.87,0,1.92-.45,3.45-1.35,4.59-.9,1.14-2.25,1.71-4.05,1.71-1.32,0-2.88-2.46-4.68-7.38-2.28-6.84-5.1-20.46-8.46-40.86l-3.24-21.06-1.62-11.7c-1.56,10.92-2.73,19.71-3.51,26.37-.78,6.66-1.53,14.55-2.25,23.67-.84,8.76-1.26,17.4-1.26,25.92,0,1.2-.51,2.34-1.53,3.42-1.02,1.08-2.19,1.62-3.51,1.62-4.44,0-6.66-4.56-6.66-13.68Z"/></g></g></g></svg>