<svg width="100" height="100" viewBox="0 0 100 100" fill="none" xmlns="http://www.w3.org/2000/svg">
<g clip-path="url(#clip0_985_7023)">
<path d="M100 50C100 22.3852 77.614 0 50 0C22.386 0 0 22.3852 0 50C0 74.4811 17.596 94.8505 40.83 99.1565C40.784 98.0885 40.796 97.0085 40.82 95.9686C40.95 90.3883 39.59 80.6404 43.01 76.072C46.422 71.5156 55.672 71.6318 59.81 74.1424C61.216 74.996 62.374 76.3325 63.474 77.693C67.394 82.5519 70.992 88.6611 71.198 95.2934C88.216 87.3167 100.004 70.0349 100.004 49.998L100 50Z" fill="#FF758C"/>
<path d="M25.576 12.1384C24.638 12.7795 23.692 13.4808 23.15 14.4566C22.38 15.8412 22.552 17.5143 22.212 19.0471C21.12 23.9942 15.372 26.2904 10.7 28.6227C6.02803 30.955 1.23203 35.9341 3.64403 40.4324C4.63803 42.2878 6.63603 43.4339 7.96203 45.085C13.438 51.9075 5.37403 63.0981 10.668 70.0509C14.222 74.7175 21.948 74.7075 25.756 79.1837C27.292 80.9911 28.01 83.3514 29.606 85.1106C33.234 89.108 39.728 88.6171 45.182 87.7896C53.64 86.5052 62.096 85.2228 70.554 83.9385C71.746 83.7581 73.034 83.5277 73.846 82.6701C74.534 81.9428 74.726 80.9209 75.034 79.9832C76.858 74.447 82.92 71.5176 88.034 68.4219C93.148 65.3262 98.31 60.1026 96.698 54.5063C95.606 50.7153 91.67 48.1847 90.454 44.4278C88.872 39.5428 92.334 34.4194 92.028 29.314C91.612 22.3852 84.274 17.4822 77.118 16.5104C74.134 16.1057 71.006 16.1638 68.268 14.9575C66.446 14.1541 64.928 12.8417 63.44 11.5473C57.34 6.24351 55.062 2.25417 46.536 3.70284C39.026 4.97919 31.79 7.89055 25.576 12.1344V12.1384Z" fill="#C2ADFF"/>
<path d="M43.368 88.8955C36.634 92.8568 27.104 90.7689 22.706 84.271C21.988 83.209 20.254 84.2109 20.98 85.2828C25.984 92.6784 36.662 95.163 44.378 90.6267C45.488 89.9735 44.482 88.2423 43.368 88.8975V88.8955Z" fill="#F0F0F0"/>
<path d="M62.162 88.8095C67.392 90.4345 73.496 90.5347 78.286 87.5552C82.45 84.9644 85.378 80.0815 84.724 75.0863C84.56 73.826 82.558 73.8099 82.724 75.0863C83.302 79.5084 80.784 83.7582 77.022 85.9803C72.704 88.531 67.34 88.3226 62.694 86.878C61.462 86.4953 60.934 88.4288 62.162 88.8095Z" fill="#F0F0F0"/>
<path d="M59.8079 74.1445C55.6719 71.6339 46.4199 71.5157 43.0079 76.0741C39.5899 80.6425 40.9479 90.3904 40.8179 95.9707C40.7939 97.0126 40.7819 98.0906 40.8279 99.1586C43.8019 99.7096 46.8659 100 49.9979 100C57.5759 100 64.7559 98.311 71.1919 95.2955C70.9859 88.6653 67.3899 82.554 63.4679 77.6951C62.3699 76.3346 61.2099 74.9981 59.8039 74.1445H59.8079Z" fill="#1573FF"/>
<path d="M34.854 23.297C34.582 23.5554 34.322 23.866 34.074 24.2387C32.796 26.1602 32.566 28.5647 32.022 30.8088C29.72 40.3323 21.908 45.9146 12.844 47.9924C19.914 56.5041 23.628 67.7388 23.028 78.7951C23.18 76.006 35.172 76.4488 36.838 76.7493C41.012 77.5027 43.912 81.1254 47.59 82.025C52.4 83.1992 58.568 75.7795 62.882 73.9782C69.42 71.2492 76.708 70.6661 83.694 70.1472C81.612 70.3015 81.58 60.0927 81.754 58.8865C82.502 53.727 85.95 51.6752 87.868 47.4795C91.034 40.5527 82.984 33.095 77.198 30.4381C74.906 29.3862 72.376 28.9594 70.044 28.0016C65.552 26.1582 64.384 19.6322 59.544 18.8107C57.414 18.4501 55.352 19.5681 53.372 20.4337C50.408 21.7261 47.17 22.5536 43.938 22.7379C40.772 22.9183 37.33 20.9467 34.854 23.297Z" fill="#F0F0F0"/>
<path d="M49.5001 60.7116C57.7291 60.7116 64.4001 54.0284 64.4001 45.7842C64.4001 37.5399 57.7291 30.8567 49.5001 30.8567C41.2711 30.8567 34.6001 37.5399 34.6001 45.7842C34.6001 54.0284 41.2711 60.7116 49.5001 60.7116Z" fill="white"/>
<path d="M53.3921 37.2827C50.0221 35.4252 45.3081 35.1968 42.7381 38.0641C41.7561 39.1601 41.2021 40.5727 40.8161 41.9933C40.2881 43.9409 40.0401 46.0107 40.4821 47.9803C40.9241 49.95 42.1261 51.8114 43.9301 52.713C45.7001 53.5987 47.7981 53.4785 49.7481 53.1398C52.0321 52.7451 54.3541 52.0338 56.0741 50.4769C60.1341 46.8002 57.6741 39.643 53.3921 37.2847V37.2827Z" fill="#1573FF"/>
<path d="M33.574 72.9121C33.574 69.4437 36.438 66.6245 39.774 66.1356C41.652 65.8611 43.62 66.2478 45.318 67.0733C47.048 67.9149 48.374 69.2774 49.886 70.4335C52.582 72.4953 56.258 73.2547 58.68 70.3694C60.574 68.1113 61.068 64.8272 63.512 63.0179C66.16 61.0583 70.198 60.916 72.804 63.0259C73.796 63.8294 75.22 62.4208 74.218 61.6093C71.644 59.5275 68.142 58.9624 65.008 60.0264C63.482 60.5453 62.044 61.4189 60.984 62.6452C59.924 63.8715 59.246 65.4363 58.5 66.905C57.83 68.2235 57.016 69.7903 55.484 70.2251C53.31 70.8423 51.3 69.057 49.78 67.7686C46.67 65.1318 42.906 63.3946 38.752 64.2942C34.766 65.1558 31.572 68.7765 31.574 72.9141C31.574 74.2025 33.574 74.2065 33.574 72.9141V72.9121Z" fill="#E02947"/>
<path d="M47.2739 38.01C52.3439 37.2025 57.4859 37.4269 62.5979 37.6533C62.6699 34.3592 59.8139 32.2133 57.3359 30.7686C55.2259 29.5384 53.0939 28.2981 50.8079 27.6629C48.5219 27.0278 46.0319 27.0478 43.9199 28.27C42.9839 28.811 42.1499 29.5704 41.3539 30.3699C38.5439 33.1891 33.1339 39.2282 33.0759 43.6884C37.9279 42.372 42.0499 38.8415 47.2739 38.01Z" fill="#D9D9D9"/>
</g>
<defs>
<clipPath id="clip0_985_7023">
<rect width="100" height="100" fill="white"/>
</clipPath>
</defs>
</svg>
