<svg width="100" height="100" viewBox="0 0 100 100" fill="none" xmlns="http://www.w3.org/2000/svg">
<g clip-path="url(#clip0_985_6940)">
<path d="M100 50C100 22.386 77.614 0 50 0C22.386 0 0 22.386 0 50C0 68.676 10.24 84.956 25.41 93.542C25.348 93.41 25.288 93.274 25.232 93.134C22.06 85.224 26.33 62.818 30.82 56.654C37.338 47.706 49.99 45.936 58.172 46.122C65.87 46.296 74.398 49.798 78.404 60.138C80.808 66.344 81.152 74.008 80.77 81.25C80.602 84.416 80.288 87.652 79.374 90.462C91.872 81.372 100 66.636 100 50Z" fill="#E02947"/>
<path d="M84.4841 25.0139C81.4281 23.6179 77.9421 22.7339 75.2901 20.8959C72.2261 18.7739 70.5721 15.5919 68.4581 12.7679C63.6161 6.29994 55.3621 1.29194 45.5781 1.51994C35.7941 1.74794 25.0741 8.54794 24.1381 16.6599C23.8661 19.0219 24.3501 21.4639 23.0481 23.6959C20.6701 27.7659 14.1101 28.6659 9.8501 31.6179C5.5081 34.6279 4.0041 39.4619 3.3181 43.8619C2.5521 48.7779 2.6481 54.2099 6.6501 57.3759C10.1461 60.1419 15.8021 60.4859 19.5961 62.9799C25.2761 66.7159 25.2501 73.9439 25.2381 80.3159C25.2241 86.6879 26.3621 93.9979 33.0521 96.5299C35.5241 97.4659 38.4521 97.5799 41.3281 97.3679C55.1681 96.3459 68.8841 87.2919 73.5341 76.1099C77.5061 77.9779 82.4021 79.7799 86.9661 77.8839C92.4041 75.6259 93.6961 69.7879 94.1481 65.0079C95.5141 50.5659 101.78 32.8339 84.4841 25.0159V25.0139Z" fill="#131313"/>
<path d="M78.406 60.1379C74.4 49.7979 65.874 46.2979 58.174 46.1219C49.992 45.9359 37.34 47.7059 30.822 56.6539C26.332 62.8159 22.062 85.2239 25.234 93.1339C25.29 93.2739 25.35 93.4099 25.412 93.5419C32.674 97.6519 41.062 99.9999 50.002 99.9999C60.98 99.9999 71.128 96.4599 79.376 90.4619C80.29 87.6519 80.606 84.4159 80.772 81.2499C81.154 74.0079 80.812 66.3439 78.406 60.1379Z" fill="#FFEAD4"/>
<path d="M52.5521 15.014C49.4601 16.194 46.8721 18.382 43.9621 19.956C35.2341 24.674 26.9081 21.724 20.5001 29.3C17.9141 32.358 19.9501 38.692 21.1001 40.1C23.6061 43.168 25.4761 50.354 26.9681 53.58C30.3941 60.98 43.9981 68.94 50.8181 64.47C53.4601 62.738 63.7601 59.148 66.4181 59.296C72.9261 59.654 75.7901 51.708 77.7641 45.498C81.6461 33.284 66.9841 9.51 52.5501 15.016L52.5521 15.014Z" fill="#C2ADFF"/>
<path d="M58.724 29.542C56.076 30.34 54.038 32.208 53.134 34.35C52.23 36.492 52.4 38.872 53.324 41.008C53.954 42.466 55.246 44 57.174 44.094C58.928 44.18 60.378 43.036 62.07 42.654C63.978 42.224 66.014 42.798 67.99 42.67C70.448 42.51 72.728 41.168 73.644 39.338C74.56 37.508 74.07 35.28 72.426 33.81C70.624 32.198 67.932 31.69 65.488 30.984C63.028 30.272 61.516 28.7 58.724 29.542Z" fill="white"/>
<path d="M61.6999 41.9C63.7986 41.9 65.4999 40.1987 65.4999 38.1C65.4999 36.0014 63.7986 34.3 61.6999 34.3C59.6012 34.3 57.8999 36.0014 57.8999 38.1C57.8999 40.1987 59.6012 41.9 61.6999 41.9Z" fill="#8054FF"/>
<path d="M26.006 73.1099C27.344 74.2479 29.026 74.9019 30.46 75.9179C32.608 77.4399 34.126 79.7159 36.246 81.2779C39.234 83.4799 43.098 84.0479 46.802 84.2959C49.078 84.4479 51.424 84.4959 53.568 83.7179C55.712 82.9399 57.632 81.1659 57.96 78.9099C58.288 76.6539 56.5201 74.1339 54.24 74.1919C52.6761 74.2319 51.374 75.3439 49.938 75.9639C46.058 77.6419 41.6 75.6319 38.13 73.2179C35.938 71.6919 33.872 69.9879 31.958 68.1259C30.498 66.7059 28.596 63.6619 26.476 63.1779C21.172 61.9699 23.736 71.1759 26.008 73.1079L26.006 73.1099Z" fill="#C2ADFF"/>
<path d="M70.71 65.0081C69.256 67.3241 68.164 69.9521 66.098 71.7461C64.836 72.8421 63.29 73.5501 61.768 74.2441C61.38 74.4201 60.97 74.6141 60.734 74.9701C60.52 75.2921 60.482 75.6941 60.45 76.0801C60.336 77.4381 60.276 78.9661 61.186 79.9821C62.066 80.9621 63.544 81.1001 64.858 81.0161C68.84 80.7601 72.714 79.0401 75.576 76.2601C78.438 73.4781 80.268 69.6581 80.638 65.6841C80.858 63.3261 80.378 58.4921 77.042 58.7661C74.546 58.9721 71.892 63.1261 70.708 65.0141L70.71 65.0081Z" fill="#C2ADFF"/>
<path d="M48.79 49.2959C50.196 50.9599 52.622 51.6659 54.688 50.9119C56.856 50.1199 58.244 47.9239 58.178 45.6459C58.142 44.3619 56.142 44.3559 56.178 45.6459C56.272 48.9739 52.312 50.3779 50.204 47.8819C49.372 46.8979 47.964 48.3179 48.79 49.2959Z" fill="#E02947"/>
<path d="M41.498 32.8599C44.26 33.0119 46.68 34.3479 48.064 36.2179C49.446 38.0879 49.842 40.4399 49.446 42.7339C49.176 44.2999 48.282 46.0959 46.432 46.6399C44.746 47.1359 43.068 46.3659 41.334 46.3939C39.378 46.4259 37.536 47.4619 35.584 47.8019C33.158 48.2259 30.626 47.4579 29.304 45.8939C27.982 44.3299 27.936 42.0499 29.186 40.2339C30.558 38.2419 33.056 37.1139 35.264 35.8519C37.472 34.5899 38.586 32.6979 41.498 32.8579V32.8599Z" fill="white"/>
<path d="M40.622 45.6801C42.7207 45.6801 44.422 43.9788 44.422 41.8801C44.422 39.7814 42.7207 38.0801 40.622 38.0801C38.5233 38.0801 36.822 39.7814 36.822 41.8801C36.822 43.9788 38.5233 45.6801 40.622 45.6801Z" fill="#8054FF"/>
<path d="M69.2 54.3C73.3421 54.3 76.7 50.9422 76.7 46.8C76.7 42.6579 73.3421 39.3 69.2 39.3C65.0578 39.3 61.7 42.6579 61.7 46.8C61.7 50.9422 65.0578 54.3 69.2 54.3Z" fill="#FFB6C3"/>
<path d="M37.2 60.7C41.3421 60.7 44.7 57.3421 44.7 53.2C44.7 49.0578 41.3421 45.7 37.2 45.7C33.0578 45.7 29.7 49.0578 29.7 53.2C29.7 57.3421 33.0578 60.7 37.2 60.7Z" fill="#FFB6C3"/>
</g>
<defs>
<clipPath id="clip0_985_6940">
<rect width="100" height="100" fill="white"/>
</clipPath>
</defs>
</svg>
