<svg width="100" height="100" viewBox="0 0 100 100" fill="none" xmlns="http://www.w3.org/2000/svg">
<g clip-path="url(#clip0_985_6972)">
<path d="M60.6 52.534C61.486 52.122 62.424 51.366 62.31 50.394C60.49 50.564 49.156 50.882 49.134 52.236C49.082 55.302 59.09 53.232 60.6 52.532V52.534Z" fill="white"/>
<path d="M36.948 93.734C35.724 90.82 31.486 89.688 31.052 86.558C30.752 84.392 32.518 82.512 34.292 81.234C36.066 79.956 38.122 78.756 38.894 76.71C40.308 72.964 36.622 69.166 36.576 65.164C43.144 65.584 49.724 65.77 56.306 65.736C60.186 65.716 66.78 65.278 68.858 69.496C69.934 71.682 69.036 74.406 67.426 76.236C65.816 78.066 63.616 79.242 61.574 80.572C60.828 81.058 60.056 81.62 59.744 82.456C59.126 84.118 60.652 85.832 62.262 86.572C63.872 87.314 65.748 87.612 67.042 88.824C68.524 90.212 68.844 92.542 68.22 94.476C67.908 95.442 67.396 96.32 66.768 97.118C86.134 90.226 100.002 71.734 100.002 50.002C100 22.386 77.614 0 50 0C22.386 0 0 22.386 0 50C0 72.948 15.462 92.284 36.534 98.164C37.29 96.806 37.542 95.154 36.946 93.736L36.948 93.734Z" fill="#FFEAD4"/>
<path d="M39.5121 3.25195C32.3681 4.61595 25.5221 10.1619 24.9921 17.4159C24.8201 19.7679 25.2661 22.3099 24.0861 24.3499C22.6081 26.9059 19.3041 27.544 16.5241 28.538C10.4841 30.698 5.5701 35.784 3.6161 41.8919C2.5661 45.174 2.3921 48.9299 4.1001 51.9219C5.7421 54.7999 8.9081 56.6379 10.2661 59.6599C12.6321 64.9259 8.5521 70.9819 9.3241 76.702C9.7981 80.2119 12.2521 83.3859 15.5301 84.7299C19.2401 86.2499 23.5161 85.4699 27.3681 86.5739C31.8021 87.8459 35.1401 91.4199 39.0961 93.7919C47.3301 98.7299 58.6341 97.8879 66.0481 91.7879C71.4201 87.3659 74.6001 80.7659 79.8001 76.1439C85.4761 71.0999 93.9721 67.6759 95.2321 60.188C96.8961 50.2879 84.1641 42.834 84.4701 32.7999C84.6021 28.466 87.2301 24.2119 86.1221 20.0219C85.3321 17.0319 82.7941 14.8379 80.1681 13.202C74.1561 9.45595 67.2841 8.74595 60.7521 6.40995C53.8381 3.93795 46.9801 1.82595 39.5121 3.25195Z" fill="#8054FF"/>
<path d="M66.7661 97.1161C67.3961 96.3181 67.9061 95.4401 68.2181 94.4741C68.8421 92.5421 68.5221 90.2101 67.0401 88.8221C65.7461 87.6101 63.8701 87.3121 62.2601 86.5701C60.6501 85.8281 59.1241 84.1141 59.7421 82.4541C60.0521 81.6181 60.8241 81.0561 61.5721 80.5701C63.6141 79.2401 65.8161 78.0641 67.4241 76.2341C69.0341 74.4041 69.9321 71.6801 68.8561 69.4941C66.7781 65.2741 60.1861 65.7141 56.3041 65.7341C49.7241 65.7681 43.1421 65.5821 36.5741 65.1621C36.6201 69.1641 40.3061 72.9621 38.8921 76.7081C38.1201 78.7541 36.0641 79.9561 34.2901 81.2321C32.5161 82.5081 30.7501 84.3901 31.0501 86.5561C31.4841 89.6861 35.7221 90.8201 36.9461 93.7321C37.5421 95.1521 37.2881 96.8021 36.5341 98.1601C40.8181 99.3561 45.3341 99.9961 50.0001 99.9961C55.8821 99.9961 61.5241 98.9781 66.7661 97.1121V97.1161Z" fill="#FFB6C3"/>
<path d="M69.4101 25.8081C64.8661 26.3181 60.2601 26.2881 55.7221 25.7181C47.5041 24.6861 39.5541 21.9001 31.2961 21.2581C29.7541 21.1381 28.1241 21.1121 26.7581 21.8361C25.4821 22.5121 24.6121 23.7521 23.8501 24.9781C16.9361 36.1201 15.0261 50.2441 18.7361 62.8221C19.1021 64.0621 19.5441 65.3301 20.4341 66.2681C21.3201 67.2021 22.5561 67.7121 23.7861 68.0901C28.4881 69.5381 33.5001 69.4301 38.4121 69.6921C44.7961 70.0321 51.1461 71.0241 57.3301 72.6441C64.9861 74.6501 73.4621 77.5441 80.4241 73.7841C84.1501 71.7721 86.7561 68.0741 88.1941 64.0921C89.6301 60.1081 90.0081 55.8261 90.1561 51.5941C90.3861 45.0621 90.0741 38.3721 87.7201 32.2741C86.4841 29.0721 83.8581 24.2841 80.3241 23.1121C77.0581 22.0281 73.0181 25.4041 69.4101 25.8101V25.8081Z" fill="#9AFFAA"/>
<path d="M67.1959 49.8001C71.0641 49.8001 74.1999 46.1736 74.1999 41.7001C74.1999 37.2266 71.0641 33.6001 67.1959 33.6001C63.3277 33.6001 60.1919 37.2266 60.1919 41.7001C60.1919 46.1736 63.3277 49.8001 67.1959 49.8001Z" fill="white"/>
<path d="M64.3441 45.7801C65.7001 44.9001 66.3381 43.2661 66.7821 41.7121C67.2141 40.1961 67.5441 38.6301 67.4741 37.0541C67.4341 36.1561 67.2421 35.2161 66.6381 34.5501C65.5481 33.3481 63.4801 33.5481 62.2301 34.5841C60.9801 35.6201 60.3781 37.2321 59.9541 38.8001C59.2721 41.3221 59.5521 48.8841 64.3421 45.7801H64.3441Z" fill="#131313"/>
<path d="M39.2459 48.2C43.1141 48.2 46.2499 44.5735 46.2499 40.1C46.2499 35.6265 43.1141 32 39.2459 32C35.3777 32 32.2419 35.6265 32.2419 40.1C32.2419 44.5735 35.3777 48.2 39.2459 48.2Z" fill="white"/>
<path d="M36.3939 44.18C37.7499 43.3 38.3879 41.666 38.8319 40.112C39.2639 38.596 39.5939 37.03 39.5239 35.454C39.4839 34.556 39.2919 33.616 38.6879 32.95C37.5979 31.748 35.5299 31.948 34.2799 32.984C33.0299 34.02 32.4279 35.632 32.0039 37.2C31.3219 39.722 31.6019 47.284 36.3919 44.18H36.3939Z" fill="#131313"/>
<path d="M49.3821 50.0321C48.1781 49.9321 46.7001 49.9001 46.0721 50.9341C45.8661 51.2721 45.7961 51.6761 45.7761 52.0721C45.6181 55.0861 48.2501 57.7321 51.1921 58.4001C54.1341 59.0681 57.2261 58.1481 59.9041 56.7601C60.9081 56.2401 61.8981 55.6381 62.6221 54.7681C63.3461 53.8981 63.7721 52.7181 63.5041 51.6181C62.8761 49.0421 60.0521 49.4801 58.1441 49.7581C55.2441 50.1801 52.3021 50.2781 49.3821 50.0341V50.0321Z" fill="#FF758C"/>
<path d="M48.6879 50.6959C49.4939 52.5199 51.5179 53.5879 53.5079 53.7199C55.5019 53.8519 57.4639 53.1919 59.2799 52.3579C59.5579 52.2299 59.8439 52.0919 60.0379 51.8539C60.2319 51.6159 60.3099 51.2559 60.1339 51.0039C59.9739 50.7739 59.6699 50.7059 59.3939 50.6619C58.0919 50.4619 48.9339 51.2599 48.6819 50.6839C48.6819 50.6879 48.6839 50.6899 48.6859 50.6939L48.6879 50.6959Z" fill="white"/>
<path d="M50.792 35.732C54.05 36.484 57.992 35.896 60.218 34.122C60.888 33.588 61.412 32.928 61.4 32.228C61.388 31.528 60.72 30.804 59.708 30.652C57.946 30.386 56.662 31.792 54.95 32.178C51.472 32.964 46.03 27.244 43.888 29.554C41.944 31.652 48.734 35.258 50.792 35.732Z" fill="#131313"/>
<path d="M24.8 59.4C29.2183 59.4 32.8 56.1317 32.8 52.1C32.8 48.0684 29.2183 44.8 24.8 44.8C20.3818 44.8 16.8 48.0684 16.8 52.1C16.8 56.1317 20.3818 59.4 24.8 59.4Z" fill="#FFEAD4"/>
<path d="M80 62.2001C84.4183 62.2001 88 58.9318 88 54.9001C88 50.8684 84.4183 47.6001 80 47.6001C75.5817 47.6001 72 50.8684 72 54.9001C72 58.9318 75.5817 62.2001 80 62.2001Z" fill="#FFEAD4"/>
</g>
<defs>
<clipPath id="clip0_985_6972">
<rect width="100" height="100" fill="white"/>
</clipPath>
</defs>
</svg>
