<?xml version="1.0" encoding="utf-8"?>
<!-- Generator: Adobe Illustrator 27.0.1, SVG Export Plug-In . SVG Version: 6.00 Build 0)  -->
<svg version="1.1" xmlns="http://www.w3.org/2000/svg" xmlns:xlink="http://www.w3.org/1999/xlink" x="0px" y="0px"
	 viewBox="0 0 288 280" style="enable-background:new 0 0 288 280;" xml:space="preserve">
<style type="text/css">
	.st0{fill:none;}
	.st1{fill:#FFFFFF;}
	.st2{fill:#FF7F8E;}
	.st3{fill:#DFEEFF;}
	.st4{fill:#FCFCFC;}
	.st5{fill:#EC7D8C;}
	.st6{fill:#404040;}
	.st7{fill:#FDFDFD;}
	.st8{fill:#808080;}
</style>
<g id="Layer_1">
</g>
<g id="logo_and_wordmark">
</g>
<g id="logo_icon">
	<path class="st0" d="M191.9,58L151.1,58L192,58C192,58,191.9,58,191.9,58z"/>
	<g id="Sad_Queery">
		<path class="st2" d="M259.2,214.4l-25.9-24.3c4.6-6.6,7.3-15.1,7.3-25.6l1.4-35.3l-1.4-36.9c0-29.8-21.8-43.6-48.7-43.6L107,53.8
			c-1.8,0.1-3.6,0.1-5.4,0.1l-27.2-0.5c-26.5,0-48.9,14.8-48.9,44.9l3.3,26.7c0.5,4.4,0.4,8.9-0.1,13.3l-3.2,26.5
			c0,29.8,21.6,46.8,48.7,43.6c48.5-3.2,84.6,0.3,117.6,0c8.8,0,17-1.5,24.1-4.5l27.2,25.5c3.8,3.6,9.6,4,12.8,1l4.2-3.9
			C263.5,223.4,263,218,259.2,214.4z M72.6,194.7c-15.8-2.5-25.7-13.6-27.4-30.3l2.6-22.1c0.8-6.9,0.9-13.9,0.2-20.8l-2.9-23.3
			c0-16.6,12.1-30,27.1-30l78.7-4.4l40.8-1.5c0,0,0.1,0,0.1,0c12.4,0,26.9,6.6,26.9,25.2l1.4,41l-1.4,36.3
			c-0.1,13.5-12.5,29.9-27,29.9H72.6z"/>
		<path class="st2" d="M133.2,124.9c-2.5-1.1-5.5-0.3-6.8,1.9c-3.3,5.3-5.3,12.7-5.3,21c0,16,7.7,28.9,17.1,28.9
			c9.5,0,17.1-13,17.1-28.9c0-4.1-0.5-8.1-1.4-11.6c-0.3-1.3-1.3-2.3-2.6-2.9L133.2,124.9z"/>
		<path class="st2" d="M74.2,132.7c-1.3,0.6-2.3,1.7-2.6,2.9c-1,3.7-1.6,7.9-1.6,12.2c0,16,7.7,28.9,17.1,28.9s17.1-13,17.1-28.9
			c0-8.5-2.2-16.2-5.7-21.5c-1.4-2.1-4.4-2.8-6.9-1.7L74.2,132.7z"/>
		<g>
			<path class="st2" d="M189.9,121.8c-0.5,0-1-0.1-1.5-0.2c-16.6-4.8-19.4-14-22.1-23c-0.9-2.9,0.8-6,3.7-6.9c2.9-0.9,6,0.8,6.9,3.7
				c2.5,8.3,3.8,12.4,14.6,15.6c2.9,0.8,4.6,3.9,3.7,6.8C194.5,120.3,192.3,121.8,189.9,121.8z"/>
		</g>
	</g>
</g>
</svg>
