<?xml version="1.0" encoding="UTF-8"?><svg id="Layer_2" xmlns="http://www.w3.org/2000/svg" viewBox="0 0 500 500"><defs><style>.cls-1{fill:#ff758c;}.cls-2{fill:#dfeeff;}</style></defs><g id="Layer_11"><g><circle class="cls-1" cx="250" cy="250" r="250"/><path class="cls-2" d="M204.51,18.6c-35.72,6.82-69.95,34.55-72.6,70.82-.86,11.76,1.37,24.47-4.53,34.67-7.39,12.78-23.91,15.97-37.81,20.94-30.2,10.8-54.77,36.23-64.54,66.77-5.25,16.41-6.12,35.19,2.42,50.15,8.21,14.39,24.04,23.58,30.83,38.69,11.83,26.33-8.57,56.61-4.71,85.21,2.37,17.55,14.64,33.42,31.03,40.14,18.55,7.6,39.93,3.7,59.19,9.22,22.17,6.36,38.86,24.23,58.64,36.09,41.17,24.69,97.69,20.48,134.76-10.02,26.86-22.11,42.76-55.11,68.76-78.22,28.38-25.22,70.86-42.34,77.16-79.78,8.32-49.5-55.34-86.77-53.81-136.94,.66-21.67,13.8-42.94,8.26-63.89-3.95-14.95-16.64-25.92-29.77-34.1-30.06-18.73-64.42-22.28-97.08-33.96-34.57-12.36-68.86-22.92-106.2-15.79Z"/><g><path d="M73.38,305.59l-.13-5.07c-.09-1.47-.13-3.12-.13-4.94l.13-4.42c-.26-.95-.91-10.44-1.95-28.47-1.04-18.02-1.65-29.59-1.82-34.71-5.03-.17-8.23-.69-9.62-1.56-.96-.69-1.43-1.47-1.43-2.34,0-.69,.46-1.32,1.37-1.88,.91-.56,1.84-.85,2.79-.85,2.43,0,5.37,.17,8.84,.52,3.29,.43,6.24,.65,8.84,.65h2.08c2.69,0,4.03,1.04,4.03,3.12,0,1.04-.43,1.89-1.3,2.54-.87,.65-1.87,.98-2.99,.98-.78,0-1.91-.13-3.38-.39l-2.6-.52-.13,.65-.13,.65c0,7.71,.74,20.02,2.21,36.92,1.39,15.86,2.08,28.17,2.08,36.92,0,1.04-.46,1.95-1.36,2.73-.91,.78-1.93,1.17-3.06,1.17l-2.34-1.69Z"/><path d="M117.83,286.22l.13-7.41,.13-5.98v-1.69c.08-.69,.13-1.51,.13-2.47,0-.17-.13-.39-.39-.65s-.39-.47-.39-.65v-.13c-.43,.17-1.21,.26-2.34,.26s-2.51-.17-4.16-.52c-.52-.08-1.91-.3-4.16-.65v14.95c0,2.25,.13,5.81,.39,10.66,.26,4.77,.39,8.32,.39,10.66,0,1.3-.35,2.43-1.04,3.38-.69,.96-1.6,1.43-2.73,1.43-1.65,0-2.82-1.6-3.51-4.81-.69-3.29-1.04-7.58-1.04-12.87l.26-10.53c.09-2.95,.13-6.07,.13-9.36v-4.03c0-1.38-.04-2.29-.13-2.73v-.65l.39-7.54c0-3.29-.13-8.19-.39-14.69-.26-6.5-.39-11.4-.39-14.69,0-1.04,.35-1.95,1.04-2.73,.69-.78,1.56-1.17,2.6-1.17,2.77,0,4.16,2.6,4.16,7.8l-.26,16.12c-.17,4.85-.26,10.27-.26,16.25,1.3,.43,3.64,.65,7.02,.65h4.81c.17-.52,.26-1.04,.26-1.56,0-4.16-.26-10.31-.78-18.46-.61-7.63-.91-13.82-.91-18.59,0-.95,.37-1.76,1.11-2.41,.74-.65,1.62-.98,2.67-.98,.61,0,1.47,.22,2.6,.65l1.17,.52c0,12.31,.43,28.73,1.3,49.27l1.17,32.89c0,1.21-.46,2.17-1.37,2.86-.91,.69-1.97,1.04-3.19,1.04-2.95,0-4.42-7.15-4.42-21.45Z"/><path d="M145.33,308.19c-.91-.78-1.41-1.73-1.5-2.86v-5.98c-.09-.78-.13-1.69-.13-2.73,0-1.82-.13-4.59-.39-8.32l-.26-8.32c0-4.25,.13-10.57,.39-18.98,.35-7.54,.52-13.87,.52-18.98,0-1.21-.13-3.03-.39-5.46-.26-2.51-.39-4.33-.39-5.46,0-6.15,1.82-9.23,5.46-9.23,2.86,0,6.17,.56,9.95,1.69,3.77,1.13,5.65,2.47,5.65,4.03,0,.87-.37,1.67-1.1,2.41s-1.62,1.32-2.67,1.75c-3.64-1.3-6.93-2.17-9.88-2.6,.08,1.3,.13,3.16,.13,5.59,0,3.47-.04,6.59-.13,9.36-.26,4.16-.39,7.28-.39,9.36l.39,2.08,2.08-.13c.69-.09,1.56-.13,2.6-.13,4.16,0,6.24,1.21,6.24,3.64,0,.96-.39,1.75-1.17,2.41-.78,.65-1.78,.97-2.99,.97-1.56,0-2.77-.08-3.64-.26h-3.25c.17,2.25,.26,5.55,.26,9.88s-.04,8.23-.13,11.7c-.26,5.29-.39,9.23-.39,11.83,0,4.85,.08,7.28,.26,7.28l4.29-.13c1.47-.08,3.25-.13,5.33-.13,3.29,0,4.94,1.04,4.94,3.12,0,1.21-.54,2.15-1.62,2.79-1.08,.65-2.41,.98-3.96,.98h-11.05c-1.13,0-2.15-.39-3.05-1.17Z"/><path d="M186.34,306.63c.95-1.82,1.43-9.19,1.43-22.1,0-3.03-.22-6.33-.65-9.88l-.39-3.77c-.26-2.34-.39-4.12-.39-5.33v-3.38c-.87-2.17-2.45-6.2-4.75-12.09-2.3-5.89-4.14-10.83-5.53-14.82-1.65-4.59-2.47-7.71-2.47-9.36v-.65l2.99-2.21c1.47,.17,3.03,2.08,4.68,5.72,1.39,3.21,2.92,7.8,4.62,13.78,1.69,5.98,2.54,9.14,2.54,9.49,.34-.95,1.04-4.2,2.08-9.75,1.04-5.55,2.21-10.44,3.51-14.69,1.47-4.25,2.99-6.37,4.55-6.37,.87,0,1.62,.26,2.28,.78,.65,.52,.97,1.17,.97,1.95,0,4.42-1.21,10.66-3.64,18.72-2.6,8.75-3.9,15.08-3.9,18.98v39.13c0,5.81-1.43,8.71-4.29,8.71-1.47,0-2.69-.96-3.64-2.86Z"/><path d="M218.52,310.27c-.3-.52-.46-1.21-.46-2.08,0-.6,.13-1.43,.39-2.47l11.31-45.24c7.45-30.07,11.87-47.19,13.26-51.35,.09-.61,.48-.91,1.17-.91s1.26,.28,1.69,.84c.43,.57,.65,1.28,.65,2.15l-.13,1.04c-1.13,6.15-3.47,16.49-7.02,31-3.55,14.52-7.11,28.3-10.66,41.34-3.55,13.04-6.15,21.38-7.8,25.03-.26,.95-.7,1.43-1.3,1.43-.44,0-.8-.26-1.11-.78Z"/><path d="M271.23,305.59l-.13-5.07c-.09-1.47-.13-3.12-.13-4.94l.13-4.42c-.26-.95-.91-10.44-1.95-28.47-1.04-18.02-1.65-29.59-1.82-34.71-5.03-.17-8.23-.69-9.62-1.56-.96-.69-1.43-1.47-1.43-2.34,0-.69,.46-1.32,1.37-1.88,.91-.56,1.84-.85,2.79-.85,2.43,0,5.37,.17,8.84,.52,3.29,.43,6.24,.65,8.84,.65h2.08c2.69,0,4.03,1.04,4.03,3.12,0,1.04-.43,1.89-1.3,2.54-.87,.65-1.87,.98-2.99,.98-.78,0-1.91-.13-3.38-.39l-2.6-.52-.13,.65-.13,.65c0,7.71,.74,20.02,2.21,36.92,1.39,15.86,2.08,28.17,2.08,36.92,0,1.04-.46,1.95-1.36,2.73-.91,.78-1.93,1.17-3.06,1.17l-2.34-1.69Z"/><path d="M315.69,286.22l.13-7.41,.13-5.98v-1.69c.08-.69,.13-1.51,.13-2.47,0-.17-.13-.39-.39-.65s-.39-.47-.39-.65v-.13c-.43,.17-1.21,.26-2.34,.26s-2.51-.17-4.16-.52c-.52-.08-1.91-.3-4.16-.65v14.95c0,2.25,.13,5.81,.39,10.66,.26,4.77,.39,8.32,.39,10.66,0,1.3-.35,2.43-1.04,3.38-.69,.96-1.6,1.43-2.73,1.43-1.65,0-2.82-1.6-3.51-4.81-.69-3.29-1.04-7.58-1.04-12.87l.26-10.53c.09-2.95,.13-6.07,.13-9.36v-4.03c0-1.38-.04-2.29-.13-2.73v-.65l.39-7.54c0-3.29-.13-8.19-.39-14.69-.26-6.5-.39-11.4-.39-14.69,0-1.04,.35-1.95,1.04-2.73,.69-.78,1.56-1.17,2.6-1.17,2.77,0,4.16,2.6,4.16,7.8l-.26,16.12c-.17,4.85-.26,10.27-.26,16.25,1.3,.43,3.64,.65,7.02,.65h4.81c.17-.52,.26-1.04,.26-1.56,0-4.16-.26-10.31-.78-18.46-.61-7.63-.91-13.82-.91-18.59,0-.95,.37-1.76,1.11-2.41,.74-.65,1.62-.98,2.67-.98,.61,0,1.47,.22,2.6,.65l1.17,.52c0,12.31,.43,28.73,1.3,49.27l1.17,32.89c0,1.21-.46,2.17-1.37,2.86-.91,.69-1.97,1.04-3.19,1.04-2.95,0-4.42-7.15-4.42-21.45Z"/><path d="M343.19,308.19c-.91-.78-1.41-1.73-1.5-2.86v-5.98c-.09-.78-.13-1.69-.13-2.73,0-1.82-.13-4.59-.39-8.32l-.26-8.32c0-4.25,.13-10.57,.39-18.98,.35-7.54,.52-13.87,.52-18.98,0-1.21-.13-3.03-.39-5.46-.26-2.51-.39-4.33-.39-5.46,0-6.15,1.82-9.23,5.46-9.23,2.86,0,6.17,.56,9.95,1.69,3.77,1.13,5.65,2.47,5.65,4.03,0,.87-.37,1.67-1.1,2.41s-1.62,1.32-2.67,1.75c-3.64-1.3-6.93-2.17-9.88-2.6,.08,1.3,.13,3.16,.13,5.59,0,3.47-.04,6.59-.13,9.36-.26,4.16-.39,7.28-.39,9.36l.39,2.08,2.08-.13c.69-.09,1.56-.13,2.6-.13,4.16,0,6.24,1.21,6.24,3.64,0,.96-.39,1.75-1.17,2.41-.78,.65-1.78,.97-2.99,.97-1.56,0-2.77-.08-3.64-.26h-3.25c.17,2.25,.26,5.55,.26,9.88s-.04,8.23-.13,11.7c-.26,5.29-.39,9.23-.39,11.83,0,4.85,.08,7.28,.26,7.28l4.29-.13c1.47-.08,3.25-.13,5.33-.13,3.29,0,4.94,1.04,4.94,3.12,0,1.21-.54,2.15-1.62,2.79-1.08,.65-2.41,.98-3.96,.98h-11.05c-1.13,0-2.15-.39-3.05-1.17Z"/><path d="M425.54,306.37v-16.64c0-4.33-.3-10.01-.91-17.03-.69-7.89-1.04-13.3-1.04-16.25l.26-8.06c.17-2.34,.26-4.98,.26-7.93-.35,1.13-1.78,7.11-4.29,17.94-2.51,10.49-5.12,20.19-7.8,29.12-2.6,8.58-4.72,12.87-6.37,12.87s-2.97-.5-3.97-1.5c-1-1-1.49-2.36-1.49-4.09,0-3.81-1.54-11.92-4.62-24.31-3.08-12.39-5.87-22.53-8.38-30.42l-.78,14.69c-.7,12.39-1.17,22.71-1.43,30.94-.17,7.97-.26,13.43-.26,16.38,0,.69,.04,1.34,.13,1.95v1.82c0,1.47-.3,2.58-.91,3.32-.61,.74-1.74,1.1-3.38,1.1-.87,0-1.69-.32-2.47-.97s-1.17-1.37-1.17-2.14c0-8.84,.65-22.1,1.95-39.78,1.3-17.68,1.95-30.94,1.95-39.78-.52-.78-.78-1.6-.78-2.47,0-1.04,.5-1.84,1.5-2.41,1-.56,2.19-.84,3.58-.84,1.12,0,3.21,4.07,6.24,12.22,3.03,8.15,6.07,17.38,9.1,27.69,3.03,10.31,4.98,17.77,5.85,22.36,.69-2.34,1.26-4.5,1.69-6.5l.78-3.12c2.77-12.13,5.55-23.09,8.32-32.89,1.65-5.98,3.25-10.66,4.81-14.04,1.56-3.64,2.99-5.46,4.29-5.46,1.21,0,2.32,.33,3.31,.97,1,.65,1.5,1.5,1.5,2.54,0,6.24,.26,15.6,.78,28.08,.61,11.62,.91,20.63,.91,27.04l-.13,6.89-.26,6.89c0,1.04,.13,2.6,.39,4.68l.39,4.55c.08,.78,.15,1.39,.2,1.82,.04,.43,.06,.69,.06,.78,.43,1.13,.65,1.95,.65,2.47,0,1.47-.43,2.77-1.3,3.9-.87,1.12-1.91,1.69-3.12,1.69-2.69,0-4.03-2.69-4.03-8.06Z"/></g></g></g></svg>