<?xml version="1.0" encoding="UTF-8"?><svg id="Layer_2" xmlns="http://www.w3.org/2000/svg" viewBox="0 0 500 500"><defs><style>.cls-1{fill:#ff758c;}.cls-2{fill:#dfeeff;}</style></defs><g id="Layer_11"><g><circle class="cls-1" cx="250" cy="250" r="250"/><path class="cls-2" d="M204.51,18.6c-35.72,6.82-69.95,34.55-72.6,70.82-.86,11.76,1.37,24.47-4.53,34.67-7.39,12.78-23.91,15.97-37.81,20.94-30.2,10.8-54.77,36.23-64.54,66.77-5.25,16.41-6.12,35.19,2.42,50.15,8.21,14.39,24.04,23.58,30.83,38.69,11.83,26.33-8.57,56.61-4.71,85.21,2.37,17.55,14.64,33.42,31.03,40.14,18.55,7.6,39.93,3.7,59.19,9.22,22.17,6.36,38.86,24.23,58.64,36.09,41.17,24.69,97.69,20.48,134.76-10.02,26.86-22.11,42.76-55.11,68.76-78.22,28.38-25.22,70.86-42.34,77.16-79.78,8.32-49.5-55.34-86.77-53.81-136.94,.66-21.67,13.8-42.94,8.26-63.89-3.95-14.95-16.64-25.92-29.77-34.1-30.06-18.73-64.42-22.28-97.08-33.96-34.57-12.36-68.86-22.92-106.2-15.79Z"/><g><path d="M92,311.13c0-13.8-1.29-28.08-3.87-42.84-2.58-14.76-6.63-32.82-12.15-54.18-.24-1.2-.78-3.06-1.62-5.58-2.16-6.72-3.24-10.98-3.24-12.78,0-1.08,.45-2.04,1.35-2.88,.9-.84,1.89-1.26,2.97-1.26,1.8,0,3.48,1.5,5.04,4.5,1.56,2.88,3,6.75,4.32,11.61,1.32,4.86,2.76,10.89,4.32,18.09,1.44,6.84,3.18,17.34,5.22,31.5l1.08,7.02,2.16,16.02c.48,4.44,.9,7.62,1.26,9.54,2.52-13.2,5.76-32.28,9.72-57.24,3.24-21.36,5.52-35.94,6.84-43.74h3.96c1.08,0,2.04,.39,2.88,1.17,.84,.78,1.26,1.71,1.26,2.79,0,4.32-.51,8.97-1.53,13.95-1.02,4.98-2.55,10.95-4.59,17.91-1.68,6-2.79,10.5-3.33,13.5-.54,3-1.05,7.74-1.53,14.22-.96,14.52-2.46,27.54-4.5,39.06-1.32,6.96-3.06,12.42-5.22,16.38-2.16,3.96-4.62,5.94-7.38,5.94l-3.42-2.7Z"/><path d="M145.55,312.39c-1.26-1.08-1.95-2.4-2.07-3.96v-8.28c-.12-1.08-.18-2.34-.18-3.78,0-2.52-.18-6.36-.54-11.52l-.36-11.52c0-5.88,.18-14.64,.54-26.28,.48-10.44,.72-19.2,.72-26.28,0-1.68-.18-4.2-.54-7.56-.36-3.48-.54-6-.54-7.56,0-8.52,2.52-12.78,7.56-12.78,3.96,0,8.55,.78,13.77,2.34,5.22,1.56,7.83,3.42,7.83,5.58,0,1.2-.51,2.31-1.53,3.33-1.02,1.02-2.25,1.83-3.69,2.43-5.04-1.8-9.6-3-13.68-3.6,.12,1.8,.18,4.38,.18,7.74,0,4.8-.06,9.12-.18,12.96-.36,5.76-.54,10.08-.54,12.96l.54,2.88,2.88-.18c.96-.12,2.16-.18,3.6-.18,5.76,0,8.64,1.68,8.64,5.04,0,1.32-.54,2.43-1.62,3.33s-2.46,1.35-4.14,1.35c-2.16,0-3.84-.12-5.04-.36h-4.5c.24,3.12,.36,7.68,.36,13.68s-.06,11.4-.18,16.2c-.36,7.32-.54,12.78-.54,16.38,0,6.72,.12,10.08,.36,10.08l5.94-.18c2.04-.12,4.5-.18,7.38-.18,4.56,0,6.84,1.44,6.84,4.32,0,1.68-.75,2.97-2.25,3.87-1.5,.9-3.33,1.35-5.49,1.35h-15.3c-1.56,0-2.97-.54-4.23-1.62Z"/><path d="M195.95,315.27c-.42-.72-.63-1.68-.63-2.88,0-.84,.18-1.98,.54-3.42l15.66-62.64c10.32-41.64,16.44-65.34,18.36-71.1,.12-.84,.66-1.26,1.62-1.26s1.74,.39,2.34,1.17c.6,.78,.9,1.77,.9,2.97l-.18,1.44c-1.56,8.52-4.8,22.83-9.72,42.93-4.92,20.1-9.84,39.18-14.76,57.24-4.92,18.06-8.52,29.61-10.8,34.65-.36,1.32-.96,1.98-1.8,1.98-.6,0-1.11-.36-1.53-1.08Z"/><path d="M272.72,311.13c0-13.8-1.29-28.08-3.87-42.84-2.58-14.76-6.63-32.82-12.15-54.18-.24-1.2-.78-3.06-1.62-5.58-2.16-6.72-3.24-10.98-3.24-12.78,0-1.08,.45-2.04,1.35-2.88,.9-.84,1.89-1.26,2.97-1.26,1.8,0,3.48,1.5,5.04,4.5,1.56,2.88,3,6.75,4.32,11.61,1.32,4.86,2.76,10.89,4.32,18.09,1.44,6.84,3.18,17.34,5.22,31.5l1.08,7.02,2.16,16.02c.48,4.44,.9,7.62,1.26,9.54,2.52-13.2,5.76-32.28,9.72-57.24,3.24-21.36,5.52-35.94,6.84-43.74h3.96c1.08,0,2.04,.39,2.88,1.17,.84,.78,1.26,1.71,1.26,2.79,0,4.32-.51,8.97-1.53,13.95-1.02,4.98-2.55,10.95-4.59,17.91-1.68,6-2.79,10.5-3.33,13.5-.54,3-1.05,7.74-1.53,14.22-.96,14.52-2.46,27.54-4.5,39.06-1.32,6.96-3.06,12.42-5.22,16.38-2.16,3.96-4.62,5.94-7.38,5.94l-3.42-2.7Z"/><path d="M326.27,312.39c-1.26-1.08-1.95-2.4-2.07-3.96v-8.28c-.12-1.08-.18-2.34-.18-3.78,0-2.52-.18-6.36-.54-11.52l-.36-11.52c0-5.88,.18-14.64,.54-26.28,.48-10.44,.72-19.2,.72-26.28,0-1.68-.18-4.2-.54-7.56-.36-3.48-.54-6-.54-7.56,0-8.52,2.52-12.78,7.56-12.78,3.96,0,8.55,.78,13.77,2.34,5.22,1.56,7.83,3.42,7.83,5.58,0,1.2-.51,2.31-1.53,3.33-1.02,1.02-2.25,1.83-3.69,2.43-5.04-1.8-9.6-3-13.68-3.6,.12,1.8,.18,4.38,.18,7.74,0,4.8-.06,9.12-.18,12.96-.36,5.76-.54,10.08-.54,12.96l.54,2.88,2.88-.18c.96-.12,2.16-.18,3.6-.18,5.76,0,8.64,1.68,8.64,5.04,0,1.32-.54,2.43-1.62,3.33s-2.46,1.35-4.14,1.35c-2.16,0-3.84-.12-5.04-.36h-4.5c.24,3.12,.36,7.68,.36,13.68s-.06,11.4-.18,16.2c-.36,7.32-.54,12.78-.54,16.38,0,6.72,.12,10.08,.36,10.08l5.94-.18c2.04-.12,4.5-.18,7.38-.18,4.56,0,6.84,1.44,6.84,4.32,0,1.68-.75,2.97-2.25,3.87-1.5,.9-3.33,1.35-5.49,1.35h-15.3c-1.56,0-2.97-.54-4.23-1.62Z"/><path d="M397.64,306.09c-2.52-6.24-4.38-12.66-5.58-19.26l-1.26-6.12c-3.48-17.16-5.7-26.94-6.66-29.34h-2.16c0,3.48-.06,6.66-.18,9.54v9.9c0,16.08,1.14,28.62,3.42,37.62l-1.98,4.86h-5.04l-2.34-2.7,.18-12.06c0-10.8-.54-27.18-1.62-49.14-.96-23.4-1.44-39.78-1.44-49.14,0-5.76,1.98-8.64,5.94-8.64,6.48,0,11.79,1.68,15.93,5.04,4.14,3.36,6.21,8.04,6.21,14.04v12.6c0,1.8-.3,3.87-.9,6.21-.6,2.34-1.26,4.23-1.98,5.67l-3.42,6.48-2.88,5.4,.9,4.32,2.52,12.78c1.68,9.24,3.3,16.74,4.86,22.5,1.56,5.76,3.48,10.98,5.76,15.66l1.08,2.16c1.2,2.4,1.8,4.32,1.8,5.76,0,1.2-.36,2.25-1.08,3.15-.72,.9-1.68,1.35-2.88,1.35-2.64,0-5.04-2.88-7.2-8.64Zm-8.19-74.43c1.86-5.94,2.79-11.43,2.79-16.47,0-3.84-.48-7.44-1.44-10.8-.6-1.92-1.59-3.39-2.97-4.41-1.38-1.02-3.09-1.53-5.13-1.53l-.36,.9-.36,1.62,.36,21.24c.24,6.24,.36,13.02,.36,20.34,2.64-1.32,4.89-4.95,6.75-10.89Z"/></g></g></g></svg>