<?xml version="1.0" encoding="UTF-8"?><svg id="Layer_2" xmlns="http://www.w3.org/2000/svg" viewBox="0 0 500 500"><defs><style>.cls-1{fill:#ff758c;}.cls-2{fill:#dfeeff;}</style></defs><g id="Layer_11"><g><circle class="cls-1" cx="250" cy="250" r="250"/><path class="cls-2" d="M204.51,18.6c-35.72,6.82-69.95,34.55-72.6,70.82-.86,11.76,1.37,24.47-4.53,34.67-7.39,12.78-23.91,15.97-37.81,20.94-30.2,10.8-54.77,36.23-64.54,66.77-5.25,16.41-6.12,35.19,2.42,50.15,8.21,14.39,24.04,23.58,30.83,38.69,11.83,26.33-8.57,56.61-4.71,85.21,2.37,17.55,14.64,33.42,31.03,40.14,18.55,7.6,39.93,3.7,59.19,9.22,22.17,6.36,38.86,24.23,58.64,36.09,41.17,24.69,97.69,20.48,134.76-10.02,26.86-22.11,42.76-55.11,68.76-78.22,28.38-25.22,70.86-42.34,77.16-79.78,8.32-49.5-55.34-86.77-53.81-136.94,.66-21.67,13.8-42.94,8.26-63.89-3.95-14.95-16.64-25.92-29.77-34.1-30.06-18.73-64.42-22.28-97.08-33.96-34.57-12.36-68.86-22.92-106.2-15.79Z"/><g><path d="M80.8,311.13c-1.08-.72-1.62-1.74-1.62-3.06,0-3.84,.51-8.13,1.53-12.87,1.02-4.74,2.49-10.41,4.41-17.01l1.8-7.02c1.68-6.72,2.52-12.54,2.52-17.46,0-3.48-1.53-12.06-4.59-25.74-3.06-13.68-5.25-21.48-6.57-23.4v-1.98c-1.2-1.08-1.8-2.58-1.8-4.5,0-1.08,.54-1.95,1.62-2.61,1.08-.66,2.34-.99,3.78-.99s2.64,1.02,3.6,3.06c1.8,3.36,3.6,9.54,5.4,18.54,.96,4.08,1.62,7.5,1.98,10.26l1.26,6.66,.72-4.32,.54-3.6c.48-2.88,.78-4.8,.9-5.76,.48-3.24,.72-6.36,.72-9.36v-5.94c0-3.36,.57-5.94,1.71-7.74,1.14-1.8,3.27-3.12,6.39-3.96l3.24,4.32c-.84,1.32-1.53,2.94-2.07,4.86-.54,1.92-.81,3.6-.81,5.04-.12,.84-.18,2.7-.18,5.58v1.98c-1.44,3.84-2.94,10.53-4.5,20.07-1.56,9.54-2.34,16.47-2.34,20.79,0,3.72,.81,8.43,2.43,14.13,1.62,5.7,4.05,13.59,7.29,23.67,2.16,6.48,3.24,11.22,3.24,14.22,0,1.2-.48,2.25-1.44,3.15-.96,.9-2.1,1.35-3.42,1.35-2.04,0-3.84-2.16-5.4-6.48-1.56-3.6-2.88-8.16-3.96-13.68-1.44-6.72-2.28-11.22-2.52-13.5l-.9-4.14-1.62,13.32c-.72,6.6-1.68,12.12-2.88,16.56v1.98c0,4.44-1.56,6.66-4.68,6.66-1.44,0-2.7-.36-3.78-1.08Z"/><path d="M130.93,312.39c-1.26-1.08-1.95-2.4-2.07-3.96v-8.28c-.12-1.08-.18-2.34-.18-3.78,0-2.52-.18-6.36-.54-11.52l-.36-11.52c0-5.88,.18-14.64,.54-26.28,.48-10.44,.72-19.2,.72-26.28,0-1.68-.18-4.2-.54-7.56-.36-3.48-.54-6-.54-7.56,0-8.52,2.52-12.78,7.56-12.78,3.96,0,8.55,.78,13.77,2.34,5.22,1.56,7.83,3.42,7.83,5.58,0,1.2-.51,2.31-1.53,3.33-1.02,1.02-2.25,1.83-3.69,2.43-5.04-1.8-9.6-3-13.68-3.6,.12,1.8,.18,4.38,.18,7.74,0,4.8-.06,9.12-.18,12.96-.36,5.76-.54,10.08-.54,12.96l.54,2.88,2.88-.18c.96-.12,2.16-.18,3.6-.18,5.76,0,8.64,1.68,8.64,5.04,0,1.32-.54,2.43-1.62,3.33s-2.46,1.35-4.14,1.35c-2.16,0-3.84-.12-5.04-.36h-4.5c.24,3.12,.36,7.68,.36,13.68s-.06,11.4-.18,16.2c-.36,7.32-.54,12.78-.54,16.38,0,6.72,.12,10.08,.36,10.08l5.94-.18c2.04-.12,4.5-.18,7.38-.18,4.56,0,6.84,1.44,6.84,4.32,0,1.68-.75,2.97-2.25,3.87-1.5,.9-3.33,1.35-5.49,1.35h-15.3c-1.56,0-2.97-.54-4.23-1.62Z"/><path d="M181.33,315.27c-.42-.72-.63-1.68-.63-2.88,0-.84,.18-1.98,.54-3.42l15.66-62.64c10.32-41.64,16.44-65.34,18.36-71.1,.12-.84,.66-1.26,1.62-1.26s1.74,.39,2.34,1.17c.6,.78,.9,1.77,.9,2.97l-.18,1.44c-1.56,8.52-4.8,22.83-9.72,42.93-4.92,20.1-9.84,39.18-14.76,57.24-4.92,18.06-8.52,29.61-10.8,34.65-.36,1.32-.96,1.98-1.8,1.98-.6,0-1.11-.36-1.53-1.08Z"/><path d="M241.9,311.13c-1.08-.72-1.62-1.74-1.62-3.06,0-3.84,.51-8.13,1.53-12.87,1.02-4.74,2.49-10.41,4.41-17.01l1.8-7.02c1.68-6.72,2.52-12.54,2.52-17.46,0-3.48-1.53-12.06-4.59-25.74-3.06-13.68-5.25-21.48-6.57-23.4v-1.98c-1.2-1.08-1.8-2.58-1.8-4.5,0-1.08,.54-1.95,1.62-2.61,1.08-.66,2.34-.99,3.78-.99s2.64,1.02,3.6,3.06c1.8,3.36,3.6,9.54,5.4,18.54,.96,4.08,1.62,7.5,1.98,10.26l1.26,6.66,.72-4.32,.54-3.6c.48-2.88,.78-4.8,.9-5.76,.48-3.24,.72-6.36,.72-9.36v-5.94c0-3.36,.57-5.94,1.71-7.74,1.14-1.8,3.27-3.12,6.39-3.96l3.24,4.32c-.84,1.32-1.53,2.94-2.07,4.86-.54,1.92-.81,3.6-.81,5.04-.12,.84-.18,2.7-.18,5.58v1.98c-1.44,3.84-2.94,10.53-4.5,20.07-1.56,9.54-2.34,16.47-2.34,20.79,0,3.72,.81,8.43,2.43,14.13,1.62,5.7,4.05,13.59,7.29,23.67,2.16,6.48,3.24,11.22,3.24,14.22,0,1.2-.48,2.25-1.44,3.15-.96,.9-2.1,1.35-3.42,1.35-2.04,0-3.84-2.16-5.4-6.48-1.56-3.6-2.88-8.16-3.96-13.68-1.44-6.72-2.28-11.22-2.52-13.5l-.9-4.14-1.62,13.32c-.72,6.6-1.68,12.12-2.88,16.56v1.98c0,4.44-1.56,6.66-4.68,6.66-1.44,0-2.7-.36-3.78-1.08Z"/><path d="M292.03,312.39c-1.26-1.08-1.95-2.4-2.07-3.96v-8.28c-.12-1.08-.18-2.34-.18-3.78,0-2.52-.18-6.36-.54-11.52l-.36-11.52c0-5.88,.18-14.64,.54-26.28,.48-10.44,.72-19.2,.72-26.28,0-1.68-.18-4.2-.54-7.56-.36-3.48-.54-6-.54-7.56,0-8.52,2.52-12.78,7.56-12.78,3.96,0,8.55,.78,13.77,2.34,5.22,1.56,7.83,3.42,7.83,5.58,0,1.2-.51,2.31-1.53,3.33-1.02,1.02-2.25,1.83-3.69,2.43-5.04-1.8-9.6-3-13.68-3.6,.12,1.8,.18,4.38,.18,7.74,0,4.8-.06,9.12-.18,12.96-.36,5.76-.54,10.08-.54,12.96l.54,2.88,2.88-.18c.96-.12,2.16-.18,3.6-.18,5.76,0,8.64,1.68,8.64,5.04,0,1.32-.54,2.43-1.62,3.33s-2.46,1.35-4.14,1.35c-2.16,0-3.84-.12-5.04-.36h-4.5c.24,3.12,.36,7.68,.36,13.68s-.06,11.4-.18,16.2c-.36,7.32-.54,12.78-.54,16.38,0,6.72,.12,10.08,.36,10.08l5.94-.18c2.04-.12,4.5-.18,7.38-.18,4.56,0,6.84,1.44,6.84,4.32,0,1.68-.75,2.97-2.25,3.87-1.5,.9-3.33,1.35-5.49,1.35h-15.3c-1.56,0-2.97-.54-4.23-1.62Z"/><path d="M406.06,309.87v-23.04c0-6-.42-13.86-1.26-23.58-.96-10.92-1.44-18.42-1.44-22.5l.36-11.16c.24-3.24,.36-6.9,.36-10.98-.48,1.56-2.46,9.84-5.94,24.84-3.48,14.52-7.08,27.96-10.8,40.32-3.6,11.88-6.54,17.82-8.82,17.82s-4.11-.69-5.49-2.07c-1.38-1.38-2.07-3.27-2.07-5.67,0-5.28-2.13-16.5-6.39-33.66-4.26-17.16-8.13-31.2-11.61-42.12l-1.08,20.34c-.96,17.16-1.62,31.44-1.98,42.84-.24,11.04-.36,18.6-.36,22.68,0,.96,.06,1.86,.18,2.7v2.52c0,2.04-.42,3.57-1.26,4.59-.84,1.02-2.4,1.53-4.68,1.53-1.2,0-2.34-.45-3.42-1.35s-1.62-1.89-1.62-2.97c0-12.24,.9-30.6,2.7-55.08,1.8-24.48,2.7-42.84,2.7-55.08-.72-1.08-1.08-2.22-1.08-3.42,0-1.44,.69-2.55,2.07-3.33,1.38-.78,3.03-1.17,4.95-1.17,1.56,0,4.44,5.64,8.64,16.92,4.2,11.28,8.4,24.06,12.6,38.34,4.2,14.28,6.9,24.6,8.1,30.96,.96-3.24,1.74-6.24,2.34-9l1.08-4.32c3.84-16.8,7.68-31.98,11.52-45.54,2.28-8.28,4.5-14.76,6.66-19.44,2.16-5.04,4.14-7.56,5.94-7.56,1.68,0,3.21,.45,4.59,1.35,1.38,.9,2.07,2.07,2.07,3.51,0,8.64,.36,21.6,1.08,38.88,.84,16.08,1.26,28.56,1.26,37.44l-.18,9.54-.36,9.54c0,1.44,.18,3.6,.54,6.48l.54,6.3c.12,1.08,.21,1.92,.27,2.52,.06,.6,.09,.96,.09,1.08,.6,1.56,.9,2.7,.9,3.42,0,2.04-.6,3.84-1.8,5.4-1.2,1.56-2.64,2.34-4.32,2.34-3.72,0-5.58-3.72-5.58-11.16Z"/></g></g></g></svg>