<?xml version="1.0" encoding="UTF-8"?><svg id="Layer_2" xmlns="http://www.w3.org/2000/svg" viewBox="0 0 997.28 741.51"><defs><style>.cls-1{fill:#e02947;}.cls-2,.cls-3{fill:#fff;}.cls-4{fill:#ffead4;}.cls-5{fill:#ffd0bb;}.cls-6{fill:#131313;}.cls-7{fill:#ff758c;}.cls-8{fill:#f7a39c;}.cls-9{fill:#f45372;}.cls-3{stroke:#ff758c;stroke-linecap:round;stroke-linejoin:round;stroke-width:10px;}.cls-10{fill:#c2adff;}.cls-11{fill:#ff8a8a;}</style></defs><g id="QOTD"><g><path class="cls-4" d="M977.76,213.35c-16.81-37.62-35.36-75.48-66.47-102.67-34.17-29.87-84.6-42.06-125.76-19.08-19.5,10.89-37.1,28.93-59.44,28.65-28.39-.35-46.39-29.11-67.82-47.74-24.58-21.37-57.77-30.75-90.31-32.21-51.79-2.31-105.79,8.54-152.32,31.31-41.9,20.51-93.83,49.99-106.7,97.06-5.22,19.1-5.35,39.07-3.83,58.62,1.99,25.75,9.81,43.91,27.29,62.65,15.88,17.02,37.85,35.32,37.55,60.66-.67,57.44-61.43,97.09-83.47,150.85-20.96,51.14-4.01,109.47,25.14,155.4,47.07,74.17,128.95,107.16,214.78,68.08,29.18-13.28,54.98-32.79,77.83-54.88,19.97-19.31,38.48-53.17,66.13-62.25,33.66-11.06,65.67,18.85,97.07,25.04,34.86,6.87,72.67,1.9,104.3-15.39,49.55-27.08,81.43-82.98,78.54-137.73-1.52-28.83-11.76-55.9-19.92-83.21-7.66-25.63-7.58-43.32,18.73-58.45,12.05-6.93,25.41-12.41,34.73-22.61,11.49-12.57,14.9-30.56,12.93-47.04-1.98-16.49-8.73-31.91-15.43-47.05-1.18-2.67-2.37-5.34-3.56-8.01Z"/><path class="cls-6" d="M947.76,173.35c-16.81-37.62-35.36-75.48-66.47-102.67-34.17-29.87-84.6-42.06-125.76-19.08-19.5,10.89-37.1,28.93-59.44,28.65-28.39-.35-46.39-29.11-67.82-47.74C603.69,11.14,570.5,1.76,537.96,.31c-51.79-2.31-105.79,8.54-152.32,31.31-41.9,20.51-93.83,49.99-106.7,97.06-5.22,19.1-5.35,39.07-3.83,58.62,1.99,25.75,9.81,43.91,27.29,62.65,15.88,17.02,37.85,35.32,37.55,60.66-.67,57.44-61.43,97.09-83.47,150.85-20.96,51.14-4.01,109.47,25.14,155.4,47.07,74.17,128.95,107.16,214.78,68.08,29.18-13.28,54.98-32.79,77.83-54.88,19.97-19.31,38.48-53.17,66.13-62.25,33.66-11.06,65.67,18.85,97.07,25.04,34.86,6.87,72.67,1.9,104.3-15.39,49.55-27.08,81.43-82.98,78.54-137.73-1.52-28.83-11.76-55.9-19.92-83.21-7.66-25.63-7.58-43.32,18.73-58.45,12.05-6.93,25.41-12.41,34.73-22.61,11.49-12.57,14.9-30.56,12.93-47.04-1.98-16.49-8.73-31.91-15.43-47.05-1.18-2.67-2.37-5.34-3.56-8.01Z"/><path class="cls-10" d="M237.55,183.7c-28.61-.3-58.94,3.87-83.45,15.78-25.62,12.45-46.7,38.88-43.74,67.21,1.74,16.65,11.07,34.71,2.21,48.91-11.34,18.17-36.2,20.13-53.38,29.88-13.44,7.63-23.85,19.82-31.63,33.18-33.52,57.57-47.44,172.46,23.06,209.66,19.97,10.54,44.15,12.82,65.74,6.19,9.02-2.77,17.58-7.01,26.8-9.01,48.55-10.5,66.65,64.16,93.38,90.02,26.48,25.63,67.41,30.16,103.77,24.18,25.61-4.21,51.3-13.43,69.78-31.65,21.3-21,30.69-52.12,29.58-82.01-1.11-29.89-11.81-58.73-25.95-85.09-5.15-9.6-10.95-19.72-10.05-30.57,1.41-17.12,18.11-27.98,30.42-39.97,21.42-20.85,32.28-52.04,28.45-81.68-3.83-29.64-22.26-57.04-48.27-71.77-21.73-12.3-48.67-16.65-73.34-17.11-5.94-.11-12.12,0-17.51-2.48-11.64-5.37-14.91-20.05-16.9-32.71-3.94-25.06-16.45-36.65-41.73-39.36-8.71-.93-17.88-1.51-27.22-1.6Z"/><path class="cls-9" d="M403.96,363.14c6.32,25.95-10.24,55.36-35.7,63.43-25.46,8.07-55.93-6.45-65.71-31.29-9.16,21.93-34.55,31.77-57.83,36.54-8.93,1.83-18.13,3.25-27.14,1.8s-17.88-6.19-22.31-14.15c5.47,37.61,10.94,75.29,12.85,113.25,.81,16.09,.91,32.66-4.74,47.74-7.08,18.87-23.4,34.07-42.78,39.61-19.38,5.54-41.35,1.23-57.1-11.35-26.43-21.11-31.5-58.98-31.22-92.81-20.39-5.05-33.96-25.98-35.93-46.89-1.97-20.91,5.52-41.59,15.04-60.31,23.13-45.48,59.54-84.48,104.49-108.63,44.95-24.15,98.39-32.95,148.26-22.2,15.72,3.39,31.44,8.89,43.58,19.43,12.06,10.48,20.74,23.12,34.03,32.29,11.26,7.77,18.95,20.15,22.21,33.55Z"/><path class="cls-9" d="M401.01,420.76c-4.49-17.27-9.25-34.7-17.25-50.74-7.61-15.26-14.87-16.63-26.45-11.03,3.57,11.27,5.62,23.15,7.18,33.19,4.11,26.39,4.69,53.73-2.36,79.49-7.05,25.76-22.32,49.89-44.9,64.15-20.3,12.81-45.44,16.93-69.23,13.69-5.1-.7-10.13-1.73-15.1-3.03,.11,5.68,.51,11.37,1.26,17.02,1.57,11.99,4.92,24.43,13.51,32.94,10.91,10.82,27.85,12.87,43.12,11.21,30.43-3.31,58.68-18.98,80.61-40.33,18.53-18.04,33.25-40.84,37.91-66.28,4.89-26.69-1.48-54.03-8.3-80.29Z"/><g><path class="cls-4" d="M384.7,383.62c-1.57-10.05-3.62-21.93-7.18-33.19-4.43-13.97-11.19-27-22.28-34.42-20.04-13.4-38.03-23.62-63.3-20.88-23.97,2.61-45.99,14.54-65.5,28.71-24.79,18.02-47.11,40.7-59.32,68.81-12.21,28.11-13.05,62.24,2.88,88.43,2.06,3.38,4.36,6.59,6.86,9.64,1.53-4.48,3.95-8.51,7.43-11.74,15.88-14.7,55.33-28.56,72.01-8.9,3.55,4.19,5.51,9.52,6.58,14.91,2.89,14.49-.37,30.11-8.83,42.23-2.22,3.18-4.8,6.11-7.65,8.74,2.22,.71,4.46,1.36,6.72,1.95,4.96,1.3,10,2.34,15.1,3.03,23.79,3.24,48.93-.88,69.23-13.69,22.59-14.26,37.85-38.39,44.9-64.15,7.05-25.76,6.48-53.1,2.36-79.49Z"/><path class="cls-5" d="M254.04,527.22c8.46-12.12,11.73-27.74,8.83-42.23-1.07-5.38-3.03-10.72-6.58-14.91-16.68-19.66-56.13-5.79-72.01,8.9-3.48,3.22-5.91,7.25-7.43,11.74,7.22,8.82,16.09,16.34,25.44,22.92,13.51,9.51,28.38,17.31,44.09,22.32,2.85-2.63,5.43-5.56,7.65-8.74Z"/></g><path class="cls-5" d="M353.23,471.44c-5.37,10.82-8.38,22.81-8.73,34.88-.31,10.43,1.48,21.26,7.3,29.92s16.24,14.69,26.57,13.25c5.34-.74,10.27-3.36,14.55-6.64,14.08-10.77,21.6-28.77,21.88-46.49,.47-30.19-44.22-59.85-61.56-24.93Z"/><path class="cls-1" d="M420.22,412.19c-4.49-17.27-9.25-34.7-17.25-50.74-7.61-15.26-14.87-16.63-26.45-11.03,3.57,11.27,5.62,23.15,7.18,33.19,4.11,26.39,4.69,53.73-2.36,79.49-7.05,25.76-22.32,49.89-44.9,64.15-20.3,12.81-45.44,16.93-69.23,13.69-5.1-.7-10.13-1.73-15.1-3.03,.11,5.68,.51,11.37,1.26,17.02,1.57,11.99,4.92,24.43,13.51,32.94,10.91,10.82,27.85,12.87,43.12,11.21,30.43-3.31,58.68-18.98,80.61-40.33,18.53-18.04,33.25-40.84,37.91-66.28,4.89-26.69-1.48-54.03-8.3-80.29Z"/><path class="cls-1" d="M417.17,349.57c6.32,25.95-10.24,55.36-35.7,63.43s-55.93-6.45-65.71-31.29c-9.16,21.93-34.55,31.77-57.83,36.54-8.93,1.83-18.13,3.25-27.14,1.8s-17.88-6.19-22.31-14.15c5.47,37.61,10.94,75.29,12.85,113.25,.81,16.09,.91,32.66-4.74,47.74-7.08,18.87-23.4,34.07-42.78,39.61s-41.35,1.23-57.1-11.35c-26.43-21.11-31.5-58.98-31.22-92.81-20.39-5.05-33.96-25.98-35.93-46.89-1.97-20.91,5.52-41.59,15.04-60.31,23.13-45.48,59.54-84.48,104.49-108.63,44.95-24.15,98.39-32.95,148.26-22.2,15.72,3.39,31.44,8.89,43.58,19.43,12.06,10.48,20.74,23.12,34.03,32.29,11.26,7.77,18.95,20.15,22.21,33.55Z"/><path class="cls-8" d="M321.37,457.23c-.18,3.56-.12,7.13,.19,10.68,.26,2.92,.62,6.24,3.18,8.1,2.19,1.59,5.55,1.41,6.94-1.15s.42-6.09-.59-8.64c-1.31-3.31-3.3-6.24-5.34-9.14-.82-1.17-2.78-.82-2.8,.76-.02,2.87-.04,5.74-.06,8.61-.02,2.17-.41,5.26,2.03,6.33,2.04,.9,4.32-.72,4.92-2.69,.74-2.44-1.05-4.69-2.59-6.36-.76-.82-2.24-.41-2.51,.66-.77,3.12-.25,6.44,1.54,9.12,.53,.79,1.65,1.02,2.36,.3,2.07-2.1,2.07-5.66-.06-7.73-.61-.6-1.5-.54-2.12,0-2.66,2.28-2.62,7,.18,9.17,.94,.72,2.07,.47,2.51-.66,.98-2.51,.69-5.35-.66-7.66-.97-1.67-3.57-.16-2.59,1.51s1.06,3.56,.36,5.35l2.51-.66c-1.58-1.22-1.72-3.6-.18-4.93h-2.12c.96,.93,1.01,2.52,.06,3.49l2.36,.3c-1.35-2.03-1.82-4.44-1.23-6.81l-2.51,.66c.72,.78,2.22,2.22,1.82,3.44-.08,.25-.47,.78-.8,.75-.15-.02-.21-.41-.25-.66-.22-1.78,0-3.71,0-5.51,.02-2.01,.03-4.02,.05-6.03l-2.8,.76c1.85,2.63,3.75,5.3,4.99,8.28,.58,1.4,1.07,2.95,1.18,4.47,.07,.96,.07,2.48-1.14,2.7-1.04,.19-2.05-.59-2.55-1.43-.74-1.25-.89-2.77-1.03-4.19-.36-3.73-.43-7.47-.24-11.21,.1-1.93-2.9-1.92-3,0h0Z"/><path class="cls-6" d="M252.36,451.72c-.96,.27-1.94,.64-2.61,1.38-1.63,1.77-.76,4.67,.65,6.61,3.89,5.37,22.5,11.56,22.13,1.72-.56-14.87-14.62-11.29-20.17-9.71Z"/><path class="cls-6" d="M363.09,457.81c.96-1.58,1.94-3.53,1.1-5.18-.34-.66-.93-1.15-1.53-1.58-3.06-2.21-6.99-3.38-10.7-2.65-3.71,.73-7.06,3.53-7.96,7.19s1.06,7.97,4.61,9.28c4.3,1.59,8.92-1.27,12.27-4.39"/><path class="cls-1" d="M243.72,439.22c1.73,3.04,5.88,3.49,9.37,3.3,5.06-.28,36.92-6.15,22.09-12.99-6.37-2.93-39.34-4.16-31.46,9.69Z"/><path class="cls-1" d="M377.43,442.43c-.7,1.25-2.12,1.92-3.5,2.31-7.8,2.25-15.98-1.66-22.72-6.18-10.62-7.11,2.4-9.66,8.95-8.84,4.54,.57,21.22,5.65,17.27,12.71Z"/><path class="cls-11" d="M317.97,491.56c6-1,21.35-5.31,23,0s-2.07,14.07-6,18c-3,3-10,6-14,6-5.57,0-13,0-19-2s-16.89-6.59-10-16c4.84-6.6,18.25-4.71,26-6Z"/><path class="cls-2" d="M308.43,493.5c-1.09,.11-2.21,.22-3.21,.76s-1.86,1.6-1.97,2.89c-.13,1.51,.81,2.93,1.96,3.6s2.47,.74,3.75,.74c4.22-.01,8.81-.1,13-.92,4.52-.88,13.94-1.97,14-8,.05-4.8-10-1-12.74-.51-4.88,.88-9.87,.96-14.8,1.45Z"/><path class="cls-5" d="M200.05,533.89c6.62-9.67,15.43-17.84,25.57-23.71,3.21-1.86,6.65-3.52,10.35-3.84s7.71,.94,9.88,3.95c4,5.56,.05,13.19-3.85,18.82,13.49-4.54,28.05-5.06,42.24-3.93,8.19,.65,17.22,2.34,22.14,8.92,4.11,5.5,4.16,13.3,1.46,19.62s-7.75,11.34-13.22,15.5c-13.63,10.37-30.68,16.31-47.8,16.15-7.37-.07-14.81-1.27-21.56-4.23-10.11-4.44-17.95-12.51-24.65-21.07-7.39-9.44-7.72-15.71-.56-26.17Z"/><path class="cls-4" d="M194.06,537.91c6.62-9.67,15.43-17.84,25.57-23.71,3.21-1.86,6.65-3.52,10.35-3.84s7.71,.94,9.88,3.95c4,5.56,.05,13.19-3.85,18.82,13.49-4.54,28.05-5.06,42.24-3.93,8.19,.65,17.22,2.34,22.14,8.92,4.11,5.5,4.16,13.3,1.46,19.62s-7.75,11.34-13.22,15.5c-13.63,10.37-30.68,16.31-47.8,16.15-7.37-.07-14.81-1.27-21.56-4.23-10.11-4.44-17.95-12.51-24.65-21.07-7.39-9.44-7.72-15.71-.56-26.17Z"/><g><path class="cls-7" d="M173.31,399.11c.95,10.05,.35,20.41,.59,30.52,.25,10.52-.28,21.15-1.08,31.64s-2.34,20.14-4.27,30.14-5.72,21.14-6.42,31.75c-.81,12.23,16.84,13.39,20.44,2.77,1.78-5.26,2-11.42,2.59-16.93,.54-5.05,.79-10.13,1-15.2,.44-10.83,.29-21.69,.03-32.52s-1.16-21.1-2.21-31.64-3.85-20.78-5.89-31.17c-.52-2.66-5.05-2.1-4.79,.65h0Z"/><path class="cls-7" d="M385.45,325.6c2.79,5.87,2.54,13.62,2.47,20.02s-.59,13.36-3.08,19.56c-1.84,4.59-4.85,8.88-8.7,12.01-4.76,3.87-11.24,4.02-14.58,9.5-2.28,3.74-.96,9.4,3.01,11.48,8.14,4.27,17.24-2.13,23.08-7.88,5.52-5.44,9.54-12.49,11.71-19.9,4.63-15.81,1.68-35.67-9.64-48.07-2.2-2.41-5.53,.65-4.27,3.29h0Z"/><path class="cls-7" d="M282.83,345.49c2.24,13.35-4.25,28.3-13.97,37.29-10.04,9.28-23.69,13.46-37.06,14.25-6.02,.36-9.58,5.31-8.47,11.12,2.46,12.89,21.35,7.22,29.49,4.53,10.21-3.37,19.68-8.69,27.15-16.51,14.06-14.71,18.89-35.17,10.31-53.83-2.07-4.51-8.16-1.06-7.45,3.14h0Z"/><path class="cls-7" d="M404.73,432.97c2.38,29.55-11.49,60.01-28.08,83.71-7.79,11.14-16.87,21.46-27.37,30.13-4.94,4.08-10.41,7.6-16.11,10.53-6.24,3.21-12.81,4.41-19.29,6.87-4.55,1.73-7.79,5.65-7.02,10.75,.69,4.57,4.67,8.75,9.62,8.49,15.91-.83,31.83-11.48,43.62-21.43,11.87-10.02,21.82-22.37,30.28-35.35,9.07-13.93,16.32-29.1,20.64-45.19s4.17-32.96,1.45-49.57c-.71-4.35-8.09-3.37-7.73,1.05h0Z"/><path class="cls-7" d="M208.4,296.73c-14.51,7.35-28.2,15.12-40.81,25.47-12.59,10.34-23.79,22.07-33.73,34.96-19.79,25.68-34.28,56.05-40.3,88-3.39,18.01-6,39-2.03,57.12,3.18,14.5,26.65,8.23,22.34-6.16-.88-2.92-2.08-5.01-4.06-7.32-3.51-4.1-10.24-3.41-13.85,0-2.27,2.14-3.25,4.49-4.42,7.32l22.75,3.08c-.5-7.5-2.04-14.86-2.39-22.4s-.13-15.49,.63-23.22c1.45-14.6,5.12-28.98,9.92-42.82,9.91-28.56,27.71-54.04,48.83-75.42,12.09-12.24,25.6-24.21,40.15-33.43,3.28-2.08,.41-6.92-3.03-5.18h0Z"/></g><path class="cls-7" d="M867.07,103.62c-1.96,12.18-3.96,24.53-8.74,35.65-4.78,11.13-12.78,21.08-23.24,24.74,5.52,11.35,.97,26.32-7.59,34.93-8.55,8.61-20.1,12.21-31.31,14.82-20.69,4.81-41.82,7.16-62.94,7-11.97-.09-25.12-1.56-33.52-11.21-5.53-6.35-8.05-15.27-9.71-23.99-3.02-15.85-3.8-32.24-2.3-48.37,.95-10.23,3.17-21.1,9.93-27.99,6.75-6.87,16.44-8.23,25.48-9.14,27.85-2.8,55.8-4.3,83.76-4.5,3.29-.02,6.69,0,9.71,1.45,12.4,5.97,4.31,27.11,13.98,31.47s30.99-17.36,36.5-24.87Z"/><path class="cls-7" d="M414.53,201.87c7.1,9.93,16.24,20.93,28.44,20.52-2.52,3.83-.29,9.34,3.54,11.86s8.67,2.82,13.25,2.88c15.79,.19,31.58-1.56,47-4.99,3.59-.8,7.25-1.73,10.28-3.81,5.1-3.5,7.69-9.84,8.01-16.02s-1.35-12.28-3.25-18.16c-.76-2.36-1.66-4.85-3.59-6.41-1.86-1.5-4.37-1.88-6.75-2.15-16.38-1.85-33.05-1.01-49.17,2.46-4.97,1.07-10.08,2.49-13.87,5.87-7.15,6.36-.7,12.08-10.24,14.54-7.54,1.95-17.74-2.14-23.64-6.59Z"/><path class="cls-3" d="M470.28,448.29c19.78,5.21,41.09,4.47,60.47-2.09,32.23,88.36,138.61,62.25,204.23,42.36,24.69-7.48,44.29-21.14,58-43,14.83-23.64,12.66-65.14,11-93-2.59-43.37,2.24-108.86-29.05-139-52.95-51-178.96-28.16-214.64-18.78-24.07,6.33-49.61,16.72-61.27,38.71-8.28,15.6-10.93,55.44-10.04,73.08,1.79,35.8,7.9,50.2,17,85,3.31,12.66,4.06,23.12-3.76,35.61-4.92,7.85-21.03,23.99-31.94,21.12Z"/><path class="cls-1" d="M604.5,348.38c-6.96-9.4-9.64-21.32-4.44-32.3,6.05-12.76,20.67-18.97,33.71-21.66,14.04-2.9,30.44-3.05,39.43,9.97,3.59,5.2,6.75,12.69,5.56,19.14-1.31,7.11-10.26,11.13-16.09,13.87-3.92,1.85-7.99,3.34-12.03,4.89s-8.66,2.74-11.89,5.56c-7.39,6.46-3.8,18.99-3.12,27.58,.98,12.43,18.86,10.29,17.03-2.31-.38-2.65-.77-5.31-1.15-7.96-.19-1.28-.17-5.72-.96-6.71l-.06-.52c-1.4,1.91-1.48,2.5-.24,1.78,.31,.11,3.08-1.23,3.11-1.24,2.6-1.03,5.22-2.02,7.82-3.06,8.85-3.57,17.76-7.52,24.85-14.09,14.94-13.83,8.56-37.16-3.59-50.63-13.67-15.16-35.01-15.33-53.59-11.28-16.76,3.65-34.32,12.82-42.01,28.95-7.59,15.92-6.25,39.51,12.14,47.18,3.82,1.59,7.94-3.88,5.51-7.16h0Z"/><path class="cls-1" d="M642.01,408.74c.07,3.99,3.32,7.22,7.36,7.17,3.55-.05,6.77-2.43,7.7-5.89,.8-3-.21-6.58-2.6-8.61-1.29-1.1-2.3-1.76-3.96-2.23-1.55-.43-3.48-.36-5,.11-3.34,1.04-5.83,3.62-6.82,6.95-1.22,4.1,.98,8.44,4.47,10.62,2.38,1.48,5.48,1.9,8.18,1.18,1.63-.43,3.21-1.31,4.42-2.48s2.23-2.77,2.66-4.41c.96-3.66-.13-7.75-2.93-10.34-1.31-1.21-2.99-2.29-4.76-2.62-.72-.13-1.67-.3-2.4-.29-1.47,.04-2.91,.45-4.2,1.14-2.14,1.13-3.04,3.04-3.9,5.13-.38,1.42-.38,2.84,0,4.26,.38,1.36,1.07,2.54,2.06,3.54,.95,.84,1.71,1.4,2.83,1.88,.99,.52,2.06,.76,3.21,.72,.12,0,.25,.02,.37,.03l-2.22-.3c.19,.04,.35,.09,.53,.16l-1.99-.84c.17,.09,.32,.19,.48,.3l-1.68-1.3c.15,.13,.27,.26,.4,.42l-1.3-1.68c.11,.16,.21,.32,.29,.49l-.84-1.98c.07,.18,.12,.35,.16,.54l-.3-2.2c.02,.19,.02,.36,0,.55l.3-2.2c-.02,.12-.05,.24-.1,.36l.83-1.97c-.08,.17-.15,.3-.26,.45l1.29-1.67c-.07,.08-.14,.16-.23,.23l1.66-1.29c-.17,.13-.35,.23-.55,.32l1.96-.83c-.16,.05-.31,.09-.47,.12l2.17-.29c-.22,.03-.44,.03-.66,.01l2.17,.29c-.22-.03-.43-.08-.64-.16l1.94,.82c-.2-.09-.38-.19-.56-.32l1.64,1.27c-.13-.11-.23-.22-.33-.35l1.26,1.64c-.06-.09-.12-.18-.16-.28l.81,1.93c-.12-.29-.22-.59-.26-.89l.28,2.11c-.01-.13,0-.25,0-.38l-.28,2.08c.03-.2,.07-.37,.14-.56l-.78,1.84c.11-.25,.23-.46,.39-.67l-1.17,1.52c.13-.15,.26-.28,.42-.41l-1.49,1.15c.16-.11,.31-.2,.5-.29l-1.73,.73c.12-.05,.24-.08,.36-.11l-1.9,.25c.2-.03,.37-.03,.58,0l-1.86-.25,.19,.04-1.66-.7c.13,.05,.24,.11,.35,.19l-1.4-1.08c.16,.13,.29,.26,.43,.42l-1.07-1.39c.12,.17,.2,.33,.29,.52l-.69-1.63c.05,.12,.08,.25,.09,.38l-.24-1.8c.02,.13,.02,.26,0,.38l.24-1.79c-.01,.13-.04,.26-.09,.38l.67-1.6c-.04,.11-.1,.21-.17,.3l1.04-1.35c-.07,.09-.15,.17-.24,.24l1.34-1.03c-.09,.07-.19,.13-.3,.18l1.57-.66c-.17,.07-.32,.11-.5,.13l1.73-.23c-.74,.03-1.46,.11-2.2,.25l1.7-.23c-.1,.01-.19,0-.29,0l1.66,.22-.14-.04,1.47,.62c-.1-.03-.19-.08-.27-.14-3.82-2.51-9.11,.79-9.03,5.18h0Z"/><path class="cls-2" d="M726.35,168.53c1.19,.05,2.31-.2,3.34-.75,1.08-.35,2.01-.95,2.79-1.79,.85-.79,1.44-1.72,1.79-2.79,.54-1.03,.79-2.15,.75-3.34l-.31-2.31c-.41-1.47-1.16-2.74-2.23-3.83l-1.76-1.36c-1.35-.78-2.81-1.18-4.38-1.18-1.19-.05-2.31,.2-3.34,.75-1.08,.35-2.01,.95-2.79,1.79-.85,.79-1.44,1.72-1.79,2.79-.54,1.03-.79,2.15-.75,3.34l.31,2.31c.41,1.47,1.16,2.74,2.23,3.83l1.76,1.36c1.35,.78,2.81,1.18,4.38,1.18h0Z"/><path class="cls-2" d="M761.96,166.35c1.22,.05,2.36-.21,3.41-.76,1.1-.36,2.05-.97,2.85-1.83,.86-.8,1.47-1.75,1.83-2.85,.55-1.06,.81-2.19,.76-3.41l-.32-2.36c-.42-1.5-1.18-2.8-2.28-3.91l-1.79-1.39c-1.38-.8-2.87-1.2-4.47-1.21-1.22-.05-2.36,.21-3.41,.76-1.1,.36-2.05,.97-2.85,1.83-.86,.8-1.47,1.75-1.83,2.85-.55,1.06-.81,2.19-.76,3.41l.32,2.36c.42,1.5,1.18,2.8,2.28,3.91l1.79,1.39c1.38,.8,2.87,1.2,4.47,1.21h0Z"/><path class="cls-2" d="M795.19,163.07c1.26,.05,2.43-.21,3.52-.79,1.13-.37,2.11-1,2.94-1.89,.89-.83,1.52-1.81,1.89-2.94,.57-1.09,.83-2.26,.79-3.52l-.33-2.43c-.43-1.55-1.22-2.89-2.35-4.03l-1.85-1.43c-1.43-.83-2.96-1.24-4.61-1.25-1.26-.05-2.43,.21-3.52,.79-1.13,.37-2.11,1-2.94,1.89-.89,.83-1.52,1.81-1.89,2.94-.57,1.09-.83,2.26-.79,3.52l.33,2.43c.43,1.55,1.22,2.89,2.35,4.03l1.85,1.43c1.43,.83,2.96,1.24,4.61,1.25h0Z"/><path class="cls-2" d="M477.35,197.44c.24,3.74,.93,7.44,2.09,11.01,.23,.71,.89,1.19,1.65,1.07,.68-.1,1.37-.72,1.3-1.47-.37-3.76-1.04-7.49-2.05-11.13-.45-1.62-2.95-1.31-2.95,.4,.01,3.52,.39,7.03,1.12,10.48,.34,1.64,3.06,1.29,2.95-.4-.23-3.55-.78-7.08-1.65-10.52-.16-.64-.8-1.1-1.45-1.1-.6,0-1.36,.46-1.45,1.1-.3,2.11,.09,4.1,.61,6.15s1.01,3.98,1.52,5.98c.43,1.69,2.86,1.25,2.95-.4,.13-2.53-.21-5.05-.74-7.52-.26-1.22-.57-2.43-.89-3.64-.27-1.02-.48-2.18-1.37-2.86-1.07-.82-2.51-.48-3.29,.57-.83,1.13-.46,2.48-.16,3.72,.61,2.46,1.22,4.93,1.82,7.39,.31,1.24,.55,2.56,1.43,3.54,.97,1.09,2.42,1.33,3.72,.74,.48-.22,.72-.81,.74-1.3,.25-5.09-1.01-10.2-3.56-14.61-.97-1.67-3.56-.16-2.59,1.51,2.3,3.98,3.38,8.51,3.15,13.09l.74-1.3c.45-.2,.19,.05,.14-.08,.05,.13-.43-.5-.24-.24-.21-.29-.28-.7-.37-1.04-.29-1.12-.56-2.25-.83-3.38s-.56-2.29-.85-3.43c-.13-.53-.26-1.06-.39-1.58-.07-.26-.13-.53-.2-.79-.02-.08-.06-.55-.1-.59,0-.11-.03-.06-.12,.15-.17,.14-.36,.15-.57,.03-.56-.12-.33-.19-.35,.04-.04,.42,.28,1.04,.39,1.46,.3,1.12,.58,2.24,.82,3.38,.47,2.22,.75,4.45,.64,6.72l2.95-.4c-.46-1.82-.92-3.64-1.38-5.46-.41-1.62-.98-3.38-.74-5.07h-2.89c.81,3.19,1.33,6.44,1.54,9.73l2.95-.4c-.67-3.19-1-6.42-1.01-9.68l-2.95,.4c.94,3.38,1.6,6.84,1.95,10.33l2.95-.4c-1.08-3.32-1.76-6.73-1.98-10.21-.05-.81-.65-1.5-1.5-1.5-.77,0-1.55,.69-1.5,1.5h0Z"/><path class="cls-2" d="M483.78,216.11l-.47-.61-.3-.23c-.17-.11-.36-.17-.56-.18-.13-.04-.27-.04-.4,0-.2,0-.39,.07-.56,.18-.35,.21-.64,.5-.85,.85-.1,.17-.17,.36-.24,.54-.07,.2-.09,.43-.11,.63-.08,.69,.21,1.4,.66,1.91,.28,.31,.64,.5,1.03,.64,.27,.09,.57,.13,.85,.1,.44-.05,.8-.13,1.19-.35s.63-.49,.88-.83c.08-.11,.13-.23,.18-.37,.12-.3,.15-.45,.19-.79,.05-.44-.09-.86-.27-1.25-.13-.27-.33-.53-.56-.73-.33-.28-.67-.5-1.1-.61-.9-.22-1.82,.07-2.47,.73-.14,.15-.27,.32-.39,.49-.06,.08-.11,.17-.15,.27-.09,.19-.18,.4-.23,.6s-.08,.44-.1,.65c-.03,.31,.02,.65,.1,.95,.12,.43,.34,.78,.63,1.12,.18,.22,.43,.41,.68,.53,.41,.2,.75,.29,1.21,.33,.09,0,.17,0,.25,0,.21-.02,.43-.04,.63-.1,.42-.12,.72-.31,1.05-.59,.52-.43,.83-1.21,.77-1.88-.04-.44-.12-.77-.33-1.17-.13-.25-.31-.49-.52-.67-.13-.11-.3-.26-.47-.34-.18-.09-.38-.19-.58-.22-.39-.08-.81-.1-1.19,.04-.18,.06-.36,.13-.52,.24s-.32,.22-.45,.37c-.27,.32-.44,.6-.57,1-.2,.61-.13,1.36,.2,1.9,.19,.32,.48,.62,.82,.79,.26,.13,.44,.19,.72,.22,.29,.04,.47,.04,.78-.03,.18-.04,.36-.13,.53-.21s.32-.22,.46-.34c.06-.05,.11-.1,.16-.15,.12-.15,.26-.31,.35-.49,.08-.17,.17-.34,.21-.52,0-.03,.01-.07,.02-.1,.03-.16,.06-.33,.06-.49s-.03-.31-.06-.46c0-.04-.01-.07-.02-.11-.11-.35-.24-.53-.46-.8-.33-.41-.87-.6-1.38-.62s-1.05,.18-1.41,.53c-.22,.21-.38,.48-.47,.77-.04,.15-.07,.3-.06,.46,0,.11,.03,.32,.05,.42,0,.02,0,.04,.02,.06,.05,.2,.14,.37,.27,.51,.11,.16,.25,.29,.42,.39,.32,.19,.8,.27,1.16,.15s.71-.34,.9-.69,.29-.78,.15-1.16c0-.02-.01-.04-.02-.06l.05,.4s0-.03,0-.04l-.05,.4s0-.04,.01-.06l-.15,.36s.02-.03,.03-.05l-.23,.3s.03-.03,.04-.04l-.3,.23s.06-.04,.1-.06l-.36,.15s.09-.03,.14-.04l-.4,.05s.08,0,.12,0l-.4-.05s.08,.01,.12,.03l-.36-.15s.06,.03,.08,.05l-.3-.23s.07,.06,.1,.1l-.23-.3s.04,.06,.06,.1l-.15-.36s.03,.1,.04,.15l-.05-.4c0,.05,0,.1,0,.16l.05-.4c0,.07-.03,.14-.05,.2l.15-.36c-.03,.08-.08,.16-.13,.23l.23-.3c-.05,.06-.11,.12-.17,.17l.3-.23c-.06,.05-.13,.09-.2,.12l.36-.15c-.06,.02-.12,.04-.18,.05l.4-.05s-.09,0-.14,0l.4,.05c-.06,0-.11-.02-.16-.04l.36,.15s-.08-.05-.12-.07l.3,.23s-.08-.07-.11-.11l.23,.3s-.07-.1-.09-.15l.15,.36c-.03-.06-.04-.13-.05-.2l.05,.4c-.01-.09-.01-.17,0-.26l-.05,.4c.01-.1,.04-.2,.08-.3l-.15,.36c.04-.08,.08-.15,.13-.22l-.23,.3c.04-.05,.09-.1,.15-.15l-.3,.23s.1-.07,.16-.09l-.36,.15c.06-.02,.12-.04,.18-.05l-.4,.05c.07,0,.14,0,.21,0l-.4-.05c.07,.01,.13,.03,.2,.06l-.36-.15c.07,.03,.14,.07,.2,.12l-.3-.23c.07,.06,.13,.12,.19,.19l-.23-.3c.06,.08,.11,.16,.15,.26l-.15-.36c.04,.1,.07,.2,.09,.31l-.05-.4c.01,.09,.01,.18,0,.27l.05-.4c-.01,.08-.03,.16-.06,.23l.15-.36c-.03,.07-.07,.13-.11,.19l.23-.3c-.05,.07-.11,.12-.18,.17l.3-.23c-.07,.06-.15,.1-.24,.14l.36-.15c-.1,.04-.21,.07-.32,.09l.4-.05c-.11,.01-.23,.01-.34,0l.4,.05c-.12-.02-.24-.05-.36-.09l.36,.15c-.1-.04-.18-.09-.27-.16l.3,.23c-.07-.06-.13-.12-.18-.19l.23,.3c-.06-.08-.12-.17-.16-.27l.15,.36c-.05-.12-.08-.24-.1-.37l.05,.4c-.02-.14-.02-.28,0-.42l-.05,.4c.02-.15,.06-.3,.12-.44l-.15,.36c.05-.12,.12-.23,.2-.33l-.23,.3c.08-.1,.17-.19,.27-.27l-.3,.23c.08-.06,.16-.11,.25-.15l-.36,.15c.08-.03,.17-.06,.25-.07l-.4,.05c.07,0,.14,0,.21,0l-.4-.05c.09,.01,.18,.04,.26,.07l-.36-.15c.1,.04,.18,.09,.27,.15l-.3-.23c.08,.06,.15,.14,.22,.22l-.23-.3c.06,.07,.1,.15,.14,.24l-.15-.36c.03,.08,.05,.15,.06,.23l-.05-.4c0,.08,0,.16,0,.24l.05-.4c-.01,.07-.03,.14-.06,.21l.15-.36c-.03,.07-.08,.14-.12,.21l.23-.3c-.06,.07-.12,.13-.19,.19l.3-.23c-.08,.06-.17,.11-.26,.15l.36-.15c-.09,.04-.19,.06-.29,.08l.4-.05c-.09,.01-.18,.01-.27,0l.4,.05c-.08-.01-.16-.03-.23-.06l.36,.15c-.07-.03-.13-.07-.19-.11l.3,.23c-.06-.05-.11-.1-.15-.15l.23,.3c-.05-.06-.09-.13-.12-.21l.15,.36c-.04-.09-.06-.19-.08-.29l.05,.4c-.01-.11-.01-.22,0-.33l-.05,.4c.02-.1,.04-.19,.08-.29l-.15,.36c.03-.07,.07-.14,.12-.21l-.23,.3c.05-.06,.1-.12,.17-.17l-.3,.23s.06-.04,.09-.06l-1.82-.23,.47,.61c.14,.15,.3,.25,.48,.31,.18,.09,.37,.14,.58,.13,.37,0,.81-.16,1.06-.44s.46-.66,.44-1.06l-.05-.4c-.07-.25-.2-.47-.39-.66h0Z"/></g></g></svg>