<?xml version="1.0" encoding="UTF-8"?><svg id="Layer_2" xmlns="http://www.w3.org/2000/svg" viewBox="0 0 984.09 745.6"><defs><style>.cls-1{fill:#1573ff;}.cls-2{fill:#9affaa;}.cls-3{fill:#e02947;}.cls-4{fill:#fff;}.cls-5{fill:#ffead4;}.cls-6{fill:#f79577;}.cls-7{fill:#e83e36;}.cls-8{fill:#7f2828;}.cls-9{fill:#131313;}.cls-10{fill:#ff758c;}.cls-11{fill:#a695ef;}.cls-12{fill:#c2adff;}.cls-13{fill:none;stroke:#ffead4;stroke-miterlimit:10;stroke-width:5px;}.cls-14{fill:#af6a45;}</style></defs><g id="Resources"><g><g><path class="cls-5" d="M904.56,80.28c-24.34-21.48-59.72-30.47-94.32-32.55-44.07-2.64-89.16,4.85-129.71,21.55-27.5,11.33-53.34,26.92-82.75,32.94-52.13,10.67-104-10.39-156.09-18.82-62.56-10.12-129.31-1.42-186.98,24.37-48.37,21.63-93.9,62.46-90.38,109.92,.61,8.22,2.66,16.69-.35,24.58-2.54,6.67-8.37,11.95-14.33,16.64-47.14,37.1-116.7,56.76-140.67,108.29C1.66,382.94-.38,400.16,.05,417.01c1.57,61.25,43.75,125.04,111.21,136.22,30.84,5.11,64.69-.75,92.81,11.29,28.24,12.09,43.64,39.33,53.52,65.85,9.88,26.52,16.62,54.85,35.31,77.15,17.92,21.37,46.39,35.39,76.56,37.7,78.94,6.05,143.22-61.83,221.57-75.28,41.32-7.1,83.24,1.54,124.86,4.85,41.62,3.31,88.01-.22,118.91-26.09,35.47-29.69,38.1-81.38,15.9-118.78-8.5-14.32-20.04-27.09-27.94-41.69-7.9-14.6-11.87-32.19-4.37-47.32,3.58-7.23,9.51-13.36,15.72-19.05,18.97-17.37,41.41-31.8,58.23-50.82,16.82-19.03,27.47-44.93,17.75-66.98-9.35-21.21-34.34-32.93-50.33-50.62-2.51-2.78-4.89-5.91-5.12-9.51-.36-5.46,4.24-10.26,9-13.85,29.58-22.33,78.5-3.84,80.96-44.44,2.14-35.37-11.98-80.57-40.05-105.33Z"/><path class="cls-2" d="M967.95,65.03c-21.35-26.44-54.74-40.53-88.11-46.96-42.51-8.18-87.08-5.39-128.23,8.03-27.91,9.1-54.65,23.08-83.85,26.14-51.75,5.43-99.87-23.86-149.55-39.33-59.66-18.59-125.4-17.07-184.14,4.25-49.27,17.88-97.81,57.13-99.45,109.51-.28,9.08,.8,18.6-2.95,26.87-3.18,7-9.4,12.08-15.69,16.5-49.72,34.97-119.34,48.15-148.1,101.7-8.78,16.34-12.59,34.95-13.96,53.46-4.99,67.26,29.18,142.16,93.48,162.5,29.4,9.3,62.89,6.95,88.91,23.5,26.14,16.62,38.18,48.3,44.96,78.53,6.77,30.22,10.3,62.06,26.08,88.71,15.13,25.55,41.28,44.31,70.33,50.47,76,16.1,145.64-50.51,223.14-55.84,40.88-2.81,80.66,11.67,120.71,20.29,40.06,8.62,85.48,10.32,118.23-14.29,37.6-28.25,45.65-84.53,28.07-128.15-6.73-16.7-16.57-32.06-22.69-49-6.12-16.94-8.1-36.68,.79-52.34,4.25-7.49,10.66-13.49,17.29-18.97,20.26-16.74,43.59-29.85,61.94-48.66,18.36-18.82,31.46-45.9,24.36-71.21-6.83-24.35-29.84-40.18-43.48-61.47-2.14-3.34-4.12-7.06-3.96-11.03,.23-6.02,5.21-10.72,10.21-14.09,31.09-20.9,58.39-33.59,65.1-77.76,5.84-38.47,15.18-50.84-9.44-81.33Z"/><path class="cls-9" d="M571.54,19.3c-21.58-5.93-43.42-.64-61.89,8.75-23.53,11.95-43.23,30.56-56.67,53.54-9.12,15.58-15.56,33.32-27.92,46.17-21.91,22.78-57.31,25.61-87.39,36.42-36.13,12.98-66.32,39.04-84.56,72.99-15.3,28.47-20.93,68.09,1.21,96.71,3.84,4.96,8.51,9.63,10.36,15.49,1.57,4.96,.87,10.07-.15,14.84-8.04,37.78-34.96,71.56-25.04,111.22,3.03,12.11,9.38,23.51,16.82,33.93,27.07,37.86,75.86,64.76,114.93,50.94,17.87-6.32,32.55-20.44,52-21.59,19.53-1.15,39.04,11.15,55.44,24.7,16.4,13.55,31.97,29.21,51.03,37.39,18.27,7.84,38.75,7.83,55.07-.04,42.71-20.58,46.26-82.92,80.31-115.54,17.96-17.2,42.96-24.74,65.53-35.52,22.57-10.78,44.63-27.31,49.24-53.04,5.29-29.54-15.54-62.7-42.86-79.26-10.46-6.34-21.8-10.77-32.08-17.47-10.28-6.7-19.84-16.49-22.52-28.27-1.28-5.63-.9-11.3-.18-16.78,2.19-16.73,7.41-32.69,7.79-49.79s-5.31-36.61-19.71-47.41c-13.85-10.39-31.57-10.01-47.29-16.15-2.47-.96-5.02-2.19-6.68-4.37-2.52-3.31-2.24-7.73-1.37-11.45,5.45-23.11,38.25-26.64,22.08-52.82-14.08-22.8-40.64-46.73-65.52-53.57Z"/><path class="cls-10" d="M381.88,430.79c-9.22,14.06-13.84,30.62-17.22,47.09-5.42,26.41-8,53.31-10.57,80.15-.32,3.29-.62,6.71,.49,9.83,2.54,7.13,11.06,9.79,18.46,11.37,108.81,23.24,221.48,20.55,332.38,11.63,1.88-.15,3.85-.33,5.45-1.35,1.64-1.04,2.65-2.82,3.49-4.57,5.29-10.97,6.57-23.41,7.23-35.57,.86-15.79,.8-31.79-2.78-47.19-3.6-15.45-10.64-29.86-17.78-44.03-9.84-19.53-20.65-39.71-38.7-52.06-16.77-11.49-37.67-14.74-57.78-17.69-31.47-4.62-62.95-9.24-94.42-13.87-7.07-1.04-14.27-2.08-21.32-.92-11.11,1.81-20.31,9.55-31.22,11.51-9.55,1.71-15.28-3.41-24.53,1.56-19.07,10.24-39.25,25.91-51.18,44.11Z"/><g><path class="cls-14" d="M596.1,418.65c4.12-10.02,11.28-18.55,19.43-25.69,7.27-6.37,15.43-11.72,24.15-15.91,14.17-6.81,32.67-12.53,48.59-10.59,.04,0,.08,.01,.12,.02,2.9-20.18,1.33-41.37,2.77-61.91,1.39-19.67,5.61-39.65,1.29-58.89-5.16-22.97-21.94-41.74-40.87-55.73-36.25-26.8-76.79-32.1-119.66-40.55-38.67-7.63-80.5-3.05-108.75,27.33-27.91,30.03-37.25,73.09-37.84,114.09-.4,28.14,3.3,57.3,13.84,83.14,4.45-3.06,9.55-5.19,14.8-6.25,7.77-1.57,15.84-1.09,23.64,.33,6.04,1.1,12.03,2.78,17.43,5.69,6.6,3.56,12.09,8.83,17.37,14.14,6.84,6.88,13.53,14.02,18.58,22.3,5.05,8.28,8.41,17.84,8.01,27.53-.2,4.95-1.57,10.17-5.28,13.44-.58,.52-1.21,.97-1.88,1.37,22.78,6.02,47.14,7.73,70.58,6.18,11.59-.77,23.21-2.26,34.55-4.79-.67-1.15-1.26-2.35-1.76-3.58-4.09-10.03-3.23-21.65,.9-31.67Z"/><path class="cls-6" d="M499,437.7c.4-9.69-2.95-19.25-8.01-27.53-5.05-8.28-11.74-15.42-18.58-22.3-5.28-5.32-10.77-10.58-17.37-14.14-5.4-2.91-11.39-4.59-17.43-5.69-7.8-1.42-15.87-1.9-23.64-.33-5.26,1.06-10.36,3.19-14.8,6.25,5.84,14.32,13.77,27.62,24.29,39.14,18.17,19.91,42.23,32.51,68.38,39.42,.66-.4,1.29-.86,1.88-1.37,3.71-3.28,5.08-8.5,5.28-13.44Z"/><path class="cls-6" d="M682.42,389.73c2.99-7.53,4.82-15.31,5.97-23.25-.04,0-.08-.01-.12-.02-15.93-1.94-34.42,3.78-48.59,10.59-8.71,4.19-16.88,9.53-24.15,15.91-8.15,7.14-15.3,15.68-19.43,25.69-4.12,10.02-4.99,21.64-.9,31.67,.5,1.23,1.09,2.43,1.76,3.58,12.45-2.78,24.56-6.82,35.92-12.61,21.71-11.06,40.56-28.92,49.54-51.57Z"/></g><path class="cls-11" d="M420.97,65.73c-30.17,14.93-53.25,43.18-54.32,78.67-16.14,1.69-32.39,6.31-45.24,16.22-12.85,9.91-21.8,25.75-20.6,41.93,1.21,16.27,13.73,30.44,29.92,33.08-8.26,10.9-16.47,21.96-22.45,34.26-13.91,28.61-7.92,89.03,37.52,81.96,.38,19.55,19.18,34.61,38.4,38.23,12.91,2.43,27.23,.69,37.39-7.64,10.83-8.89,15.16-23.85,14.5-37.85-.66-14-5.61-27.39-10.51-40.52,17.42,9.23,40.16,4.31,54.81-8.87,14.65-13.18,21.89-33.15,23.07-52.82,32.01,31.26,85.09,38.24,124.1,16.33-10.68,14.4-10.46,35.92,.51,50.1,10.96,14.19,31.73,19.82,48.36,13.12-1.45,10.36-2.73,21.24,.93,31.04,3.87,10.36,15.21,19.22,26.5,14.64,5.48-2.22,9.73-6.7,13.2-11.48,10.51-14.47,15.27-33,13.06-50.75-1.78-14.29,11.65-22.53,18.75-34.4,7.75-12.96,13.05-27.5,13.76-42.68,1.32-28.13-13.6-49.26-37.48-61.86,1.97-.64,2.3-3.25,2.26-5.32-.27-14.85-1.15-30.04-6.91-43.73-10.84-25.79-40.35-30.19-46.63-31.65-16.26-3.76-29.96,8.76-37.49,10.6-6.32-5.54-18.04-24.33-34.41-27.2-24.59-6.8-30.02-4.61-46.59-.8-10.08,2.32-17.13,10.95-33,18-4.2-7.81-13.58-22.3-30.93-29.92-27.88-12.24-56.19,2.22-70.48,9.29Z"/><circle class="cls-13" cx="475.64" cy="352.61" r="49.75"/><circle class="cls-13" cx="616.64" cy="352.61" r="49.75"/><path class="cls-13" d="M525.66,353.57c1.22-5.27,2.48-10.62,5.17-15.31s7.07-8.71,12.4-9.64c6.45-1.13,13.02,2.55,16.96,7.78,3.94,5.23,5.69,11.76,6.88,18.2-.05-.5-.1-1-.15-1.5"/><path class="cls-9" d="M486.42,381.64c14.46,3.13,19.56-21.38,5.39-23.28-13.94-1.87-20.3,20.05-5.39,23.28Z"/><path class="cls-9" d="M588.42,375.48c3.15,4.28,9.48,6.2,14.13,3.63,4.69-2.59,6.4-9.17,4.1-14.02-1.95-4.11-4.27-12.73-15.59-9.03-7.15,2.33-5.92,14.97-2.64,19.42Z"/><path class="cls-8" d="M539.13,369.56c-.29,1.82-.52,3.88,.6,5.35,.85,1.12,2.27,1.61,3.63,1.96,2.12,.55,4.61,.84,6.27-.59,1.06-.91,1.51-2.33,1.81-3.69,1.02-4.74,.8-17.47-4.7-20-6.43-2.96-7.05,13.5-7.6,16.98Z"/><path class="cls-11" d="M474.85,292.39c5.39-5.4,13.07-8.42,20.69-8.13,3.14,.12,6.4,.84,8.8,2.87,3.98,3.36,4.52,9.18,4.78,14.39-2.59,1.13-5.9,.25-7.59-2.01-1.1-1.48-1.57-3.45-3.01-4.61-.79-.64-1.79-.95-2.76-1.23-4.04-1.13-8.29-1.76-12.44-1.17-3.87,.55-7.06,3.51-10.37,4.05-.39-1.77,.57-2.81,1.91-4.16Z"/><path class="cls-11" d="M574.14,302.59c.99,1.43,2.85,2.19,4.55,1.86,3.91-.75,4.99-5.74,7.57-8.77,2.25-2.64,5.87-3.82,9.34-3.71,3.46,.11,6.79,1.37,9.88,2.93,.91,.46,2.21,.85,2.77,0,.18-.28,.21-.62,.21-.95-.02-1.94-1.25-3.71-2.83-4.84s-3.48-1.69-5.37-2.14c-4.2-1.01-8.5-1.57-12.82-1.65-3.72-.07-7.67,.29-10.67,2.48-3.31,2.42-4.99,11.38-2.63,14.78Z"/><path class="cls-7" d="M538.37,400.86c2.05-3.02,4.87-6.42,8.5-5.96,2.47,.31,4.31,2.38,5.84,4.35,2.92,3.78,5.58,7.76,7.96,11.89,1.77,3.08,3.43,6.38,3.63,9.93s-1.37,7.43-4.59,8.95c-1.18,.56-2.49,.77-3.78,.95-2.64,.38-5.28,.67-7.94,.89-6.98,.58-19.26,.16-20.88-8.83-1.33-7.39,7.52-16.65,11.26-22.17Z"/><path class="cls-4" d="M538.18,405.32c-.09,.5-.14,1.06,.15,1.49,.35,.52,1.07,.67,1.71,.76,3.83,.53,7.74,.56,11.57,.08,1.4-.17,3.03-.61,3.46-1.88,.38-1.13-.41-2.31-1.16-3.27-2.06-2.64-5.32-7.32-9.19-6.13-3.46,1.07-5.98,5.83-6.55,8.95Z"/><path class="cls-5" d="M647.9,464.47c1.61,.76,2.64-1.8,2.6-3.59-.09-3.48-.18-6.97-.27-10.45-.15-6.06-1.61-13.78-7.56-14.97-2.38-.48-4.81,.35-7.08,1.19-24.08,8.88-47.09,20.62-68.41,34.9-6.65,4.45-13.6,9.32-21.59,9.79-9.96,.59-18.82-5.73-27.17-11.19-23.4-15.28-49.66-25.76-76.54-33.37-1.62-.46-3.26-.91-4.95-.99-2.45-.11-4.86,.58-7.16,1.45-4.14,1.57-8.14,3.86-10.86,7.35-2.72,3.49-3.95,8.36-2.31,12.47,15.48,38.75,13.01,83.76,19.31,125.01,.36,2.37,.77,4.86,2.23,6.77,2.14,2.79,5.93,3.6,9.39,4.23,18.87,3.4,37.73,6.79,56.6,10.19,15.66,2.82,31.39,5.65,47.29,6.22,9.46,.34,19.08-.15,28.09-3.04,7.56-2.43,14.49-6.49,21.34-10.51,11.51-6.76,23.01-13.51,34.52-20.27,6.08-3.57,12.48-7.49,15.55-13.83,1.79-3.69,2.26-7.87,2.61-11.96,2.47-28.29,.13-57.6-5.65-85.4Z"/><path class="cls-3" d="M662.54,596.34l.14-.08c1.48-2.54,14.11-81.65,8.11-122.24-1.12-7.6-3.36-15.56-10.91-21.37-2.53-1.95-5.75-3.64-9.55-4.21-5.51-.83-11.13,.8-16.18,2.47-28.91,9.57-56.03,22.25-79.27,37.08-9.2-.31-18.45,0-27.56,.89-.02-1.45-1.56-2.2-3.29-3.11-14.4-7.57-28.8-15.13-43.2-22.7-10.05-5.28-20.17-10.59-31.45-14.66-7.66-2.76-16.06-4.97-25.08-4.11-2.42,.23-4.78,.72-6.92,1.49-11.26,4.04-11.4,12.61-10.81,20.08,.88,11.09,2.06,22.16,2.67,33.26,.91,16.66,.51,33.36,2.21,50,2.07,20.34,7.25,40.49,12.43,60.59,34.34,8.24,68.57,15.9,103.92,22.03-1.03,2.36,3.41,4.06,7.05,4.6,5.53,.81,11.23,1.14,16.89,.97,6.05-.18,13.74-2.28,13.03-6.24,33.93-8.69,67.16-21.76,97.77-34.74Z"/><path class="cls-14" d="M428.14,478.27c.95,.02,1.94,.09,2.76,.58,2.28,1.37,1.75,4.83,.59,7.23-1.58,3.27-3.79,6.24-6.48,8.69-1.71,1.56-3.77,3.24-3.8,5.55-.03,2.71,2.69,4.48,4.79,6.2,5.09,4.13,7.9,10.58,8.77,17.08,.87,6.5,0,13.1-1.22,19.54-.8,4.26-2.14,9.03-6.01,10.99-1.35,.68-2.87,.94-4.36,1.18-5.09,.83-10.25,1.66-15.38,1.16-5.13-.5-10.32-2.48-13.65-6.42-3.76-4.46-4.6-10.62-5.19-16.43-1.22-11.99-1.98-24.41,1.91-35.83,4.42-12.95,24.72-19.84,37.26-19.52Z"/><path class="cls-14" d="M657.08,482.33c-3.84,2.8-5.64,8.53-3.18,12.59,2.06,3.4,6.51,5.1,7.83,8.85,1.8,5.12-3.16,9.79-6.41,14.14-5.11,6.83-6.46,16.39-3.09,24.23,3.37,7.83,11.49,13.49,20.01,13.57,3.14,.03,6.42-.72,8.81-2.75,3.19-2.7,4.27-7.08,5.17-11.16,2.69-12.2,5.32-24.53,5.31-37.02-.01-14.31-19.92-33.06-34.45-22.45Z"/><path class="cls-8" d="M412.14,524.52c5.48,3.9,11.94,6.21,18.63,6.8,1.92,.17,1.91-2.83,0-3-6.17-.55-12.08-2.8-17.11-6.39-.66-.47-1.67-.12-2.05,.54-.44,.75-.12,1.58,.54,2.05h0Z"/><path class="cls-8" d="M406.51,541.66c5.73,4.56,13.02,6.9,20.35,6.29,1.91-.16,1.93-3.16,0-3-6.49,.54-13.11-1.34-18.23-5.41-.64-.51-1.5-.61-2.12,0-.53,.52-.63,1.62,0,2.12h0Z"/><path class="cls-8" d="M670.53,519.98c-2.25,6.72-6.03,12.85-11.01,17.89-1.36,1.37,.76,3.5,2.12,2.12,5.35-5.41,9.37-12,11.78-19.21,.61-1.84-2.28-2.62-2.89-.8h0Z"/><path class="cls-8" d="M677.17,533.51c-.95,6.74-4.23,12.91-9.33,17.43-1.45,1.28,.68,3.4,2.12,2.12,5.43-4.81,9.09-11.56,10.1-18.75,.11-.8-.2-1.61-1.05-1.85-.7-.19-1.73,.24-1.85,1.05h0Z"/></g><path class="cls-12" d="M841.84,376.9c-1.33-.57-2.77-.51-4,.03-.37,0-.74,.06-1.1,.15l-26.67-3.68c-2.74-.38-5.26,1.54-5.64,4.27-.38,2.74,1.53,5.26,4.27,5.64l14.45,1.99-33.18,20.87c-6.17-8.09-15.9-13.32-26.84-13.32-18.61,0-33.75,15.14-33.75,33.75,0,17.31,13.1,31.61,29.9,33.52l.05,18.77-8.37-.07h-.04c-2.74,0-4.98,2.21-5,4.96-.02,2.76,2.2,5.02,4.96,5.04l8.47,.07,.08,29.27c0,2.76,2.24,4.99,5,4.99h.01c2.76,0,4.99-2.25,4.99-5.01l-.08-29.17,8,.06h.04c2.74,0,4.98-2.21,5-4.96,.02-2.76-2.2-5.02-4.96-5.04l-8.11-.06-.05-19.19c15.68-2.9,27.6-16.67,27.6-33.18,0-4.09-.73-8.02-2.08-11.65l34.54-21.73-5.68,13.16c-1.09,2.54,.07,5.48,2.61,6.57,.65,.28,1.32,.41,1.98,.41,1.94,0,3.78-1.13,4.59-3.02l11.6-26.88c1.09-2.54-.07-5.48-2.61-6.57Zm-78.7,73.46c-13.1,0-23.75-10.65-23.75-23.75s10.65-23.75,23.75-23.75,23.75,10.65,23.75,23.75-10.65,23.75-23.75,23.75Z"/><g><path class="cls-10" d="M233.39,275.86c0-18.47-15.03-33.5-33.5-33.5-14.93,0-27.6,9.82-31.92,23.33-6.14-6.94-15.11-11.33-25.08-11.33-18.47,0-33.5,15.03-33.5,33.5s15.03,33.5,33.5,33.5c.14,0,.27,0,.41-.01l3.36,16.52-8.22,1.58c-2.71,.52-4.49,3.14-3.97,5.85,.46,2.39,2.56,4.06,4.9,4.06,.31,0,.63-.03,.95-.09l8.32-1.6,5.83,28.69c.48,2.37,2.57,4,4.89,4,.33,0,.67-.03,1-.1,2.71-.55,4.45-3.19,3.9-5.9l-5.81-28.58,7.86-1.51c2.71-.52,4.49-3.14,3.97-5.85-.52-2.71-3.14-4.49-5.85-3.97l-7.96,1.53-3.3-16.24c10.25-3.32,18.35-11.44,21.63-21.71,6.14,6.94,15.11,11.33,25.08,11.33,.81,0,1.6-.04,2.4-.1l3.41,16.79-7.25,1.4c-2.71,.52-4.49,3.14-3.97,5.85,.46,2.39,2.56,4.06,4.9,4.06,.31,0,.63-.03,.95-.09l7.36-1.42,5.8,28.5c.48,2.37,2.57,4,4.89,4,.33,0,.67-.03,1-.1,2.71-.55,4.45-3.19,3.9-5.9l-5.78-28.4,8.82-1.7c2.71-.52,4.49-3.14,3.97-5.85-.52-2.71-3.14-4.49-5.85-3.97l-8.92,1.72-3.48-17.1c12.48-4.88,21.35-17.02,21.35-31.21Zm-90.5,35.5c-12.96,0-23.5-10.54-23.5-23.5s10.54-23.5,23.5-23.5,23.5,10.54,23.5,23.5-10.54,23.5-23.5,23.5Zm33.5-35.5c0-12.96,10.54-23.5,23.5-23.5s23.5,10.54,23.5,23.5-10.54,23.5-23.5,23.5-23.5-10.54-23.5-23.5Z"/><path class="cls-1" d="M894.84,119.9c-1.33-.57-2.77-.51-4,.03-.37,0-.73,.06-1.1,.15l-26.67-3.68c-2.74-.38-5.26,1.53-5.64,4.27-.38,2.74,1.53,5.26,4.27,5.64l14.45,1.99-33.55,21.11c-6.09-7.97-15.69-13.12-26.47-13.12-.72,0-1.44,.03-2.15,.08,2.21-4.45,3.46-9.46,3.46-14.76,0-4.01-.71-7.86-2.02-11.42l34.91-21.97-5.68,13.16c-1.09,2.54,.07,5.48,2.61,6.57,.65,.28,1.32,.41,1.98,.41,1.94,0,3.78-1.13,4.59-3.02l11.6-26.88c1.09-2.54-.07-5.48-2.61-6.57-1.33-.57-2.77-.51-4,.03-.37,0-.74,.06-1.1,.15l-26.67-3.68c-2.74-.38-5.26,1.53-5.64,4.27-.38,2.74,1.53,5.26,4.27,5.64l14.45,1.99-33.55,21.11c-6.09-7.97-15.69-13.12-26.47-13.12-18.37,0-33.31,14.94-33.31,33.31s14.94,33.31,33.31,33.31c.72,0,1.44-.03,2.15-.08-2.21,4.45-3.46,9.46-3.46,14.76,0,18.37,14.94,33.31,33.31,33.31s33.31-14.94,33.31-33.31c0-4.01-.71-7.86-2.02-11.42l34.91-21.97-5.68,13.16c-1.09,2.54,.07,5.48,2.61,6.57,.65,.28,1.32,.41,1.98,.41,1.94,0,3.78-1.13,4.59-3.02l11.6-26.88c1.09-2.54-.07-5.48-2.61-6.57Zm-134.89,1.71c0-13.34,10.85-24.19,24.19-24.19s24.19,10.85,24.19,24.19-10.85,24.19-24.19,24.19-24.19-10.85-24.19-24.19Zm56.19,72.19c-13.34,0-24.19-10.85-24.19-24.19s10.85-24.19,24.19-24.19,24.19,10.85,24.19,24.19-10.85,24.19-24.19,24.19Z"/></g></g></g></svg>