<svg width="28" height="25" viewBox="0 0 28 25" fill="none" xmlns="http://www.w3.org/2000/svg">
<path d="M14.0018 0C6.27001 0 0.00362904 5.19531 0.00362904 11.6071C0.00362904 14.2634 1.09177 16.6964 2.89622 18.6551C2.08148 20.8538 0.386392 22.7176 0.359052 22.74C-0.001839 23.1306 -0.100264 23.6998 0.107522 24.1908C0.315307 24.6819 0.791027 25 1.31596 25C4.6788 25 7.33081 23.5658 8.92201 22.4163C10.5023 22.9241 12.2083 23.2143 14.0018 23.2143C21.7336 23.2143 28 18.019 28 11.6071C28 5.19531 21.7336 0 14.0018 0ZM14.0018 20.5357C12.5418 20.5357 11.0983 20.3069 9.71487 19.8605L8.47363 19.4587L7.40736 20.2288C6.62543 20.7924 5.55369 21.423 4.26323 21.8471C4.6624 21.1719 5.05063 20.4129 5.35137 19.6038L5.93099 18.0357L4.80457 16.8192C3.81485 15.7422 2.62829 13.9621 2.62829 11.6071C2.62829 6.68527 7.72997 2.67857 14.0018 2.67857C20.2737 2.67857 25.3753 6.68527 25.3753 11.6071C25.3753 16.529 20.2737 20.5357 14.0018 20.5357Z" fill="#131313"/>
</svg>
