<svg width="16" height="26" viewBox="0 0 16 26" fill="none" xmlns="http://www.w3.org/2000/svg">
<path d="M12.9167 11.625L15.5 14.2083V16.7917H9.04167V24.5417L7.75 25.8333L6.45833 24.5417V16.7917H0V14.2083L2.58333 11.625V2.58333H1.29167V0H14.2083V2.58333H12.9167V11.625Z" fill="white"/>
<path d="M11.6667 11.625V12.1428L12.0328 12.5089L14.25 14.7261V15.5417H9.04167H7.79167V16.7917V24.0239L7.75 24.0656L7.70833 24.0239V16.7917V15.5417H6.45833H1.25V14.7261L3.46722 12.5089L3.83333 12.1428V11.625V2.58333V1.33333H2.58333H2.54167V1.25H12.9583V1.33333H12.9167H11.6667V2.58333V11.625Z" stroke="black" stroke-opacity="0.5" stroke-width="2.5"/>
</svg>
